<mxfile host="app.diagrams.net" modified="2023-04-03T13:06:21.420Z" agent="Mozilla/5.0 (Windows NT 10.0; Win64; x64) AppleWebKit/537.36 (KHTML, like Gecko) Chrome/111.0.0.0 Safari/537.36" etag="aFBIM7GG6zuugbZHqOAg" version="21.1.4" type="device">
  <diagram name="Page-1" id="1_sIiTETxOtP13BF7Bm2">
    <mxGraphModel dx="1050" dy="573" grid="1" gridSize="10" guides="1" tooltips="1" connect="1" arrows="1" fold="1" page="1" pageScale="1" pageWidth="827" pageHeight="1169" math="0" shadow="0">
      <root>
        <mxCell id="0" />
        <mxCell id="1" parent="0" />
        <mxCell id="jBvSbso5i-N8Mfd4Xtnt-6" value="" style="edgeStyle=orthogonalEdgeStyle;rounded=0;orthogonalLoop=1;jettySize=auto;html=1;entryX=0.5;entryY=1;entryDx=0;entryDy=0;fontFamily=Courier New;fontStyle=0;fontSize=15;" edge="1" parent="1" source="jBvSbso5i-N8Mfd4Xtnt-1" target="jBvSbso5i-N8Mfd4Xtnt-2">
          <mxGeometry relative="1" as="geometry" />
        </mxCell>
        <mxCell id="jBvSbso5i-N8Mfd4Xtnt-1" value="speech sound" style="rhombus;whiteSpace=wrap;html=1;fontFamily=Courier New;fontStyle=0;fontSize=13;" vertex="1" parent="1">
          <mxGeometry x="260" y="400" width="120" height="50" as="geometry" />
        </mxCell>
        <mxCell id="jBvSbso5i-N8Mfd4Xtnt-8" value="" style="edgeStyle=orthogonalEdgeStyle;rounded=0;orthogonalLoop=1;jettySize=auto;html=1;fontFamily=Courier New;fontStyle=0;fontSize=15;" edge="1" parent="1" source="jBvSbso5i-N8Mfd4Xtnt-2">
          <mxGeometry relative="1" as="geometry">
            <mxPoint x="320" y="300" as="targetPoint" />
          </mxGeometry>
        </mxCell>
        <mxCell id="jBvSbso5i-N8Mfd4Xtnt-2" value="phonology" style="rounded=1;whiteSpace=wrap;html=1;fontFamily=Courier New;fontStyle=0;fontSize=15;" vertex="1" parent="1">
          <mxGeometry x="260" y="330" width="120" height="40" as="geometry" />
        </mxCell>
        <mxCell id="jBvSbso5i-N8Mfd4Xtnt-7" value="" style="edgeStyle=orthogonalEdgeStyle;rounded=0;orthogonalLoop=1;jettySize=auto;html=1;entryX=0.5;entryY=1;entryDx=0;entryDy=0;fontFamily=Courier New;fontStyle=0;fontSize=15;" edge="1" parent="1" source="jBvSbso5i-N8Mfd4Xtnt-3" target="jBvSbso5i-N8Mfd4Xtnt-4">
          <mxGeometry relative="1" as="geometry" />
        </mxCell>
        <mxCell id="jBvSbso5i-N8Mfd4Xtnt-3" value="semantics" style="rounded=1;whiteSpace=wrap;html=1;fontFamily=Courier New;fontStyle=0;fontSize=15;" vertex="1" parent="1">
          <mxGeometry x="260" y="260" width="120" height="40" as="geometry" />
        </mxCell>
        <mxCell id="jBvSbso5i-N8Mfd4Xtnt-9" value="" style="edgeStyle=orthogonalEdgeStyle;rounded=0;orthogonalLoop=1;jettySize=auto;html=1;fontFamily=Courier New;fontStyle=0;fontSize=15;" edge="1" parent="1" source="jBvSbso5i-N8Mfd4Xtnt-4" target="jBvSbso5i-N8Mfd4Xtnt-5">
          <mxGeometry relative="1" as="geometry" />
        </mxCell>
        <mxCell id="jBvSbso5i-N8Mfd4Xtnt-4" value="syntax" style="rounded=1;whiteSpace=wrap;html=1;fontFamily=Courier New;fontStyle=0;fontSize=15;" vertex="1" parent="1">
          <mxGeometry x="260" y="190" width="120" height="40" as="geometry" />
        </mxCell>
        <mxCell id="jBvSbso5i-N8Mfd4Xtnt-5" value="message" style="rhombus;whiteSpace=wrap;html=1;fontFamily=Courier New;fontStyle=0;fontSize=15;" vertex="1" parent="1">
          <mxGeometry x="260" y="110" width="120" height="50" as="geometry" />
        </mxCell>
        <mxCell id="jBvSbso5i-N8Mfd4Xtnt-11" value="/raÉªs/" style="text;html=1;strokeColor=none;fillColor=none;align=center;verticalAlign=middle;whiteSpace=wrap;rounded=0;fontFamily=Courier New;fontStyle=0;fontSize=15;" vertex="1" parent="1">
          <mxGeometry x="410" y="335" width="60" height="30" as="geometry" />
        </mxCell>
        <mxCell id="jBvSbso5i-N8Mfd4Xtnt-13" value="&quot;rice&quot;" style="text;html=1;strokeColor=none;fillColor=none;align=center;verticalAlign=middle;whiteSpace=wrap;rounded=0;fontFamily=Courier New;fontSize=15;" vertex="1" parent="1">
          <mxGeometry x="414" y="265" width="60" height="30" as="geometry" />
        </mxCell>
        <mxCell id="jBvSbso5i-N8Mfd4Xtnt-14" value="object / patient" style="text;html=1;strokeColor=none;fillColor=none;align=center;verticalAlign=middle;whiteSpace=wrap;rounded=0;fontFamily=Courier New;fontSize=15;" vertex="1" parent="1">
          <mxGeometry x="401" y="195" width="86" height="30" as="geometry" />
        </mxCell>
        <mxCell id="jBvSbso5i-N8Mfd4Xtnt-15" value="" style="shape=image;imageAspect=0;aspect=fixed;verticalLabelPosition=bottom;verticalAlign=top;image=data:image/jpeg,/9j/4RDdRXhpZgAATU0AKgAAAAgABwESAAMAAAABAAEAAAEaAAUAAAABAAAAYgEbAAUAAAABAAAAagEoAAMAAAABAAIAAAExAAIAAAAfAAAAcgEyAAIAAAAUAAAAkYdpAAQAAAABAAAAqAAAANQACvyAAAAnEAAK/IAAACcQQWRvYmUgUGhvdG9zaG9wIDIzLjAgKFdpbmRvd3MpADIwMjI6MDc6MDUgMTY6MjY6NTYAAAAAAAOgAQADAAAAAf//AACgAgAEAAAAAQAAArygAwAEAAAAAQAAArwAAAAAAAAABgEDAAMAAAABAAYAAAEaAAUAAAABAAABIgEbAAUAAAABAAABKgEoAAMAAAABAAIAAAIBAAQAAAABAAABMgICAAQAAAABAAAPowAAAAAAAABIAAAAAQAAAEgAAAAB/9j/7QAMQWRvYmVfQ00AAv/uAA5BZG9iZQBkgAAAAAH/2wCEAAwICAgJCAwJCQwRCwoLERUPDAwPFRgTExUTExgRDAwMDAwMEQwMDAwMDAwMDAwMDAwMDAwMDAwMDAwMDAwMDAwBDQsLDQ4NEA4OEBQODg4UFA4ODg4UEQwMDAwMEREMDAwMDAwRDAwMDAwMDAwMDAwMDAwMDAwMDAwMDAwMDAwMDP/AABEIAKAAoAMBIgACEQEDEQH/3QAEAAr/xAE/AAABBQEBAQEBAQAAAAAAAAADAAECBAUGBwgJCgsBAAEFAQEBAQEBAAAAAAAAAAEAAgMEBQYHCAkKCxAAAQQBAwIEAgUHBggFAwwzAQACEQMEIRIxBUFRYRMicYEyBhSRobFCIyQVUsFiMzRygtFDByWSU/Dh8WNzNRaisoMmRJNUZEXCo3Q2F9JV4mXys4TD03Xj80YnlKSFtJXE1OT0pbXF1eX1VmZ2hpamtsbW5vY3R1dnd4eXp7fH1+f3EQACAgECBAQDBAUGBwcGBTUBAAIRAyExEgRBUWFxIhMFMoGRFKGxQiPBUtHwMyRi4XKCkkNTFWNzNPElBhaisoMHJjXC0kSTVKMXZEVVNnRl4vKzhMPTdePzRpSkhbSVxNTk9KW1xdXl9VZmdoaWprbG1ub2JzdHV2d3h5ent8f/2gAMAwEAAhEDEQA/APVUkkklKSSSSUpJJJJSkkkklKSSSSUpJJJJSkkkklKSSSSUpJJJJSkkkklP/9D1VJJJJSkkkklKSSSSUpJJJJTgfWX611/V3M6azLxnOwM+00XZwcA2h+no+o0j3b/e9/6Sv9DVa9nrfza2M267Hwsi/HpOTfVU99WODtNj2tLmUh8O2eq72blyv+Nn7N/zJy/Wj1PUp+zzz6nqM3bP5X2f111WD6/2LH+0/wA/6TPVnnftHqf9JJTm/VP6y431m6NX1OhvpOLjXfQTJrtbG6vfDd/tcyxn/B2IB+tYq+uH/NnLxTR69IuwcrduFxAL7Wem1v6HZsv/AJx/+A/4WlYv+Lfd+1PrUa/6H+07PQ2/Qnfd6npx7f5v0E3+MD/xU/U70p9f7cfo/wCj34vrz/YSU92kkkkpSSSSSlJJJJKUkkkkp//R9VSSSSUpJJJJSkkkklKSSSSU8B1aqz63fX1vRLpHRfq8GZOUwQW3ZDg19Vb/AKTdu2z0vcz+brzf9Mtn/GF1/K6F9XLLcIH7dmWNxMVwElr7Q4mwQW+9lVdvo/8AD+ksv6v3N6V/jJ6/0zIBY7q7KsvDe/QWCtrnWMqn6f8APX/+wlqJ/jWbbV0TB6nWw2N6Z1CjIub22DeyXf8AXnU1/wDXElO59UPq3T9WuhUdNYQ+7+dyrRw+54Hqubo32N2tqq9v81Wxcz9TmP8ArV9aM765ZLt2Lgvfg9HrEja0D33OH8qm/wDP9T9Lk3f6Cld3jZNGXjVZWM8W0XsbZVY3hzXDcxw/rNXEf4pbm43TOodAvIb1DpeZY26ofumGeoD+d+mquZ7f+/pKe8SSSSUpJJJJSkkkklKSSSSU/wD/0vVUkkklKSSSSUpJJJJSklU6n1Xp3ScV2Z1LIZi47dN9hiTBdsY36Vlm1v8AN1+9c3/46/1I9XZ9tft/0noW7f8Az36n/gaSno8no/TMrPxupZGOyzNwtwxrzO5u8bXcfT/k7/5v8xEzq8K/Gsxs4Mdj5DTXYywgNc1w2uZquH6t9e8r6w5FXQvqI43ZWQN2T1N7HMrx6gfdAvr3Nf8Av3Oq/wCDxvVyrv0FjG/xS/V8g3dXyMrqubZrdk3Wubud+81rD6n/AG7dekp7DAwcTp+HThYVbacWhgZVW3gNHmZc7+U93veh1dH6ZT1O7q9eOxvUMmttV2SPpOYz6Lf+iz+v6dX+irXID/Fpm9NtP/Nnr2V0vGukX0PHrN11307XUN3aNZ7v03/Dpz9Uv8YWE3f0761HKt/0eZT7I/rvOe7/AMDSU90kuGwfr71PpWfV0r674I6bbeS2jqVRnFfH753Wen+ZvsbZ+j9X9PTi1ruAQ4BzTIOoI4ISUukkkkpSSSSSlJJJJKf/0/VUkkklKSSSSUpQttrprfba9tdVbS573ENa1rRuc97ne1rWtVXq/Wem9FwXZ/U724+Owhu46lzj9GutjffZY6PoMXDX5v1o/wAYbTi4FD+i/Viz+ezLh+myGg/QpaPzH/u1/of0dnq5b/6OkpbonTx9f+v3/WPqzXWdCwLDR0jBf/N2FsF99rPbua6GWXM2/prP1ay30cP0V3w6Z00UDGGJSKAIFXpt2R4ent2KtWOjfVno9VJfXg9OxGtra55DWiTy5351ttjt73f4Sz3rRa5rmhzSC0iQRqCCkpodHt6CWX0dF+zNZj2GvIrxQxobYNHNsZVt96uX2mmiy4VuuNbXPFVcF7to3enXuLG73/mbnqhg/Vzo/TuqZfVcOgU5eeAMgtJDXEHcX+lPptfY73We3/0Yr1GVjZHqfZ7WXei81W+m4O2WN+nVZtJ2Wsn31uSU5X1U6n1zqnTX5nWsEdNtsuf9mxiHB4oEel9obb7/AFt3qfmU+p/OejWr/Vup4vSOm5HUssuGPisNj9g3OMcNY3957varayem/WXovV8/P6VjW7svp73VZOPY3aSGn0rLK2v/AJ6ltn6J7v8A0rT6qUgwzgfXP6s029TwHV42c0vGNd9JoBc2q6t42Obvb+loub/g3rls3oP1n+o1B6n0DqNvU+kYjS7J6VmHdtpbq91D2+xuzc+17qK8bZ/3YZ+jXoyrXdSwKMyjBuyK68vKDjRQ5wD3ho3P2M/kpKQdB65gde6ZT1LAfuqtHuafpVvH85Ra382yv/1JX+jWguG6x/i0xqrLurfVXIu6T1Vs2VVUvihzvpmn0z/NMtd7NnqfZa/+4/pLY+pH1md9Y+jC/IZ6PUMV5x86k6EWt/P2fSY21v8AmWerT/gklPQpJJJKUkkkkp//1PVUkkklKXNfWj6/9D+rGXTh9QZkWX3V+sBQxrgGSa2l7rLKW+5zH/QXSrhfrMG4n+Mv6sZ9mjL678YH+Vtsrb/081iSnkut/Xv6t9d+tWFm9SpybuhdPpLq8I11k2ZJP0ra/Waz0dvpfStfv9D0vS9O61dQP8dP1UAgY2cAOB6dX/vSu/SSU+W9c/xj/UDrzMavqeFn3V4lovZXtrDXOALdtrPtO2yvVaY/x0fVMAAY2cAOB6dX/vSu/SSU+fW/45vqpZU+s0dQaHtLdzGVNcJEbmOGT7XLL+rX+MP6hfVrp5wen43UXB7zbbdayl1j3nTc9zb2M9rA1jGsZ/4J6j16qkkp4D/x6fqp/wBxs7/tur/3pVdn+Nj6i151nUGdOyW5trBXZkiigWuYIhj7ftG9zfYz/Mr/AHF6Okkp4D/x6fqp/wBxs7/tur/3pWYf8Y3+L53Xh9YH4Oe/qLahSx7mVuawCfdVW7J212OY7Z7f/Rli9SSSU8B/49P1U/7jZ3/bdX/vSuZ6J/jC6F0n63dX6nVVkDpPVmtsNQYz1RkNIc5zh62z03Psy3/zn+FYvZUklPMfVn/GF0P6zZ78DAryK766jd+nY1rS0FrHbTXbb7v0jV064XpTrL/8bnWHxNeJ0+ukHwL/ALJcPy2ruklKSSSSU//V9VSSSSUpcB/jj6Y3I6Di9SNZsHTsgeqAdp9G79Hb7odt33MxmLv1S6z0ujq/SsrpmRpVl1OrLonaSPZa0H8+p+2xiSnjMf8AxQ/UzKoryce/LspvY2yp7bWQ5jxvY5v6D85pRP8Axmfql/pcz/t1n/pBWP8AFl1a+zpl/wBXeoe3qfQbDjWMJkmoFwpc135zatr8f2f4Kuj/AEq7RJTwf/jM/VL/AEuZ/wBus/8ASCX/AIzP1S/0uZ/26z/0gu8SSU8H/wCMz9Uv9Lmf9us/9IJf+Mz9Uv8AS5n/AG6z/wBILvEklPB/+Mz9Uv8AS5n/AG6z/wBIJf8AjM/VL/S5n/brP/SC7xJJTwf/AIzP1S/0uZ/26z/0gl/4zP1S/wBLmf8AbrP/AEgu8SSU8H/4zP1S/wBLmf8AbrP/AEgmd/ib+qDWlzrstrWiSTawAAeP6Fd6uR/xl9aswOgfszDBs6j1t32LFqbBcWvhmQ4NP8iz0P8AjcipJTk/4nem0V4vVuqYwc3Fy8r0cRlmrxVTuexznw3fu+0+m/8A4SleiLN+rnR6+h9DwulMId9lrDXuEw6xx9S+xu782y99j1pJKUkkkkp//9b1VJJJJSkkkklPB/Xfp+d0HrFH166PWbTS0VdYxgYFtGjPVMe72NDGP/nPS9LFyPR2UXLsumdSw+q9Po6jg2C3GyWh9bh9zmu/dsrf+jsZ+ZYrFlbLGOrsaH1vBa9jhIIOjmuafpNcvOMjC6r/AIt+p2dR6ZXZnfVLLfuzMNvufiuOnq1bv3f8Hb/hq/1XM/S/ZcxJT6SkqXSesdN6zhNzumXtyMd2m5vLXQHGu1h99djd3829XUlKSSSSUpJJJJSkklV6l1PA6Vh2ZvUL2Y2NUJdY8/8ARa36VljvzK6/0j0lMs/Pw+nYd2dnWtoxcdpfba7gAeQ9znO+ixjPfY/6C4f6o4uT9a/rDb9d+os2YdO7H6JjPEENaXNdkOj2u27rP9L+s2XfQ+zUIFNXU/8AGVmsysquzB+qGLYTVSTtsy3sO2XFh+g36Fj2fzX8zRY+/wBW6n0SmmqiplNLG1VVNDK62ANa1rRtYxjG+1rGtSUzSSSSUpJJJJT/AP/X9VSSSSUpJJJJSkzmhwLXAFpEEHUEFOkkp4bqf1Azem5r+s/UjK/ZmY6XXYDv6NbP5jWHcyr6Vmyp7H0s/wAB9j9Nav1P+tlnXG5OD1HHGD1rpzgzNxZ08PWp3F36LcP37Nns/SfpK10i43rn1G6pl/WO3r/RernpWRkUtpv21by7btH097PpNqp/N/wSSnsklw3/ADO+vn/z22f9sD/0ol/zO+vn/wA9tn/bA/8ASiSnuUlw3/M76+f/AD22f9sD/wBKJf8AM76+f/PbZ/2wP/SiSnY+uX1sb9XMOltFBzOqdQf6PT8UAw+z2t3v2+7ZW6yv9Gz9LdZZXV/w1WL0/wConVOtZlXV/rzlfbLWS+jpVZjHq3AHZZs9r9vt3sq/nPR/TZOXWj9K+ovWqfrFhdb6z1s9UdgNsbTW6rb/ADjX1/S9R23b6vqfQXaJKY1111VtqqaK66wGsY0ANa0CGta0fRa1SSSSUpJJJJSkkkklP//Q9VSSSSUpJJJJSkkkklKSSSSUpJJJJSkkkklKSSSSUpJJJJSkkkklKSSSSU//2f/tG2hQaG90b3Nob3AgMy4wADhCSU0EBAAAAAAADxwBWgADGyVHHAIAAAIAAAA4QklNBCUAAAAAABDNz/p9qMe+CQVwdq6vBcNOOEJJTQQ6AAAAAADlAAAAEAAAAAEAAAAAAAtwcmludE91dHB1dAAAAAUAAAAAUHN0U2Jvb2wBAAAAAEludGVlbnVtAAAAAEludGUAAAAAQ2xybQAAAA9wcmludFNpeHRlZW5CaXRib29sAAAAAAtwcmludGVyTmFtZVRFWFQAAAABAAAAAAAPcHJpbnRQcm9vZlNldHVwT2JqYwAAAAwAUAByAG8AbwBmACAAUwBlAHQAdQBwAAAAAAAKcHJvb2ZTZXR1cAAAAAEAAAAAQmx0bmVudW0AAAAMYnVpbHRpblByb29mAAAACXByb29mQ01ZSwA4QklNBDsAAAAAAi0AAAAQAAAAAQAAAAAAEnByaW50T3V0cHV0T3B0aW9ucwAAABcAAAAAQ3B0bmJvb2wAAAAAAENsYnJib29sAAAAAABSZ3NNYm9vbAAAAAAAQ3JuQ2Jvb2wAAAAAAENudENib29sAAAAAABMYmxzYm9vbAAAAAAATmd0dmJvb2wAAAAAAEVtbERib29sAAAAAABJbnRyYm9vbAAAAAAAQmNrZ09iamMAAAABAAAAAAAAUkdCQwAAAAMAAAAAUmQgIGRvdWJAb+AAAAAAAAAAAABHcm4gZG91YkBv4AAAAAAAAAAAAEJsICBkb3ViQG/gAAAAAAAAAAAAQnJkVFVudEYjUmx0AAAAAAAAAAAAAAAAQmxkIFVudEYjUmx0AAAAAAAAAAAAAAAAUnNsdFVudEYjUHhsQFIAAAAAAAAAAAAKdmVjdG9yRGF0YWJvb2wBAAAAAFBnUHNlbnVtAAAAAFBnUHMAAAAAUGdQQwAAAABMZWZ0VW50RiNSbHQAAAAAAAAAAAAAAABUb3AgVW50RiNSbHQAAAAAAAAAAAAAAABTY2wgVW50RiNQcmNAWQAAAAAAAAAAABBjcm9wV2hlblByaW50aW5nYm9vbAAAAAAOY3JvcFJlY3RCb3R0b21sb25nAAAAAAAAAAxjcm9wUmVjdExlZnRsb25nAAAAAAAAAA1jcm9wUmVjdFJpZ2h0bG9uZwAAAAAAAAALY3JvcFJlY3RUb3Bsb25nAAAAAAA4QklNA+0AAAAAABAASAAAAAEAAgBIAAAAAQACOEJJTQQmAAAAAAAOAAAAAAAAAAAAAD+AAAA4QklNBA0AAAAAAAQAAABaOEJJTQQZAAAAAAAEAAAAHjhCSU0D8wAAAAAACQAAAAAAAAAAAQA4QklNJxAAAAAAAAoAAQAAAAAAAAACOEJJTQP1AAAAAABIAC9mZgABAGxmZgAGAAAAAAABAC9mZgABAKGZmgAGAAAAAAABADIAAAABAFoAAAAGAAAAAAABADUAAAABAC0AAAAGAAAAAAABOEJJTQP4AAAAAABwAAD/////////////////////////////A+gAAAAA/////////////////////////////wPoAAAAAP////////////////////////////8D6AAAAAD/////////////////////////////A+gAADhCSU0EAAAAAAAAAgDMOEJJTQQCAAAAAAGaAAAAAAAAAAAAAAAAAAAAAAAAAAAAAAAAAAAAAAAAAAAAAAAAAAAAAAAAAAAAAAAAAAAAAAAAAAAAAAAAAAAAAAAAAAAAAAAAAAAAAAAAAAAAAAAAAAAAAAAAAAAAAAAAAAAAAAAAAAAAAAAAAAAAAAAAAAAAAAAAAAAAAAAAAAAAAAAAAAAAAAAAAAAAAAAAAAAAAAAAAAAAAAAAAAAAAAAAAAAAAAAAAAAAAAAAAAAAAAAAAAAAAAAAAAAAAAAAAAAAAAAAAAAAAAAAAAAAAAAAAAAAAAAAAAAAAAAAAAAAAAAAAAAAAAAAAAAAAAAAAAAAAAAAAAAAAAAAAAAAAAAAAAAAAAAAAAAAAAAAAAAAAAAAAAAAAAAAAAAAAAAAAAAAAAAAAAAAAAAAAAAAAAAAAAAAAAAAAAAAAAAAAAAAAAAAAAAAAAAAAAAAAAAAAAAAAAAAAAAAAAAAAAAAAAAAAAAAAAAAAAAAAAAAAAAAAAAAAAAAAAAAAAAAAAAAAAAAAAAAAAAAAAAAAAAAAAAAAAAAAAAAAAA4QklNBDAAAAAAAM0BAQEBAQEBAQEBAQEBAQEBAQEBAQEBAQEBAQEBAQEBAQEBAQEBAQEBAQEBAQEBAQEBAQEBAQEBAQEBAQEBAQEBAQEBAQEBAQEBAQEBAQEBAQEBAQEBAQEBAQEBAQEBAQEBAQEBAQEBAQEBAQEBAQEBAQEBAQEBAQEBAQEBAQEBAQEBAQEBAQEBAQEBAQEBAQEBAQEBAQEBAQEBAQEBAQEBAQEBAQEBAQEBAQEBAQEBAQEBAQEBAQEBAQEBAQEBAQEBAQEBAQEBAQEBAQEBADhCSU0ELQAAAAAABgABAAAA4jhCSU0ECAAAAAAAGgAAAAEAAAJAAAACQAAAAAIAACvQAQAAK8AAOEJJTQQeAAAAAAAEAAAAADhCSU0EGgAAAAADRQAAAAYAAAAAAAAAAAAAArwAAAK8AAAACABuAG8AcgBtAHAAaQBjAHMAAAABAAAAAAAAAAAAAAAAAAAAAAAAAAEAAAAAAAAAAAAAArwAAAK8AAAAAAAAAAAAAAAAAAAAAAEAAAAAAAAAAAAAAAAAAAAAAAAAEAAAAAEAAAAAAABudWxsAAAAAgAAAAZib3VuZHNPYmpjAAAAAQAAAAAAAFJjdDEAAAAEAAAAAFRvcCBsb25nAAAAAAAAAABMZWZ0bG9uZwAAAAAAAAAAQnRvbWxvbmcAAAK8AAAAAFJnaHRsb25nAAACvAAAAAZzbGljZXNWbExzAAAAAU9iamMAAAABAAAAAAAFc2xpY2UAAAASAAAAB3NsaWNlSURsb25nAAAAAAAAAAdncm91cElEbG9uZwAAAAAAAAAGb3JpZ2luZW51bQAAAAxFU2xpY2VPcmlnaW4AAAANYXV0b0dlbmVyYXRlZAAAAABUeXBlZW51bQAAAApFU2xpY2VUeXBlAAAAAEltZyAAAAAGYm91bmRzT2JqYwAAAAEAAAAAAABSY3QxAAAABAAAAABUb3AgbG9uZwAAAAAAAAAATGVmdGxvbmcAAAAAAAAAAEJ0b21sb25nAAACvAAAAABSZ2h0bG9uZwAAArwAAAADdXJsVEVYVAAAAAEAAAAAAABudWxsVEVYVAAAAAEAAAAAAABNc2dlVEVYVAAAAAEAAAAAAAZhbHRUYWdURVhUAAAAAQAAAAAADmNlbGxUZXh0SXNIVE1MYm9vbAEAAAAIY2VsbFRleHRURVhUAAAAAQAAAAAACWhvcnpBbGlnbmVudW0AAAAPRVNsaWNlSG9yekFsaWduAAAAB2RlZmF1bHQAAAAJdmVydEFsaWduZW51bQAAAA9FU2xpY2VWZXJ0QWxpZ24AAAAHZGVmYXVsdAAAAAtiZ0NvbG9yVHlwZWVudW0AAAARRVNsaWNlQkdDb2xvclR5cGUAAAAATm9uZQAAAAl0b3BPdXRzZXRsb25nAAAAAAAAAApsZWZ0T3V0c2V0bG9uZwAAAAAAAAAMYm90dG9tT3V0c2V0bG9uZwAAAAAAAAALcmlnaHRPdXRzZXRsb25nAAAAAAA4QklNBCgAAAAAAAwAAAACP/AAAAAAAAA4QklNBBEAAAAAAAEBADhCSU0EFAAAAAAABAAAAOI4QklNBAwAAAAAD78AAAABAAAAoAAAAKAAAAHgAAEsAAAAD6MAGAAB/9j/7QAMQWRvYmVfQ00AAv/uAA5BZG9iZQBkgAAAAAH/2wCEAAwICAgJCAwJCQwRCwoLERUPDAwPFRgTExUTExgRDAwMDAwMEQwMDAwMDAwMDAwMDAwMDAwMDAwMDAwMDAwMDAwBDQsLDQ4NEA4OEBQODg4UFA4ODg4UEQwMDAwMEREMDAwMDAwRDAwMDAwMDAwMDAwMDAwMDAwMDAwMDAwMDAwMDP/AABEIAKAAoAMBIgACEQEDEQH/3QAEAAr/xAE/AAABBQEBAQEBAQAAAAAAAAADAAECBAUGBwgJCgsBAAEFAQEBAQEBAAAAAAAAAAEAAgMEBQYHCAkKCxAAAQQBAwIEAgUHBggFAwwzAQACEQMEIRIxBUFRYRMicYEyBhSRobFCIyQVUsFiMzRygtFDByWSU/Dh8WNzNRaisoMmRJNUZEXCo3Q2F9JV4mXys4TD03Xj80YnlKSFtJXE1OT0pbXF1eX1VmZ2hpamtsbW5vY3R1dnd4eXp7fH1+f3EQACAgECBAQDBAUGBwcGBTUBAAIRAyExEgRBUWFxIhMFMoGRFKGxQiPBUtHwMyRi4XKCkkNTFWNzNPElBhaisoMHJjXC0kSTVKMXZEVVNnRl4vKzhMPTdePzRpSkhbSVxNTk9KW1xdXl9VZmdoaWprbG1ub2JzdHV2d3h5ent8f/2gAMAwEAAhEDEQA/APVUkkklKSSSSUpJJJJSkkkklKSSSSUpJJJJSkkkklKSSSSUpJJJJSkkkklP/9D1VJJJJSkkkklKSSSSUpJJJJTgfWX611/V3M6azLxnOwM+00XZwcA2h+no+o0j3b/e9/6Sv9DVa9nrfza2M267Hwsi/HpOTfVU99WODtNj2tLmUh8O2eq72blyv+Nn7N/zJy/Wj1PUp+zzz6nqM3bP5X2f111WD6/2LH+0/wA/6TPVnnftHqf9JJTm/VP6y431m6NX1OhvpOLjXfQTJrtbG6vfDd/tcyxn/B2IB+tYq+uH/NnLxTR69IuwcrduFxAL7Wem1v6HZsv/AJx/+A/4WlYv+Lfd+1PrUa/6H+07PQ2/Qnfd6npx7f5v0E3+MD/xU/U70p9f7cfo/wCj34vrz/YSU92kkkkpSSSSSlJJJJKUkkkkp//R9VSSSSUpJJJJSkkkklKSSSSU8B1aqz63fX1vRLpHRfq8GZOUwQW3ZDg19Vb/AKTdu2z0vcz+brzf9Mtn/GF1/K6F9XLLcIH7dmWNxMVwElr7Q4mwQW+9lVdvo/8AD+ksv6v3N6V/jJ6/0zIBY7q7KsvDe/QWCtrnWMqn6f8APX/+wlqJ/jWbbV0TB6nWw2N6Z1CjIub22DeyXf8AXnU1/wDXElO59UPq3T9WuhUdNYQ+7+dyrRw+54Hqubo32N2tqq9v81Wxcz9TmP8ArV9aM765ZLt2Lgvfg9HrEja0D33OH8qm/wDP9T9Lk3f6Cld3jZNGXjVZWM8W0XsbZVY3hzXDcxw/rNXEf4pbm43TOodAvIb1DpeZY26ofumGeoD+d+mquZ7f+/pKe8SSSSUpJJJJSkkkklKSSSSU/wD/0vVUkkklKSSSSUpJJJJSklU6n1Xp3ScV2Z1LIZi47dN9hiTBdsY36Vlm1v8AN1+9c3/46/1I9XZ9tft/0noW7f8Az36n/gaSno8no/TMrPxupZGOyzNwtwxrzO5u8bXcfT/k7/5v8xEzq8K/Gsxs4Mdj5DTXYywgNc1w2uZquH6t9e8r6w5FXQvqI43ZWQN2T1N7HMrx6gfdAvr3Nf8Av3Oq/wCDxvVyrv0FjG/xS/V8g3dXyMrqubZrdk3Wubud+81rD6n/AG7dekp7DAwcTp+HThYVbacWhgZVW3gNHmZc7+U93veh1dH6ZT1O7q9eOxvUMmttV2SPpOYz6Lf+iz+v6dX+irXID/Fpm9NtP/Nnr2V0vGukX0PHrN11307XUN3aNZ7v03/Dpz9Uv8YWE3f0761HKt/0eZT7I/rvOe7/AMDSU90kuGwfr71PpWfV0r674I6bbeS2jqVRnFfH753Wen+ZvsbZ+j9X9PTi1ruAQ4BzTIOoI4ISUukkkkpSSSSSlJJJJKf/0/VUkkklKSSSSUpQttrprfba9tdVbS573ENa1rRuc97ne1rWtVXq/Wem9FwXZ/U724+Owhu46lzj9GutjffZY6PoMXDX5v1o/wAYbTi4FD+i/Viz+ezLh+myGg/QpaPzH/u1/of0dnq5b/6OkpbonTx9f+v3/WPqzXWdCwLDR0jBf/N2FsF99rPbua6GWXM2/prP1ay30cP0V3w6Z00UDGGJSKAIFXpt2R4ent2KtWOjfVno9VJfXg9OxGtra55DWiTy5351ttjt73f4Sz3rRa5rmhzSC0iQRqCCkpodHt6CWX0dF+zNZj2GvIrxQxobYNHNsZVt96uX2mmiy4VuuNbXPFVcF7to3enXuLG73/mbnqhg/Vzo/TuqZfVcOgU5eeAMgtJDXEHcX+lPptfY73We3/0Yr1GVjZHqfZ7WXei81W+m4O2WN+nVZtJ2Wsn31uSU5X1U6n1zqnTX5nWsEdNtsuf9mxiHB4oEel9obb7/AFt3qfmU+p/OejWr/Vup4vSOm5HUssuGPisNj9g3OMcNY3957varayem/WXovV8/P6VjW7svp73VZOPY3aSGn0rLK2v/AJ6ltn6J7v8A0rT6qUgwzgfXP6s029TwHV42c0vGNd9JoBc2q6t42Obvb+loub/g3rls3oP1n+o1B6n0DqNvU+kYjS7J6VmHdtpbq91D2+xuzc+17qK8bZ/3YZ+jXoyrXdSwKMyjBuyK68vKDjRQ5wD3ho3P2M/kpKQdB65gde6ZT1LAfuqtHuafpVvH85Ra382yv/1JX+jWguG6x/i0xqrLurfVXIu6T1Vs2VVUvihzvpmn0z/NMtd7NnqfZa/+4/pLY+pH1md9Y+jC/IZ6PUMV5x86k6EWt/P2fSY21v8AmWerT/gklPQpJJJKUkkkkp//1PVUkkklKXNfWj6/9D+rGXTh9QZkWX3V+sBQxrgGSa2l7rLKW+5zH/QXSrhfrMG4n+Mv6sZ9mjL678YH+Vtsrb/081iSnkut/Xv6t9d+tWFm9SpybuhdPpLq8I11k2ZJP0ra/Waz0dvpfStfv9D0vS9O61dQP8dP1UAgY2cAOB6dX/vSu/SSU+W9c/xj/UDrzMavqeFn3V4lovZXtrDXOALdtrPtO2yvVaY/x0fVMAAY2cAOB6dX/vSu/SSU+fW/45vqpZU+s0dQaHtLdzGVNcJEbmOGT7XLL+rX+MP6hfVrp5wen43UXB7zbbdayl1j3nTc9zb2M9rA1jGsZ/4J6j16qkkp4D/x6fqp/wBxs7/tur/3pVdn+Nj6i151nUGdOyW5trBXZkiigWuYIhj7ftG9zfYz/Mr/AHF6Okkp4D/x6fqp/wBxs7/tur/3pWYf8Y3+L53Xh9YH4Oe/qLahSx7mVuawCfdVW7J212OY7Z7f/Rli9SSSU8B/49P1U/7jZ3/bdX/vSuZ6J/jC6F0n63dX6nVVkDpPVmtsNQYz1RkNIc5zh62z03Psy3/zn+FYvZUklPMfVn/GF0P6zZ78DAryK766jd+nY1rS0FrHbTXbb7v0jV064XpTrL/8bnWHxNeJ0+ukHwL/ALJcPy2ruklKSSSSU//V9VSSSSUpcB/jj6Y3I6Di9SNZsHTsgeqAdp9G79Hb7odt33MxmLv1S6z0ujq/SsrpmRpVl1OrLonaSPZa0H8+p+2xiSnjMf8AxQ/UzKoryce/LspvY2yp7bWQ5jxvY5v6D85pRP8Axmfql/pcz/t1n/pBWP8AFl1a+zpl/wBXeoe3qfQbDjWMJkmoFwpc135zatr8f2f4Kuj/AEq7RJTwf/jM/VL/AEuZ/wBus/8ASCX/AIzP1S/0uZ/26z/0gu8SSU8H/wCMz9Uv9Lmf9us/9IJf+Mz9Uv8AS5n/AG6z/wBILvEklPB/+Mz9Uv8AS5n/AG6z/wBIJf8AjM/VL/S5n/brP/SC7xJJTwf/AIzP1S/0uZ/26z/0gl/4zP1S/wBLmf8AbrP/AEgu8SSU8H/4zP1S/wBLmf8AbrP/AEgmd/ib+qDWlzrstrWiSTawAAeP6Fd6uR/xl9aswOgfszDBs6j1t32LFqbBcWvhmQ4NP8iz0P8AjcipJTk/4nem0V4vVuqYwc3Fy8r0cRlmrxVTuexznw3fu+0+m/8A4SleiLN+rnR6+h9DwulMId9lrDXuEw6xx9S+xu782y99j1pJKUkkkkp//9b1VJJJJSkkkklPB/Xfp+d0HrFH166PWbTS0VdYxgYFtGjPVMe72NDGP/nPS9LFyPR2UXLsumdSw+q9Po6jg2C3GyWh9bh9zmu/dsrf+jsZ+ZYrFlbLGOrsaH1vBa9jhIIOjmuafpNcvOMjC6r/AIt+p2dR6ZXZnfVLLfuzMNvufiuOnq1bv3f8Hb/hq/1XM/S/ZcxJT6SkqXSesdN6zhNzumXtyMd2m5vLXQHGu1h99djd3829XUlKSSSSUpJJJJSkklV6l1PA6Vh2ZvUL2Y2NUJdY8/8ARa36VljvzK6/0j0lMs/Pw+nYd2dnWtoxcdpfba7gAeQ9znO+ixjPfY/6C4f6o4uT9a/rDb9d+os2YdO7H6JjPEENaXNdkOj2u27rP9L+s2XfQ+zUIFNXU/8AGVmsysquzB+qGLYTVSTtsy3sO2XFh+g36Fj2fzX8zRY+/wBW6n0SmmqiplNLG1VVNDK62ANa1rRtYxjG+1rGtSUzSSSSUpJJJJT/AP/X9VSSSSUpJJJJSkzmhwLXAFpEEHUEFOkkp4bqf1Azem5r+s/UjK/ZmY6XXYDv6NbP5jWHcyr6Vmyp7H0s/wAB9j9Nav1P+tlnXG5OD1HHGD1rpzgzNxZ08PWp3F36LcP37Nns/SfpK10i43rn1G6pl/WO3r/RernpWRkUtpv21by7btH097PpNqp/N/wSSnsklw3/ADO+vn/z22f9sD/0ol/zO+vn/wA9tn/bA/8ASiSnuUlw3/M76+f/AD22f9sD/wBKJf8AM76+f/PbZ/2wP/SiSnY+uX1sb9XMOltFBzOqdQf6PT8UAw+z2t3v2+7ZW6yv9Gz9LdZZXV/w1WL0/wConVOtZlXV/rzlfbLWS+jpVZjHq3AHZZs9r9vt3sq/nPR/TZOXWj9K+ovWqfrFhdb6z1s9UdgNsbTW6rb/ADjX1/S9R23b6vqfQXaJKY1111VtqqaK66wGsY0ANa0CGta0fRa1SSSSUpJJJJSkkkklP//Q9VSSSSUpJJJJSkkkklKSSSSUpJJJJSkkkklKSSSSUpJJJJSkkkklKSSSSU//2QA4QklNBCEAAAAAAFcAAAABAQAAAA8AQQBkAG8AYgBlACAAUABoAG8AdABvAHMAaABvAHAAAAAUAEEAZABvAGIAZQAgAFAAaABvAHQAbwBzAGgAbwBwACAAMgAwADIAMgAAAAEAOEJJTQQGAAAAAAAHAAgAAAABAQD/4RIXaHR0cDovL25zLmFkb2JlLmNvbS94YXAvMS4wLwA8P3hwYWNrZXQgYmVnaW49Iu+7vyIgaWQ9Ilc1TTBNcENlaGlIenJlU3pOVGN6a2M5ZCI/PiA8eDp4bXBtZXRhIHhtbG5zOng9ImFkb2JlOm5zOm1ldGEvIiB4OnhtcHRrPSJBZG9iZSBYTVAgQ29yZSA3LjEtYzAwMCA3OS5hODczMWI5LCAyMDIxLzA5LzA5LTAwOjM3OjM4ICAgICAgICAiPiA8cmRmOlJERiB4bWxuczpyZGY9Imh0dHA6Ly93d3cudzMub3JnLzE5OTkvMDIvMjItcmRmLXN5bnRheC1ucyMiPiA8cmRmOkRlc2NyaXB0aW9uIHJkZjphYm91dD0iIiB4bWxuczp4bXA9Imh0dHA6Ly9ucy5hZG9iZS5jb20veGFwLzEuMC8iIHhtbG5zOmRjPSJodHRwOi8vcHVybC5vcmcvZGMvZWxlbWVudHMvMS4xLyIgeG1sbnM6eG1wTU09Imh0dHA6Ly9ucy5hZG9iZS5jb20veGFwLzEuMC9tbS8iIHhtbG5zOnN0RXZ0PSJodHRwOi8vbnMuYWRvYmUuY29tL3hhcC8xLjAvc1R5cGUvUmVzb3VyY2VFdmVudCMiIHhtbG5zOnN0UmVmPSJodHRwOi8vbnMuYWRvYmUuY29tL3hhcC8xLjAvc1R5cGUvUmVzb3VyY2VSZWYjIiB4bWxuczpwaG90b3Nob3A9Imh0dHA6Ly9ucy5hZG9iZS5jb20vcGhvdG9zaG9wLzEuMC8iIHhtcDpDcmVhdG9yVG9vbD0iQWRvYmUgUGhvdG9zaG9wIDIzLjAgKFdpbmRvd3MpIiB4bXA6Q3JlYXRlRGF0ZT0iMjAyMi0wNy0wNFQxNzo0MDoxNyswMTowMCIgeG1wOk1ldGFkYXRhRGF0ZT0iMjAyMi0wNy0wNVQxNjoyNjo1NiswMTowMCIgeG1wOk1vZGlmeURhdGU9IjIwMjItMDctMDVUMTY6MjY6NTYrMDE6MDAiIGRjOmZvcm1hdD0iaW1hZ2UvanBlZyIgeG1wTU06SW5zdGFuY2VJRD0ieG1wLmlpZDphZjJjOGRlNi0zNGI1LTRhNDgtODIxZi1lODBhYzY2ZWFmNDIiIHhtcE1NOkRvY3VtZW50SUQ9ImFkb2JlOmRvY2lkOnBob3Rvc2hvcDplY2M4YzdkYy1hNjA5LTgyNDctOWMwMC00OTY1MmExMWJhZDMiIHhtcE1NOk9yaWdpbmFsRG9jdW1lbnRJRD0ieG1wLmRpZDpkZGQwYTZhOC02ZDA5LWY1NDYtODlmOC1iMWY4Y2ZmNWYzM2MiIHBob3Rvc2hvcDpDb2xvck1vZGU9IjMiPiA8eG1wTU06SGlzdG9yeT4gPHJkZjpTZXE+IDxyZGY6bGkgc3RFdnQ6YWN0aW9uPSJjcmVhdGVkIiBzdEV2dDppbnN0YW5jZUlEPSJ4bXAuaWlkOmRkZDBhNmE4LTZkMDktZjU0Ni04OWY4LWIxZjhjZmY1ZjMzYyIgc3RFdnQ6d2hlbj0iMjAyMi0wNy0wNFQxNzo0MDoxNyswMTowMCIgc3RFdnQ6c29mdHdhcmVBZ2VudD0iQWRvYmUgUGhvdG9zaG9wIDIzLjAgKFdpbmRvd3MpIi8+IDxyZGY6bGkgc3RFdnQ6YWN0aW9uPSJzYXZlZCIgc3RFdnQ6aW5zdGFuY2VJRD0ieG1wLmlpZDphZTBhNWRlOS1hMzFkLTI4NDQtOGE3ZC01YTA3ZTMzM2Q2ODgiIHN0RXZ0OndoZW49IjIwMjItMDctMDRUMTg6MDg6MDMrMDE6MDAiIHN0RXZ0OnNvZnR3YXJlQWdlbnQ9IkFkb2JlIFBob3Rvc2hvcCAyMy4wIChXaW5kb3dzKSIgc3RFdnQ6Y2hhbmdlZD0iLyIvPiA8cmRmOmxpIHN0RXZ0OmFjdGlvbj0ic2F2ZWQiIHN0RXZ0Omluc3RhbmNlSUQ9InhtcC5paWQ6ZjkxNTQxOTgtMmJiZC0yYzQ1LTk5NTQtYTdmODA5M2NkZjdmIiBzdEV2dDp3aGVuPSIyMDIyLTA3LTA1VDE2OjI2OjU2KzAxOjAwIiBzdEV2dDpzb2Z0d2FyZUFnZW50PSJBZG9iZSBQaG90b3Nob3AgMjMuMCAoV2luZG93cykiIHN0RXZ0OmNoYW5nZWQ9Ii8iLz4gPHJkZjpsaSBzdEV2dDphY3Rpb249ImNvbnZlcnRlZCIgc3RFdnQ6cGFyYW1ldGVycz0iZnJvbSBhcHBsaWNhdGlvbi92bmQuYWRvYmUucGhvdG9zaG9wIHRvIGltYWdlL2pwZWciLz4gPHJkZjpsaSBzdEV2dDphY3Rpb249ImRlcml2ZWQiIHN0RXZ0OnBhcmFtZXRlcnM9ImNvbnZlcnRlZCBmcm9tIGFwcGxpY2F0aW9uL3ZuZC5hZG9iZS5waG90b3Nob3AgdG8gaW1hZ2UvanBlZyIvPiA8cmRmOmxpIHN0RXZ0OmFjdGlvbj0ic2F2ZWQiIHN0RXZ0Omluc3RhbmNlSUQ9InhtcC5paWQ6YWYyYzhkZTYtMzRiNS00YTQ4LTgyMWYtZTgwYWM2NmVhZjQyIiBzdEV2dDp3aGVuPSIyMDIyLTA3LTA1VDE2OjI2OjU2KzAxOjAwIiBzdEV2dDpzb2Z0d2FyZUFnZW50PSJBZG9iZSBQaG90b3Nob3AgMjMuMCAoV2luZG93cykiIHN0RXZ0OmNoYW5nZWQ9Ii8iLz4gPC9yZGY6U2VxPiA8L3htcE1NOkhpc3Rvcnk+IDx4bXBNTTpEZXJpdmVkRnJvbSBzdFJlZjppbnN0YW5jZUlEPSJ4bXAuaWlkOmY5MTU0MTk4LTJiYmQtMmM0NS05OTU0LWE3ZjgwOTNjZGY3ZiIgc3RSZWY6ZG9jdW1lbnRJRD0ieG1wLmRpZDpkZGQwYTZhOC02ZDA5LWY1NDYtODlmOC1iMWY4Y2ZmNWYzM2MiIHN0UmVmOm9yaWdpbmFsRG9jdW1lbnRJRD0ieG1wLmRpZDpkZGQwYTZhOC02ZDA5LWY1NDYtODlmOC1iMWY4Y2ZmNWYzM2MiLz4gPHBob3Rvc2hvcDpEb2N1bWVudEFuY2VzdG9ycz4gPHJkZjpCYWc+IDxyZGY6bGk+ODE2Q0Q3MzZCNDg5Njc2RTM1QjMwNjZBQkExNTI0MUU8L3JkZjpsaT4gPHJkZjpsaT5BMTFCMkRFMUY1N0E5NEMxMzlDNjYwQjg0Rjc4QTYzMTwvcmRmOmxpPiA8L3JkZjpCYWc+IDwvcGhvdG9zaG9wOkRvY3VtZW50QW5jZXN0b3JzPiA8L3JkZjpEZXNjcmlwdGlvbj4gPC9yZGY6UkRGPiA8L3g6eG1wbWV0YT4gICAgICAgICAgICAgICAgICAgICAgICAgICAgICAgICAgICAgICAgICAgICAgICAgICAgICAgICAgICAgICAgICAgICAgICAgICAgICAgICAgICAgICAgICAgICAgICAgICAgICAgICAgICAgICAgICAgICAgICAgICAgICAgICAgICAgICAgICAgICAgICAgICAgICAgICAgICAgICAgICAgICAgICAgICAgICAgICAgICAgICAgICAgICAgICAgICAgICAgICAgICAgICAgICAgICAgICAgICAgICAgICAgICAgICAgICAgICAgICAgICAgICAgICAgICAgICAgICAgICAgICAgICAgICAgICAgICAgICAgICAgICAgICAgICAgICAgICAgICAgICAgICAgICAgICAgICAgICAgICAgICAgICAgICAgICAgICAgICAgICAgICAgICAgICAgICAgICAgICAgICAgICAgICAgICAgICAgICAgICAgICAgICAgICAgICAgICAgICAgICAgICAgICAgICAgICAgICAgICAgICAgICAgICAgICAgICAgICAgICAgICAgICAgICAgICAgICAgICAgICAgICAgICAgICAgICAgICAgICAgICAgICAgICAgICAgICAgICAgICAgICAgICAgICAgICAgICAgICAgICAgICAgICAgICAgICAgICAgICAgICAgICAgICAgICAgICAgICAgICAgICAgICAgICAgICAgICAgICAgICAgICAgICAgICAgICAgICAgICAgICAgICAgICAgICAgICAgICAgICAgICAgICAgICAgICAgICAgICAgICAgICAgICAgICAgICAgICAgICAgICAgICAgICAgICAgICAgICAgICAgICAgICAgICAgICAgICAgICAgICAgICAgICAgICAgICAgICAgICAgICAgICAgICAgICAgICAgICAgICAgICAgICAgICAgICAgICAgICAgICAgICAgICAgICAgICAgICAgICAgICAgICAgICAgICAgICAgICAgICAgICAgICAgICAgICAgICAgICAgICAgICAgICAgICAgICAgICAgICAgICAgICAgICAgICAgICAgICAgICAgICAgICAgICAgICAgICAgICAgICAgICAgICAgICAgICAgICAgICAgICAgICAgICAgICAgICAgICAgICAgICAgICAgICAgICAgICAgICAgICAgICAgICAgICAgICAgICAgICAgICAgICAgICAgICAgICAgICAgICAgICAgICAgICAgICAgICAgICAgICAgICAgICAgICAgICAgICAgICAgICAgICAgICAgICAgICAgICAgICAgICAgICAgICAgICAgICAgICAgICAgICAgICAgICAgICAgICAgICAgICAgICAgICAgICAgICAgICAgICAgICAgICAgICAgICAgICAgICAgICAgICAgICAgICAgICAgICAgICAgICAgICAgICAgICAgICAgICAgICAgICAgICAgICAgICAgICAgICAgICAgICAgICAgICAgICAgICAgICAgICAgICAgICAgICAgICAgICAgICAgICAgICAgICAgICAgICAgICAgICAgICAgICAgICAgICAgICAgICAgICAgICAgICAgICAgICAgICAgICAgICAgICAgICAgICAgICAgICAgICAgICAgICAgICAgICAgICAgICAgICAgICAgICAgICAgICAgICAgICAgICAgICAgICAgICAgICAgICAgICAgICAgICAgICAgICAgICAgICAgICAgICAgICAgICAgICAgICAgICAgICAgICAgICAgICAgICAgICAgICAgICAgICAgICAgICAgICAgICAgICAgICAgICAgICAgICAgICAgICAgICAgICAgICAgICAgICAgICAgICAgICAgICAgICAgICAgICAgICAgICAgICAgICAgICAgICAgICAgICAgICAgICAgICAgICAgICAgICAgICAgICAgICAgICAgICAgICAgICAgICAgICAgICAgICAgICAgICAgICAgICAgICAgICAgICAgICAgICAgICAgICAgICAgICAgICAgICAgICAgICAgICAgICAgICAgICAgICAgICAgICAgICAgICAgICAgICAgICAgICAgICAgICAgICAgICAgICAgICAgICAgICAgICAgICAgICAgICAgICAgICAgICAgICAgICAgICAgICAgICAgICAgICAgICAgICAgICAgICAgICAgICAgICAgICAgICAgICAgICAgICAgICAgICAgICAgICAgICAgICAgICAgICAgICAgICAgICAgICAgICAgICAgICAgICAgICAgICAgICAgICAgICAgICAgICAgICAgICAgICAgICAgICAgICAgICAgICAgICAgICAgICAgICAgICAgICAgICAgICAgICAgICAgICAgICAgICAgICAgICAgICAgICAgICAgICAgICAgICAgICAgICAgICAgICAgICAgICAgICAgICAgICAgICAgICAgICAgICAgICAgICAgICAgICAgICAgICAgICAgICAgICAgICAgICAgICAgICAgICAgICAgICAgICAgICAgICAgICAgICAgICAgICAgICAgICAgICAgICAgICAgICAgICA8P3hwYWNrZXQgZW5kPSJ3Ij8+/+4ADkFkb2JlAGRAAAAAAf/bAIQAAQEBAQEBAQEBAQEBAQEBAQEBAQEBAQEBAQEBAQEBAQEBAQEBAQEBAQEBAQICAgICAgICAgICAwMDAwMDAwMDAwEBAQEBAQEBAQEBAgIBAgIDAwMDAwMDAwMDAwMDAwMDAwMDAwMDAwMDAwMDAwMDAwMDAwMDAwMDAwMDAwMDAwMD/8AAEQgCvAK8AwERAAIRAQMRAf/dAAQAWP/EAaIAAAAGAgMBAAAAAAAAAAAAAAcIBgUECQMKAgEACwEAAAYDAQEBAAAAAAAAAAAABgUEAwcCCAEJAAoLEAACAQMEAQMDAgMDAwIGCXUBAgMEEQUSBiEHEyIACDEUQTIjFQlRQhZhJDMXUnGBGGKRJUOhsfAmNHIKGcHRNSfhUzaC8ZKiRFRzRUY3R2MoVVZXGrLC0uLyZIN0k4Rlo7PD0+MpOGbzdSo5OkhJSlhZWmdoaWp2d3h5eoWGh4iJipSVlpeYmZqkpaanqKmqtLW2t7i5usTFxsfIycrU1dbX2Nna5OXm5+jp6vT19vf4+foRAAIBAwIEBAMFBAQEBgYFbQECAxEEIRIFMQYAIhNBUQcyYRRxCEKBI5EVUqFiFjMJsSTB0UNy8BfhgjQlklMYY0TxorImNRlUNkVkJwpzg5NGdMLS4vJVZXVWN4SFo7PD0+PzKRqUpLTE1OT0laW1xdXl9ShHV2Y4doaWprbG1ub2Z3eHl6e3x9fn90hYaHiImKi4yNjo+DlJWWl5iZmpucnZ6fkqOkpaanqKmqq6ytrq+v/aAAwDAQACEQMRAD8A3+Pfuvde9+691737r3Xvfuvde9+691737r3Xvfuvde9+691737r3Xvfuvde9+691737r3Xvfuvde9+691737r3Xvfuvde9+691737r3Xvfuvde9+691737r3Xvfuvde9+691737r3Xvfuvde9+691737r3Xvfuvde9+691737r3Xvfuvde9+691737r3Xvfuvde9+691737r3Xvfuvde9+691737r3Xvfuvde9+691737r3Xvfuvde9+691737r3Xvfuvde9+691737r3Xvfuvde9+691737r3Xvfuvde9+691737r3Xvfuvde9+691737r3Xvfuvde9+691737r3Xvfuvde9+691737r3Xvfuvde9+691737r3Xvfuvde9+691737r3Xvfuvde9+691737r3Xvfuvde9+691737r3Xvfuvde9+691737r3Xvfuvde9+691737r3Xvfuvde9+691737r3Xvfuvde9+691737r3Xvfuvdf//Q3+Pfuvde9+691737r3Xvfuvde9+691737r3Xvfuvde9+691737r3Xvfuvde9+691737r3Xvfuvde9+691737r3Xvfuvde9+691737r3Xvfuvde9+691737r3Xvfuvde9+691737r3Xvfuvde9+691737r3Xvfuvde9+691737r3Xvfuvde9+691737r3Xvfuvde9+691737r3Xvfuvde9+691737r3Xvfuvde9+691737r3Xvfuvde9+691737r3Xvfuvde9+691737r3Xvfuvde9+691737r3Xvfuvde9+691737r3Xvfuvde9+691737r3Xvfuvde9+691737r3Xvfuvde9+691737r3Xvfuvde9+691737r3Xvfuvde9+691737r3Xvfuvde9+691737r3Xvfuvde9+691737r3Xvfuvde9+691737r3Xvfuvde9+691737r3Xvfuvde9+691737r3Xvfuvde9+691737r3Xvfuvdf//R3+Pfuvde9+691737r3Xvfuvde9+691737r3Xvfuvde9+691737r3Xvfuvde9+691737r3Xvfuvde9+691737r3Xvfuvde9+691737r3Xvfuvde9+691737r3Xvfuvde9+691737r3Xvfuvde9+691737r3Xvfuvde9+691737r3Xvfuvde9+691737r3Xvfuvde9+691737r3Xvfuvde9+691737r3Xvfuvde9+691737r3Xvfuvde9+691737r3Xvfuvde9+691737r3Xvfuvde9+691737r3Xvfuvde9+691737r3Xvfuvde9+691737r3Xvfuvde9+691737r3Xvfuvde9+691737r3Xvfuvde9+691737r3Xvfuvde9+691737r3Xvfuvde9+691737r3Xvfuvde9+691737r3Xvfuvde9+691737r3Xvfuvde9+691737r3Xvfuvde9+691737r3Xvfuvde9+691737r3Xvfuvdf//S3+Pfuvde9+691737r3Xvfuvde9+691737r3Xvfuvde9+691737r3Xvfuvde9+691737r3Xvfuvde9+691737r3Xvfuvde9+691737r3Xvfuvde9+691737r3Xvfuvde9+691737r3Xvfuvde9+691737r3Xvfuvde9+691737r3Xvfuvde9+691737r3Xvfuvde9+691737r3Xvfuvde9+691737r3Xvfuvde9+691737r3Xvfuvde9+691737r3Xvfuvde9+691737r3Xvfuvde9+691737r3Xvfuvde9+691737r3Xvfuvde9+691737r3Xvfuvde9+691737r3Xvfuvde9+691737r3Xvfuvde9+691737r3Xvfuvde9+691737r3Xvfuvde9+691737r3Xvfuvde9+691737r3Xvfuvde9+691737r3Xvfuvde9+691737r3Xvfuvde9+691737r3Xvfuvde9+691737r3Xvfuvdf//T3+Pfuvde9+691737r3Xvfuvde9+691737r3Xvfuvde9+691737r3Xvfuvde9+691737r3Xvfuvde9+691737r3Xvfuvde9+691737r3Xvfuvde9+691737r3Xvfuvde9+691737r3Xvfuvde9+691737r3Xvfuvde9+691737r3Xvfuvde9+691737r3Xvfuvde9+691737r3Xvfuvde9+691737r3Xvfuvde9+691737r3Xvfuvde9+691737r3Xvfuvde9+691737r3Xvfuvde9+691737r3Xvfuvde9+691737r3Xvfuvde9+691737r3Xvfuvde9+691737r3Xvfuvde9+691737r3Xvfuvde9+691737r3Xvfuvde9+691737r3Xvfuvde9+691737r3Xvfuvde9+691737r3Xvfuvde9+691737r3Xvfuvde9+691737r3Xvfuvde9+691737r3Xvfuvde9+691737r3Xvfuvdf//U3+Pfuvde9+691737r3Xvfuvde9+691737r3Xvfuvde9+691737r3Xvfuvde9+691737r3Xvfuvde9+691737r3Xvfuvde9+691737r3Xvfuvde9+691737r3Xvfuvde9+691737r3Xvfuvde9+691737r3Xvfuvde9+691737r3Xvfuvde9+691737r3Xvfuvde9+691737r3Xvfuvde9+691737r3Xvfuvde9+691737r3Xvfuvde9+691737r3Xvfuvde9+691737r3Xvfuvde9+691737r3Xvfuvde9+691737r3Xvfuvde9+691737r3Xvfuvde9+691737r3Xvfuvde9+691737r3Xvfuvde9+691737r3Xvfuvde9+691737r3Xvfuvde9+691737r3Xvfuvde9+691737r3Xvfuvde9+691737r3Xvfuvde9+691737r3Xvfuvde9+691737r3Xvfuvde9+691737r3Xvfuvdf//V3+Pfuvde9+691737r3Xvfuvde9+691737r3Xvfuvde9+691737r3Xvfuvde9+691737r3Xvfuvde9+691737r3Xvfuvde9+691737r3Xvfuvde9+691737r3Xvfuvde9+691737r3Xvfuvde9+691737r3Xvfuvde9+691737r3Xvfuvde9+691737r3Xvfuvde9+691737r3Xvfuvde9+691737r3Xvfuvde9+691737r3Xvfuvde9+691737r3Xvfuvde9+691737r3Xvfuvde9+691737r3Xvfuvde9+691737r3Xvfuvde9+691737r3Xvfuvde9+691737r3Xvfuvde9+691737r3Xvfuvde9+691737r3Xvfuvde9+691737r3Xvfuvde9+691737r3Xvfuvde9+691737r3Xvfuvde9+691737r3Xvfuvde9+691737r3Xvfuvde9+691737r3Xvfuvde9+691737r3Xvfuvdf//W3+Pfuvde9+691737r3Xvfuvde9+691737r3Xvfuvde9+691737r3Xvfuvde9+691737r3Xvfuvde9+691737r3Xvfuvde9+691737r3Xvfuvde9+691737r3Xvfuvde9+691737r3Xvfuvde9+691737r3Xvfuvde9+691737r3Xvfuvde9+691737r3Xvfuvde9+691737r3Xvfuvde9+691737r3Xvfuvde9+691737r3Xvfuvde9+691737r3Xvfuvde9+691737r3Xvfuvde9+691737r3Xvfuvde9+691737r3Xvfuvde9+691737r3Xvfuvde9+691737r3Xvfuvde9+691737r3Xvfuvde9+691737r3Xvfuvde9+691737r3Xvfuvde9+691737r3Xvfuvde9+691737r3Xvfuvde9+691737r3Xvfuvde9+691737r3Xvfuvde9+691737r3Xvfuvde9+691737r3Xvfuvdf//X3+Pfuvde9+691737r3Xvfuvde9+691737r3Xvfuvde9+691737r3Xvfuvde9+691737r3Xvfuvde9+691737r3Xvfuvde9+691737r3Xvfuvde9+691737r3Xvfuvde9+691737r3Xvfuvde9+691737r3Xvfuvde9+691737r3Xvfuvde9+691737r3Xvfuvde9+691737r3Xvfuvde9+691737r3Xvfuvde9+691737r3Xvfuvde9+691737r3Xvfuvde9+691737r3Xvfuvde9+691737r3Xvfuvde9+691737r3Xvfuvde9+691737r3Xvfuvde9+691737r3Xvfuvde9+691737r3Xvfuvde9+691737r3Xvfuvde9+691737r3Xvfuvde9+691737r3Xvfuvde9+691737r3Xvfuvde9+691737r3Xvfuvde9+691737r3Xvfuvde9+691737r3Xvfuvde9+691737r3Xvfuvdf//Q3+Pfuvde9+691737r3Xvfuvde9+691737r3Xvfuvde9+691737r3Xvfuvde9+691737r3Xvfuvde9+691737r3Xvfuvde9+691737r3Xvfuvde9+691737r3Xvfuvde9+691737r3Xvfuvde9+691737r3Xvfuvde9+691737r3Xvfuvde9+691737r3Xvfuvde9+691737r3Xvfuvde9+691737r3Xvfuvde9+691737r3Xvfuvde9+691737r3Xvfuvde9+691737r3Xvfuvde9+691737r3Xvfuvde9+691737r3Xvfuvde9+691737r3Xvfuvde9+691737r3Xvfuvde9+691737r3Xvfuvde9+691737r3Xvfuvde9+691737r3Xvfuvde9+691737r3Xvfuvde9+691737r3Xvfuvde9+691737r3Xvfuvde9+691737r3Xvfuvde9+691737r3Xvfuvde9+691737r3Xvfuvdf//R3+Pfuvde9+691737r3Xvfuvde9+691737r3Xvfuvde9+691737r3Xvfuvde9+691737r3Xvfuvde9+691737r3Xvfuvde9+691737r3Xvfuvde9+691737r3Xvfuvde9+691737r3Xvfuvde9+691737r3Xvfuvde9+691737r3Xvfuvde9+691737r3Xvfuvde9+691737r3XvfuvdEJ7Y/mify/Oje4qPoHtf5V9W7L7crKqCh/uhka/JVEmPramQRxUeezONxlbt3bVUGYa48hV0rxgguFBv7917o9tHWUeRo6XIY+qpq6grqaCsoa6jniqqOso6qJZ6aqpamBnhqKaohdXR0Yq6kEEg+/de6k+/de697917r3v3Xuve/de6JN8lv5jvwd+Hu6cBsj5J/JHr7qveG5o4ZsTtrLy5fKZpqepIFNVZDH7bxWaqMJR1V7xTVq08UqglWIBPv3Xuja7P3jtTsHa+C3tsbceF3dtDc+Op8vt7cu3cjS5bC5nGVS6oK3HZGikmpqmBxcXVjZgQbEED3XulJ7917r3v3Xuve/de697917oqPyi+cnxK+FmJwmZ+UXeuyenqTckzQ4GDcM2RrcvlvG4jlqKHb+38fmM9PQwykI9SKb7dHOlnB49+690LvTndfU3yD2Bhe0+k+wNs9l9fbhiMuJ3RtXIx5DHTlQplppgAlTQV9PrAlpqiOKoiJs6KePfuvdCj7917r3v3Xuve/de697917r3v3Xuve/de697917r3v3Xuve/de697917r3v3Xuve/de697917r3v3Xuve/de697917r3v3Xuve/de697917r3v3Xuve/de697917r3v3Xuve/de697917r3v3Xuve/de697917r3v3Xuve/de697917r3v3Xuve/de697917r3v3Xuve/de697917r/9Lf49+691737r3Xvfuvde9+691737r3Xvfuvde9+691737r3Xvfuvde9+691737r3Xvfuvde9+691737r3Xvfuvde9+691737r3Xvfuvde9+691737r3Xvfuvde9+691737r3Xvfuvde9+691737r3Xvfuvde9+691737r3Xvfuvde9+691737r3Xvfuvde9+691737r3XvfuvdAF8rM3v7bfxh+RG4eq4qmbsvB9I9pZbYSUSNLXf3ux+yc1V4B6CFI5mqMhFk4o2gjCnyShV/Pv3XuvhU7y3Duzdu7Nybn33lc1nN6Z7N5PK7rzG46iqqs9kdwVlXLNlarLz1pNXJkJaxnMvk9Qe4IFre/de6+hp/wke/nC5btPb1f/LO+RG8JsrvPYWDrN0/GDc+4siZ8nuDY9BJ5N0dUSVlWwnrq/Z61C5DERlpZmxhq47rFRxL7917ref9+691737r3XvfuvdeP+H1/F+P95sbe/de6+F788d+93dlfMf5J7t+ReR3Pke46zuLftNvMbuWpgzONrcfuPIUcOGNDVKjYyhxNJCkNNTIiRQwIoRQtvfuvdbS3/CTP+cHmOju7qH+XL31vKaXpTvDJznoTKbhyDPSdb9wSwmSn2bQ1FTL/ke3uzfD9rBTIGVc21MIwgnmY+6919Kz37r3Xvfuvde9+691737r3Xxxv+FF2/u9N7fzf/mRR941m4WfZfZeQ2l1Zis19zDQ4npvGxwjrh9vUMummpsVmduGCtMsKKKqad5nLu7Mfde6ML/wm8/m95/+XN8usB1T2fuyWL4ifIrPYnaHZWPy9ZUHCdb7pyVXDQbd7bx6mUw4xMPUTCPMFIpDUY1nOkyRxsPde6+thFLFPFHNDIksM0aSxSxOskcsUih45I5ELI6OpBBBIINx7917rJ7917r3v3Xuve/de697917r3v3Xuve/de697917r3v3Xuve/de697917r3v3Xuve/de697917r3v3Xuve/de697917r3v3Xuve/de697917r3v3Xuve/de697917r3v3Xuve/de697917r3v3Xuve/de697917r3v3Xuve/de697917r3v3Xuve/de697917r3v3Xuve/de6//T3+Pfuvde9+691737r3Xvfuvde9+691737r3Xvfuvde9+691737r3Xvfuvde9+691737r3Xvfuvde9+691737r3Xvfuvde9+691737r3Xvfuvde9+691737r3Xvfuvde9+691737r3Xvfuvde9+691737r3Xvfuvde9+691737r3Xvfuvde9+691737r3Xvfuvde9+691737r3XRAIIIBBFiDyCD9QR+QffuvdfLc/wCFXP8AKixPww+UWE+XHSe2BhegPlbkctPuPE4yDRhthd7USjIbjx8CRwxQY7Gdg4+Y5WhpwzsaumyJGmNY1Huvda0Pxg+QO+fip8hunPkb1tkKnHb06d3/ALe3xiJKWoaletTFVqNlcJPOquy0G4sNJUY+qAB1U1S6/n37r3X3Gfjj3btT5JdC9P8Afex6+iyO1u3OvNrb6xVRj6j7qkjXP4qmrKuhSoAAlfF17y00h/46Qt7917oaffuvde9+691737r3Xz5v+FhH8qfEbefbv8zzpbbAoo81mMVsD5S0GJpwtI2TyZNHsXteriijjipZa6vEeFyUxLvVVVVRNYESM3uvdaHG3dwZvaW4MFurbOVrcHuTbOYxm4Nv5vGzvS5HD5vC1sGSxOVx9TGRJT1uPr6aOaKRTdJEBHI9+6919sP+Ut80aP5+/wAv345fJY1FBJurdOyKLC9lUWNkklp8P2ZtaNMNvLGeSYCVmjyVP5QWAJWYG3Pv3XurHffuvde9+691737r3Wnr/wAK0v5VOI+SXxdqPnp1TtqId6/GHDfddkti6KL73fnRNMzyZuTJNF4WqK/rhZWycVRIZXXHRTwKvKafde6+Yj7917r683/CZv55ZD5w/wAsTrWDeeafN9tfGypXoLsOrqJZqivrqbatBTnYGcydXUu09bks3sdqOSpmNxJUrJySGt7r3Wwl7917r3v3Xuve/de697917r3v3Xuve/de697917r3v3Xuve/de697917r3v3Xuve/de697917r3v3Xuve/de697917r3v3Xuve/de697917r3v3Xuve/de697917r3v3Xuve/de697917r3v3Xuve/de697917r3v3Xuve/de697917r3v3Xuve/de697917r3v3Xuve/de6//9Tf49+691737r3Xvfuvde9+691737r3Xvfuvde9+691737r3Xvfuvde9+691737r3Xvfuvde9+691737r3Xvfuvde9+691737r3Xvfuvde9+691737r3Xvfuvde9+691737r3Xvfuvde9+691737r3Xvfuvde9+691737r3Xvfuvde9+691737r3Xvfuvde9+691737r3Xvfuvde9+691UT/PW+IeM+af8AK7+UvV0mPpqvdO1NkVfcnXVXPD55cRvTqunqdyx1lDGCrGsr9tw5LHAKbslcwH1t7917r4vxBUlWBBBIIIsQRwQQeQQffuvdfVq/4SMfI2v7p/lSYvrjO5FavM/G/tnePWePpQ2p6LY2Vhx28dra7ksokyOayiKDwFh444HuvdbRvv3Xuve/de697917ot3zC+OW1vl18W+/PjRvGkoarCdz9W7u2MsuRgFRT4nN5bE1C7X3IsRDf5ZtbcyUmSp2sSlRSowBI9+6918Mbf8As/Kde763lsPN09RS5fZe6c/tbJ09VC0FRFW4HKVWLqVlhbmN/LSk29+6919Cr/hE38jqvPdL/Lf4tZjLPUDYW8tqds7JxDOCtDht2UlXg94yohfUqzZujoGuFsS5vza/uvdb0Hv3Xuve/de697917ph3TtjA7121uDZ+6cTQ57bO6cLk9vbgwmTgWpx2Xw2Yo5sfk8bX073SejraOoeORDwyMR7917r4df8AMF+MdV8Nfmt8mfjJN97JRdPdwb22ht6vr4/HPmNqUGbqxtfNgWXVFl8E0E6Gwur/AE9+691s+/8ACLb5IVOy/md398aMhlKj+Dd2dRDd2AwxqGWkXdvW1eKyuySU59D1Mm2K6aJj+rSi/gH37r3X0tffuvde9+691737r3Xvfuvde9+691737r3Xvfuvde9+691737r3Xvfuvde9+691737r3Xvfuvde9+691737r3Xvfuvde9+691737r3Xvfuvde9+691737r3Xvfuvde9+691737r3Xvfuvde9+691737r3Xvfuvde9+691737r3Xvfuvde9+691737r3Xvfuvde9+691737r3X//1d/j37r3Xvfuvde9+691737r3Xvfuvde9+691737r3Xvfuvde9+691737r3Xvfuvde9+691737r3Xvfuvde9+691737r3Xvfuvde9+691737r3Xvfuvde9+691737r3Xvfuvde9+691737r3Xvfuvde9+691737r3Xvfuvde9+691737r3Xvfuvde9+691737r3Xvfuvde9+691737r3TVncNj9x4TMbey8AqsVnsVkMNk6ZrWqMflKSahrYDcEWlpp2X6H6+/de6+Eb8ndpQ7B+SXyC2NTQClpdnd29qbXpKcAKsNJgd853GUsagcBFp6VbW4t7917reP8A+EPW+5kh/mDdazyyyU9TN8ft542FnPhpJaKPtXD5Z44zwHrVr6PUR/xwHv3Xut/j37r3Xvfuvde9+691737r3Xxdf57vXNJ1d/N1+d+2MbQRYzDzd67h3Hh6OBQsMOO3RBRZ6NYkHCxrNXSAD+g9+691cT/wjF33Ltr+Zf2xtIFjB2P8X924d4yx0CbAbv2duyGfRcAyxx4aRAbEhZGH59+6919QH37r3Xvfuvde9+691737r3Xyh/8AhXR1pFsn+b5vPddJTx01J2n0/wBS7oKRIqLJkcXtqDa+SqrLb11MuHV3J5aQsx+vv3Xuizf8Jnuwqjrr+c18Ra2nkZDurL7u69m02s9PvjaGYwMsbA8MpFV/sCARyPfuvdfYR9+691737r3Xvfuvde9+691737r3Xvfuvde9+691737r3Xvfuvde9+691737r3Xvfuvde9+691737r3Xvfuvde9+691737r3Xvfuvde9+691737r3Xvfuvde9+691737r3Xvfuvde9+691737r3Xvfuvde9+691737r3Xvfuvde9+691737r3Xvfuvde9+691737r3Xvfuvdf//W3+Pfuvde9+691737r3Xvfuvde9+691737r3Xvfuvde9+691737r3Xvfuvde9+691737r3Xvfuvde9+691737r3Xvfuvde9+691737r3Xvfuvde9+691737r3Xvfuvde9+691737r3Xvfuvde9+691737r3Xvfuvde9+691737r3Xvfuvde9+691737r3Xvfuvde9+691737r3Xvfuvde9+6918L759ZSkzXzi+X2ToQi0tT8lO6fD4xaMiHsLcFOzJ/UO8RN/wA3v7917rb6/wCEQuPqpO3fnRlVMn2dLsDqagmAB8Rqa7PbqnpyzWsJPHQSaf6i/v3Xuvoj+/de697917r3v3Xuve/de6+Ot/wpIzNBmP5y/wAy/sGib+F7vweGrPEQdNfQ7XxAqFkt9JR5Bq9+690df/hH1jqmr/m10lZD5fDiuhu1qmr0AlDFUYyCgj8xAsE+4qksT/at7917r6qXv3Xuve/de697917r3v3Xuvl4/wDCy7MUFd/My67xdM0JrMH8ddpQ5EIQZVevy+WrqYTD6gmmlBX/AGn37r3VUn/CfvHVWS/nE/A1KUyhqTu/BZGbxAkmloIaqoqA9gbReJDqP0A9+6919mn37r3Xvfuvde9+691737r3Xvfuvde9+691737r3Xvfuvde9+691737r3Xvfuvde9+691737r3Xvfuvde9+691737r3Xvfuvde9+691737r3Xvfuvde9+691737r3Xvfuvde9+691737r3Xvfuvde9+691737r3Xvfuvde9+691737r3Xvfuvde9+691737r3Xvfuvde9+691//19/j37r3Xvfuvde9+691737r3Xvfuvde9+691737r3Xvfuvde9+691737r3Xvfuvde9+691737r3Xvfuvde9+691737r3Xvfuvde9+691737r3Xvfuvde9+691737r3Xvfuvde9+691737r3Xvfuvde9+691737r3Xvfuvde9+691737r3Xvfuvde9+691737r3Xvfuvde9+691737r3QQfIPs6h6V6I7n7fyNVT0dH1h1bv3fkk9VJHFCH2rtfJ5qCMtIVUyVFRRrGi/V3YKLkge/de6+Et2Hu6q7A3/vnflarJW723hubd1WrkF1qtyZqtzNQrEEgsJa0g8nn37r3X0Rv+ESHT9dt/42fNPvCqgJoezO2esdhYeoaLhX6s23u3J5iGGY/Us/ZNM0ij+iX/AB7917reC9+691737r3XvfuvdcJZY4Y5JppEihiR5ZZZXWOOOONSzySOxCoiKCSSQAB7917r4dv8zDvSm+TH8wD5f970X/ADsnvrsHO44AMFGNTNT43HCMN6hEKKhj0X/s29+691tCf8Imupa/L/AC6+WXdU9GJMHsvoHG7CpatkJ+33JvTfm3stHoktpRzg9sVS2vdlkP8AT37r3X0kffuvde9+691737r3XvfuvdfH0/4Ux98Y3vr+ch8rK/DVDTYzq/J7a6NRNbPFT5TqjAUe1tyRxEgL69y0tWzW4DsRfj37r3Q0f8JO+qansb+cT1JnnoWqcL1X152pvvKVITVHRVcW06zEbfZib6HkzWTi0n/aT+be/de6+tH7917r3v3Xuve/de697917r3v3Xuve/de697917r3v3Xuve/de697917r3v3Xuve/de697917r3v3Xuve/de697917r3v3Xuve/de697917r3v3Xuve/de697917r3v3Xuve/de697917r3v3Xuve/de697917r3v3Xuve/de697917r3v3Xuve/de697917r3v3Xuve/de6//0N/j37r3Xvfuvde9+691737r3Xvfuvde9+691737r3Xvfuvde9+691737r3Xvfuvde9+691737r3Xvfuvde9+691737r3Xvfuvde9+691737r3Xvfuvde9+691737r3Xvfuvde9+691737r3Xvfuvde9+691737r3Xvfuvde9+691737r3Xvfuvde9+691737r3Xvfuvde9+691737r3WqN/wrc+feN+M/8AL5Hxf2zl4Y+2PmNmk2q9DBUaMhiOodn1WPz++85qgl89E+Ry38KxkWtQlTT1dWFN429+6918sD37r3X2VP8AhPt8SKj4b/ypvjL19msT/Bt7b8wVX3Z2BRkgsNz9mvBk6ZpD9TKm1KbGRsDyrRkfQD37r3V0nv3Xuve/de697917qlD/AIUB/PfGfAH+Wf3pvaiykVH2p2/hK7obpqiWpNNkJ94dj42sxGUzeOkRlkiqdlbOfI5iOQcCeijX6uAfde6+N3PPNUzzVNRI81RUSyTzzSMWklmlcySySMeWd3Ykk/Un37r3X1Pv+EhPxIq+g/5aeR7v3DiqrF7p+WPYtXvmFKuNQanr7Z8NRtvYmQppASWpcms9dUKPoFkB+pIHuvdbWvv3Xuve/de697917omH8wr5ibM+BHw376+Ve9pKOSl6r2Llsnt3DVlQtMN2b6q4GoNj7OppW9IrN0bmqKajjvwDLckAE+/de6+IL2BvrdHZ++t49j72y1Vnt4b73Nm93bnzVa5kq8rntwZGoymUr6lySWmqqyqd2JJ5Pv3XuvoB/wDCKH4l1+F2P8p/mnnaCopo97ZDD9F7Cmqqe0Nfh9tzQbn3ZlcZOVN0GclgopSDfXTMtrDn3Xut8b37r3Xvfuvde9+691737r3Xvfuvde9+691737r3Xvfuvde9+691737r3Xvfuvde9+691737r3Xvfuvde9+691737r3Xvfuvde9+691737r3Xvfuvde9+691737r3Xvfuvde9+691737r3Xvfuvde9+691737r3Xvfuvde9+691737r3Xvfuvde9+691737r3Xvfuvde9+691//R3+Pfuvde9+691737r3Xvfuvde9+691737r3Xvfuvde9+691737r3Xvfuvde9+691737r3Xvfuvde9+691737r3Xvfuvde9+691737r3Xvfuvde9+691737r3Xvfuvde9+691737r3Xvfuvde9+691737r3Xvfuvde9+691737r3Xvfuvde9+691737r3Xvfuvde9+691737r3QNfIbvvrP4u9JdmfILuPcFPtjrTqjauQ3buvMVLxp4qKiCR09FSrK8aT5PL5CaGkpItQM1VPGg5Ye/de6+MP/NT/mKdk/zPvmN2F8mt+rUYnBVbLtPqbZD1LT02wOrMHW10m2tvRc+M187Vs1bXyLfyV1VKQSoS3uvdGH/kL/y5s3/Mh/mFdV9eV+InqOmOq66i7h73y7wBsdBsnaeTo5qHbMskyGlnrt7bhamoFpSwklo2qpVBWB7e6919kvH4+ixNBQ4vGUsFDjcbR02Px9DSxrDTUdFRwpT0lLTQoAkUFPBGqIoACqAB7917qX7917r3v3XumbcW4cFtHb+d3ZujL4/AbZ2xhsnuHcWey9XDQYrCYLC0U+Sy+XyddUvHT0ePxuPppJppZGVI40LMQAT7917r5AH8/wC/m2Zn+af8wK2v2jU1VD8ZejJs1snobBNNIFzNLLVQJuLsrK01kjGW3lVY+NoUIf7agiiRWu0l/de6rw/l7fCzsT+YL8velfir1vTVQr+yt20dNubPQQeWDZmwMaTlN97yrWZTAkW3dr0lVURI5H3FQscC3klRT7r3X22+meptldD9Tdc9L9cYak2/sTq/Zu39kbVw9DEIaWhw23sdBjqSOONeAzrBrc/2nYn8+/de6Ez37r3Xvfuvde9+6918t7/hUr/ORT5td+t8NOh9x09f8ZPjfuqui3DuHC1gqMd233BjvLjMrl4aymP22S2js9xLSY1keWCpmMlUhIMRHuvdau/SvT2//kF231z0h1Xganc/Y3am8cDsbZuBpCizZLP7iyEOOoIPJKyRQxCWcNJI7KkcalmIAJ9+6919tL+XZ8Mdmfy/fhp0R8T9lfZ1EHVuyqCi3PnaKBqaPd3YGSX+Kb+3m8LgPFJunddXVVmg8xrKE+i+/de6Ov7917r3v3Xuve/de697917r3v3Xuve/de697917r3v3Xuve/de697917r3v3Xuve/de697917r3v3Xuve/de697917r3v3Xuve/de697917r3v3Xuve/de697917r3v3Xuve/de697917r3v3Xuve/de697917r3v3Xuve/de697917r3v3Xuve/de697917r3v3Xuve/de6//S3+Pfuvde9+691737r3Xvfuvde9+691737r3Xvfuvde9+691737r3Xvfuvde9+691737r3Xvfuvde9+691737r3Xvfuvde9+691737r3Xvfuvde9+691737r3Xvfuvde9+691737r3Xvfuvde9+691737r3Xvfuvde9+691737r3Xvfuvde9+691737r3Xvfuvde9+691737r3Xzqf+Fi/wDM6yO7+ztlfy0Orc8I9ndbQYntL5ETYyru2Z7BzFPK2wtg5NUKyQx7P27I2WnhN46h8zSsfVTi3uvdaRWwti7s7P3vtLrnYeErdy7131uLD7T2rgMegkrcxn89XwY3F0FOGKor1NZUIupiqICWYhQSPde6+xl/I+/lR7L/AJU3w+wnXUtJi8n8gezVxe9vkTvulVJpsru40RTHbPx1aV1nauw6WqlpqSNSY3qZamoBPn9+691cz7917r3v3Xuve/de60uP+FgH8znK9DfH/Zv8v/qXPjHb++S1M25e5sjjKxEyuA6W2/kIHpNtN4Zkq8dL2NuWKJWe2mbGY+rgPpmPv3XuvmoIjyukcaNJJIypGiKWd3chVRVAJZmY2AHJPv3Xuvq7/wDCZv8Ak4U38vD40p8hu5tv0afLX5JbbxtfnVqYRLkOqusKqSLL4LrmmmdQKfJ5Vkp6/NeMsrVEcEQYiDn3Xutn/wB+691737r3Xvfuvda4P/Cm7+Zhkv5f/wAAszs7rLOjEd/fKaXK9R7CraOpiTMbR2rXY2Udhb6pI45466hrMdgJ3pcdWItoMlUxODqS3v3XuvkkSSSTSPLK7yyyu0kkkjM8kkjsWd3diWd3Y3JPJPv3Xuvo0f8ACS3+TZH1bsbGfzOvkDt+JuwOzMFPB8YdtZSjDTbR67zNK9PWdpsJ4x4sxvzH1DxY1l1CPFP5QQ09l917reN9+691737r3Xvfuvde9+691737r3Xvfuvde9+691737r3Xvfuvde9+691737r3Xvfuvde9+691737r3Xvfuvde9+691737r3Xvfuvde9+691737r3Xvfuvde9+691737r3Xvfuvde9+691737r3Xvfuvde9+691737r3Xvfuvde9+691737r3Xvfuvde9+691737r3Xvfuvde9+691/9Pf49+691737r3Xvfuvde9+691737r3Xvfuvde9+691737r3Xvfuvde9+691737r3Xvfuvde9+691737r3Xvfuvde9+691737r3Xvfuvde9+691737r3Xvfuvde9+691737r3Xvfuvde9+691737r3Xvfuvde9+691737r3Xvfuvde9+691737r3Xvfuvde9+691737r3SD7S39ieqes+w+z88yLhOutkbq3xli8iwqcftXB12cq08jelDJBQsoP9T7917r4ZHyy7/3N8qPkx3n8it31tXXZ3uHszde9pZK2Rpaimx+Vyk7YLFl29Riw2CSmo4wfpHAo/Hv3XutrD/hHT/L3xnePym7M+cPYmGir9ofFnGY7bvV1PkKV2pa7uTfsFeH3FQzH9mWfYe0cdUo8ZB0zZqnkFmjHv3Xuvph+/de697917r3v3Xuve/de6+LD/O1+X+Q+bn8zL5RdzNlKnJbUoN+ZDrXraOpCj+GdfddVE+3cJQRaQFaN6mnqanULhmqCQSLe/de6Oh/wmN/l8Yv51/zKdmZnf2JGV6c+LuL/wBPe+aGrpmfHbgze38lQ0HXO2JpXU08hm3zkKKvnp2v56HHzqQVLe/de6+uYiLGqoiqiIoREQBVRVACqqgAKqgWAHAHv3XuuXv3Xuve/de697917r5Nv/Crr5f1nyU/mob46yx2W++2H8UcBQdM4GiUACi3aqw5bstpdDMrzNuiUwX/AFCOmUGxuB7r3VZ38nz4MyfzE/5hXx5+MtdHMdj5/dQ3T2tUQSPTyQdV7Hgfc++ooKxUZKXIZPBY6WkpGawaqnjUXYgH3XuvtU7c27gtobfwm1dsYmgwO3NuYqgwmCwmKpoqLG4nEYymjo8fjqCkhVYqako6WFY40UAKqgD37r3T17917r3v3Xuve/de697917r3v3Xuve/de697917r3v3Xuve/de697917r3v3Xuve/de697917r3v3Xuve/de697917r3v3Xuve/de697917r3v3Xuve/de697917r3v3Xuve/de697917r3v3Xuve/de697917r3v3Xuve/de697917r3v3Xuve/de697917r3v3Xuve/de697917r//1N/j37r3Xvfuvde9+691737r3Xvfuvde9+691737r3Xvfuvde9+691737r3Xvfuvde9+691737r3Xvfuvde9+691737r3Xvfuvde9+691737r3Xvfuvde9+691737r3Xvfuvde9+691737r3Xvfuvde9+691737r3Xvfuvde9+691737r3Xvfuvde9+691737r3XvfuvdUp/8KIO3qnpn+Tx80M/jK+bG53cuw8V17gqqBxHItZvTdWExVcqtcH1YFqwWFyf9a/v3XuvjZ+/de6+u1/wlv8Aj/i+i/5Onx/zFJAYcv35nN996bjMsemo+/z2b/udjkd2AZof7u7HopIxeyrJxyT7917rYe9+691737r3XvfuvdFX+c3Z8vS3wv8Alh2zTVX2WQ69+Ovcm6sPU6ihTPYnr/P1OAVXFijy5pYEU/gsD7917r4X2VyVXmcpksxXyGWuy1fWZKslP1kq66okqqiQ/wCLzSk/7H37r3X0vP8AhFx8faDZfwW75+RUkUb5jvDu7+6MNQ6IZ4ML1HiDTrBA9tcdNVZPdsrOAbO8Iv8AoFvde63Lffuvde9+691737r3Uerqqehpamtq5kp6WkgmqameRgscMEEbSzSux4VI41JJ/oPfuvdfCK+U/beY77+SffHdWfeR8z2l2zvzfGReVzJIancO5MhkH1uSdTfvC/v3Xut0H/hEn8e4Mp2X8xvlDX0dPVDae1dn9M7fqJoI3kxmU3PXNuvMVNHKwLxT1OKxEcLFbHxOyk2cj37r3X0PPfuvde9+691737r3Xvfuvde9+691737r3Xvfuvde9+691737r3Xvfuvde9+691737r3Xvfuvde9+691737r3Xvfuvde9+691737r3Xvfuvde9+691737r3Xvfuvde9+691737r3Xvfuvde9+691737r3Xvfuvde9+691737r3Xvfuvde9+691737r3Xvfuvde9+691737r3Xvfuvde9+691//9Xf49+691737r3Xvfuvde9+691737r3Xvfuvde9+691737r3Xvfuvde9+691737r3Xvfuvde9+691737r3Xvfuvde9+691737r3Xvfuvde9+691737r3Xvfuvde9+691737r3Xvfuvde9+691737r3Xvfuvde9+691737r3Xvfuvde9+691737r3Xvfuvde9+691737r3Wr1/wr0y9Viv5Pe4IqZpFXMfIfprEVXjLANSzQ7vq3WW31j8tEnB4uB7917r5Rnv3Xuvty/wApDA0O2f5ZnwfwuNjijo6b469eTxpDYxiTI4lMlUEFeLtU1bk/4k+/de6sT9+691737r3XvfuvdVJ/z3stU4T+UL886+kMqzDpKpo7wkh/FlNzbcxdQLix0mnrGDf7Tf37r3Xxc/fuvdfXK/4Ss4CgwP8AJp6ENAkSfxreHaOfrfHb11+Q3O4qHkt/u0iBb+/de62Lvfuvde9+691737r3QG/J3JVGG+OHfmXpGkWqxfTnZWQpmiJEono9n5ioiMZXkOHjFrfn37r3XwicuxfK5N2/U+QrWa/9WqZSf95Pv3XuvpSf8In8NS0Xwd+VOXiKmqzfyTxoqiDd1XG9fYimp0YfVVCuzAf7UT+ffuvdbonv3Xuve/de697917r3v3Xuve/de697917r3v3Xuve/de697917r3v3Xuve/de697917r3v3Xuve/de697917r3v3Xuve/de697917r3v3Xuve/de697917r3v3Xuve/de697917r3v3Xuve/de697917r3v3Xuve/de697917r3v3Xuve/de697917r3v3Xuve/de697917r3v3Xuve/de6//W3+Pfuvde9+691737r3Xvfuvde9+691737r3Xvfuvde9+691737r3Xvfuvde9+691737r3Xvfuvde9+691737r3Xvfuvde9+691737r3Xvfuvde9+691737r3Xvfuvde9+691737r3Xvfuvde9+691737r3Xvfuvde9+691737r3Xvfuvde9+691737r3Xvfuvde9+691rif8Ksevqvff8mzuytpUd167371b2DVlULaKTH56bb7u9v0IJNyoL/1Pv3Xuvkhe/de6+0b/ACJeyou2f5RnwU3kksbzP0tR7drY0ZS1NXbOz+d2lUU8oBJR0OFBsbXVg30I9+691bX7917r3v3Xuve/de6rY/nE7CqOy/5W/wA79p0oZppPjZ2PuEBRqYpsnEPvWaw/P7O3m9+6918S737r3X1ev+Ei3YcG9P5QW08C1XBLk+ue7u2dqVdLGw81LRTVmJzmJeaO+pVqKfKMFJ/UY2t9PfuvdbP3v3Xuve/de697917pC9n7RO/+tt/7GEgiO8dmbm2uJWsFjOdw1ZjA7E8BVNTz7917r4L26KKfG7l3FjqmKSGooM7lqKeGVCkkU1LX1EEsciMAyOjoQQeQR7917r6Jv/CIzsHG1Xxz+afV0tfGc1h+5dj72pMcT+8MLmtmfwaoqlH/ABxTI4lVN/7Unv3Xut4737r3Xvfuvde9+691737r3Xvfuvde9+691737r3Xvfuvde9+691737r3Xvfuvde9+691737r3Xvfuvde9+691737r3Xvfuvde9+691737r3Xvfuvde9+691737r3Xvfuvde9+691737r3Xvfuvde9+691737r3Xvfuvde9+691737r3Xvfuvde9+691737r3Xvfuvde9+691737r3Xvfuvdf/19/j37r3Xvfuvde9+691737r3Xvfuvde9+691737r3Xvfuvde9+691737r3Xvfuvde9+691737r3Xvfuvde9+691737r3Xvfuvde9+691737r3Xvfuvde9+691737r3Xvfuvde9+691737r3Xvfuvde9+691737r3Xvfuvde9+691737r3Xvfuvde9+691737r3XvfuvdEN/mhfH1flP/L0+X/QvqNRv7o3ecWMVI2kklze3qIbswUMSr6vNPmcDAiEcqzA/j37r3XxAayjqsfV1VBXU81HW0NTPR1lJUxvDUUtVTStDUU88LhXimgmQqykAqwIPv3Xuvph/8IzPmBjuzfhX3H8R83lmm3r8dOzV3hgaSrmRXl6z7Xor0FLioCQ89Pgd17VyTVLKCIjkoQ1tYv7r3W5b7917r3v3Xuve/de6RHZmxcX2h1v2D1pnP+LL2Jsjdexcx6BJ/uL3bga/AZD9tvS/+SZB+Dwfp7917r4UHyF6pznRne3cHTu5MdNic31p2PvDZldj50MclOcFnK2hgujWKpLSxI6/7Sw9+691ut/8Io/l3jMD2J8pvhRuPImGp3/gsD3j1wlbWaKeTJbKlO2t5YHE0zm0mRyWK3HT5B0XnwYyV7WVj7917r6Hfv3Xuve/de697917r3v3Xuvikfzn/jhW/FX+Z78yOopcW+KwlL3NurdeyYXUIZ9hb3rpN0bQqwqqq/vYbJx3sApZTbj37r3Vtn/CRD5c474/fzMZ+l9y10NDtv5Y9eZLralqayrEFHTb529K27dmRRxMQkuQztbQSYyC3qMlWq/n37r3X1S/fuvde9+691737r3Xvfuvde9+691737r3Xvfuvde9+691737r3Xvfuvde9+691737r3Xvfuvde9+691737r3Xvfuvde9+691737r3Xvfuvde9+691737r3Xvfuvde9+691737r3Xvfuvde9+691737r3Xvfuvde9+691737r3Xvfuvde9+691737r3Xvfuvde9+691737r3Xvfuvde9+691//0N/j37r3Xvfuvde9+691737r3Xvfuvde9+691737r3Xvfuvde9+691737r3Xvfuvde9+691737r3Xvfuvde9+691737r3Xvfuvde9+691737r3Xvfuvde9+691737r3Xvfuvde9+691737r3Xvfuvde9+691737r3Xvfuvde9+691737r3Xvfuvde9+691737r3XvfuvdcXRJEaORVeN1ZHRwGV0YFWVlNwysDYg/Ue/de6+N3/woI+B+U+A/wDM07z2ZSYuak6w7hytT311BXE+SnqtqdiZTJVmXxyypGlPDUbf3nT5Kk+3XmGmSA2Cuvv3Xugv/ksfzGct/LF+evV3yBneqqer815usu88JTG7ZPqzd1Zj/wCLV0MZVw1ftXKUNHloNK+SQ0TQggTN7917r7NOwd97R7Q2TtPsbYOex+6Nlb42/it07V3Dip0qcdmMFm6OKvxtfSzRkq0dRTTqbfVTcEAgj37r3St9+691737r3XvfuvdfLG/4VyfA7IfG7+YLD8n9uYhousPmHiZd0VOQhEssNJ29tiKkoN80VdIIxT0cuaoZ6Oupoy2qa1QwB8bH37r3Wvf8HPlv2D8Fflh0h8rOspHO5un97UGenxgmNPFuba9SsuJ3ps+rmUEw0e7tpV9bjpJAC0S1OtfUo9+6919r74mfKHqf5m/Hnq75KdKbgp9w9fdpbYx+4MZPGSlXi6yeBP4rt7MUr2mx+awWQ8lNUwSAPHJGeLEE+690Yv37r3Xvfuvde9+69189X/haJ8Dq7Hbw6M/mFbLwavh9w4+n6O7qrqOnqZ6mDO41J63rfcOVlRWgpMbNiopsUHcqDULAg9UgB917rRr6w7J3n032PsTtnrnN1W2t/dbbtwG+Nm7gom01eG3NtjJ02YwuSpyePLR19Ijj8ce/de6+05/Kn/mK9Z/zOfhx1r8kNjVWPot1VOMpNvdxbFpp2ar697UxdJDFunb80M7fefwuatDVONqJABV0EscgJube691ZF7917r3v3Xuve/de697917r3v3Xuve/de697917r3v3Xuve/de697917r3v3Xuve/de697917r3v3Xuve/de697917r3v3Xuve/de697917r3v3Xuve/de697917r3v3Xuve/de697917r3v3Xuve/de697917r3v3Xuve/de697917r3v3Xuve/de697917r3v3Xuve/de697917r//0d/j37r3Xvfuvde9+691737r3Xvfuvde9+691737r3Xvfuvde9+691737r3Xvfuvde9+691737r3Xvfuvde9+691737r3Xvfuvde9+691737r3Xvfuvde9+691737r3Xvfuvde9+691737r3Xvfuvde9+691737r3Xvfuvde9+691737r3Xvfuvde9+691737r3Xvfuvde9+691rw/8ACjj+Us38zb4bPnersLSVHyl+OJzW+uo5QqRVm89v1FCj746sac2DPuWDG01VQFtRXI0Mca6VqJL+6918jjNYXL7cy+TwGfxlfhc5hq6qxmXxGUpZqHI43I0Uz09XQ11HUpHPS1VNPGyOjqGVgQR7917r61H/AAlQoe8sf/J36hi7rTNRUM3YfZNT0pDnPKs0XSU1Vijt0UMc3rixEm6hm3phYAxvqHBufde62Pffuvde9+691737r3VWv84f+W3tD+aN8IuxvjrlP4fjOx6FV350RvKujVl2f21t6nqP4JUSyMD4cVuShqKnDZBhcpQ5CV19aIR7r3XxnO4+n+x+gO0d9dM9u7Uy+yOyOuNyZTam7tsZukmoshi8xiKqSkqY2inSNpIJGj1wyqCk0TK6kqwPv3Xuvoy/8IqKLu6m+GXyjqN6Rbli6RrO69rv0n/FvuVwMubj25mF7Ym2uk37XharbDCraIaWnXm7A+/de63SPfuvde9+691737r3RV/mx8RurvnX8Xu4Piv3DRCo2X2ztOuwbZCOCCor9sZ9F+72vvPDJUK8K5zaG4IKfIUbMLCenW/F/fuvdfFi+b/wy7n+AvyW7L+MHeuDmxe8+vM3NSU2USmqIcNvLbVQTPt3eu2ZqhQazAbkxbx1NO4LFQ5RvWrD37r3W3R/wiTpu6k75+YdXRRbhX4/S9W7Viz8tR9+Noydox7nhbADHgkY190Jtw1nlKgyijIDcaPfuvdfRd9+691737r3Xvfuvde9+691737r3Xvfuvde9+691737r3Xvfuvde9+691737r3Xvfuvde9+691737r3Xvfuvde9+691737r3Xvfuvde9+691737r3Xvfuvde9+691737r3Xvfuvde9+691737r3Xvfuvde9+691737r3Xvfuvde9+691737r3Xvfuvde9+691737r3Xvfuvde9+691//9Lf49+691737r3Xvfuvde9+691737r3Xvfuvde9+691737r3Xvfuvde9+691737r3Xvfuvde9+691737r3Xvfuvde9+691737r3Xvfuvde9+691737r3Xvfuvde9+691737r3Xvfuvde9+691737r3Xvfuvde9+691737r3Xvfuvde9+691737r3Xvfuvde9+691737r3Xvfuvde9+691Xf3X/KY/lu/Ins5O5e5fhp0JvnsqSvjyeW3VlNgYNMhumviZCtVvT7Slp4d5SlUVGOTWqLRgIbqAPfuvdH+w+HxO3sTi8BgMXj8JgsJj6PE4bDYmjp8di8Ti8dTx0mPxuNx9JHDS0NBQ0sKRQwxIsccahVAAA9+6905e/de697917r3v3Xuve/de6r7+VP8q3+X181944zsT5MfFrq7s3f+KgpKNN71+G/hm7Mhj8fxj8XndwYSXHZTP4qgBYQU1bLPDErMFUBiPfuvdHJ6z6w656Y2LtrrDqXY+1ut+u9nY2HEbW2VsrB47bm2cDjYL+OkxeHxVPS0NJEWYs2hAXdizXYkn3Xul37917r3v3Xuve/de697917olPy9/l0/Cr55Um3oPlh8euv+36zaaSQbZ3DnMa1Lu7A0M0xqanFYvd2KloNx0eGq6o+WWjSpFNJINTIW59+690Mnx5+NPQnxP62xnUXxy6o2T0/13iXeog2zsfBUOEoqmvmVRVZbKPSRJPl81W6AZ6yqeWpmYXdyffuvdDl7917r3v3Xuve/de697917r3v3Xuve/de697917r3v3Xuve/de697917r3v3Xuve/de697917r3v3Xuve/de697917r3v3Xuve/de697917r3v3Xuve/de697917r3v3Xuve/de697917r3v3Xuve/de697917r3v3Xuve/de697917r3v3Xuve/de697917r3v3Xuve/de697917r//T3+Pfuvde9+691737r3Xvfuvde9+691737r3Xvfuvde9+691737r3Xvfuvde9+691737r3Xvfuvde9+691737r3Xvfuvde9+691737r3Xvfuvde9+691737r3Xvfuvde9+691737r3Xvfuvde9+691737r3Xvfuvde9+691737r3Xvfuvde9+691737r3Xvfuvde9+691737r3Xvfuvde9+691737r3Xvfuvde9+691737r3Xvfuvde9+691737r3Xvfuvde9+691737r3Xvfuvde9+691737r3Xvfuvde9+691737r3Xvfuvde9+691737r3Xvfuvde9+691737r3Xvfuvde9+691737r3Xvfuvde9+691737r3Xvfuvde9+691737r3Xvfuvde9+691737r3Xvfuvde9+691737r3Xvfuvde9+691737r3Xvfuvde9+691737r3Xvfuvde9+691737r3Xvfuvde9+691737r3Xvfuvdf//U3+Pfuvde9+691737r3Xvfuvde9+691737r3Xvfuvde9+691737r3Xvfuvde9+691737r3Xvfuvde9+691737r3Xvfuvde9+691737r3Xvfuvde9+691737r3Xvfuvde9+691737r3Xvfuvde9+691737r3Xvfuvde9+691737r3Xvfuvde9+691737r3Xvfuvde9+691737r3Xvfuvde9+691737r3Xvfuvde9+691737r3Xvfuvde9+691737r3Xvfuvde9+691737r3Xvfuvde9+691737r3Xvfuvde9+691737r3Xvfuvde9+691737r3Xvfuvde9+691737r3Xvfuvde9+691737r3Xvfuvde9+691737r3Xvfuvde9+691737r3Xvfuvde9+691737r3Xvfuvde9+691737r3Xvfuvde9+691737r3Xvfuvde9+691737r3Xvfuvde9+691737r3Xvfuvde9+691737r3Xvfuvdf//V3+Pfuvde9+691737r3Xvfuvde9+691737r3Xvfuvde9+691737r3Xvfuvde9+691737r3Xvfuvde9+691737r3Xvfuvde9+691737r3Xvfuvde9+691737r3Xvfuvde9+691737r3Xvfuvde9+691737r3Xvfuvde9+691737r3Xvfuvde9+691737r3Xvfuvde9+691737r3Xvfuvde9+691737r3UHJZPG4ahqcnl8hQ4rG0cZmrMjkquChoaSEEAy1NXVSRU8EYJ/UzAe/de6pB+Wf/CjT+U18QshX7e3Z8j6LtLemKyFXicrsvojFv2XmcTkqMWemy1XRVNFgKEF+NRrDb8/UX917qh/tr/hbp0/jchksd0p8I99bnooJGXG7o392hiNvRVq29Mku18RtfJVdOp/oa/V/h+T7r3RL8h/wty+VDVlQcX8NPj/AA48yH7WPIbj7FqKxIv7IqJqfP0sMkg/JWNB/h7917oUNgf8LfN/08tMe0vgvs/LwCRDWLsDs/NbcleG48gpn3Fid0pFIR9C6uAfqPfuvdWp/HT/AIWMfy1+1Z8djO6Nl90fHLL5GaGnE2WxND2FtWhkkYq8mR3Htw4+ppaWP6+T7Bhb66ffuvdbHPxr+avxO+Ye3Duv4x/IDrHunCpPJTTybK3NR11fSVEMfllhrcLM1PmqKSJL6hLTpaxH1Bt7r3RoPfuvde9+691737r3Xvfuvde9+691737r3Xvfuvde9+691737r3Xvfuvde9+691737r3Xvfuvde9+691737r3Xvfuvde9+691737r3Xvfuvde9+691737r3Xvfuvde9+691737r3Xvfuvde9+691737r3Xvfuvde9+691737r3Xvfuvde9+691737r3Xvfuvde9+691737r3Xvfuvde9+691737r3Xvfuvde9+691737r3X//1t/j37r3Xvfuvde9+691737r3Xvfuvde9+691737r3Xvfuvde9+691737r3Xvfuvde9+691737r3Xvfuvde9+691737r3Xvfuvde9+691737r3Xvfuvde9+691737r3Xvfuvde9+691737r3Xvfuvde9+691737r3Xvfuvde9+691737r3Xvfuvde9+691737r3Xvfuvde9+691737r3XvfuvdUGfza/+FCPw5/lcUNfsKSsTvn5Qz4+WbE9HbIy1Mi7ckk0RUeR7O3QkdZSbSoHd2dKVUmyFQIJEEcV1k9+69182z+Yd/O7/mC/zJc7l07n7jy+0eqK2Sqjx3QnVVZkNmdV4/G1Vg2Ny2Noqs5XfKaR/nM9VZJlYnx+MHT7917qo337r3St2zsHfe9H8Wztlbt3ZIG0GPbO3Mxnn1/TRoxdHVNqv+Pr7917ox2K+APzezmPpspivib8gaygq11U1SnVe70WVRY3CzYqORf1D6ge/de6DfeXxh+SHXc89NvroTuLaclMpec53rfd2PhjUfVjUz4hafSPyQ9h7917oD5IpIZHhmjeKWJ2jlikRo5I5EJV0dGAZHVhYgi4Pv3Xul71l2x2h0ru6g390/2Lvfq3e+LuuP3b19unN7Q3FSxs8ckkEWYwFbQVwpp2hXyRFzHIFAZSOPfuvdbd3wb/AOFkPyw6I6zquvflt07g/lplcRjYqXZPZlJuKDq/fbTo6Ise/wBsdt/Mbc3RR01HGFjkpaDHV0jkvPPKeT7r3So35/wto+a9bW1I6z+Jnxd27jHLCl/vrJ2tu3JwobgGSbC9gbPo5ZlHIPhC3+qkce/de6Aio/4WY/zR5pY5I+t/idSojlmhh6/3+ySrqv43M/Z80gQDj0spt+ffuvdCFtb/AIWsfzE8bNCm6fjj8P8ActCGHnak2/2/g8m6/nx1MfbdbQIT/jSn37r3R7eo/wDhb5iitLSd6fBSraaWeFKvOdW9tR0lLRwEkTSx7c3TtjK1NYy3BC/xGPgW5vx7r3V0nxw/4VXfyie/Kykw25e193/HnNy0izVZ7u2fPg9sQVLBv8kp924SqztBUeoWDypTgXuwVeffuvdX3dSd8dLd97bot39K9qbC7S23kKZayly2x90YjcMBpmbQskyY6qmnpbtxaVEbkccj37r3Qse/de697917r3v3Xuve/de697917r3v3Xuve/de697917r3v3Xuve/de697917r3v3Xuve/de697917r3v3Xuve/de697917r3v3Xuve/de697917r3v3Xuve/de697917r3v3Xuve/de697917r3v3Xuve/de697917r3v3Xuve/de697917r3v3Xuve/de697917r/9ff49+691737r3Xvfuvde9+691737r3Xvfuvde9+691737r3Xvfuvde9+691737r3Xvfuvde9+691737r3Xvfuvde9+691737r3Xvfuvde9+691737r3Xvfuvde9+691737r3Xvfuvde9+691737r3Xvfuvde9+691737r3Xvfuvde9+691737r3Xvfuvde9+691737r3Xvfuvde9+691ph/wDCib/hSFRfEyPd3wf+C25KDLfJmqpZsN3D3PQGnyWJ6GpKyC0219pk+WiyfbNXBKDNNIstNgoTYpJWSKaT3Xuvmubh3Fn93Z3L7o3Vm8tuXcu4MjV5fO7gz2Rq8vmszla+Z6ityWUydfLPW19dVzuzySyuzuxJJJ9+691aV/LW/kwfOH+aJuaJOh+vXwHVFDkIqTdnfG/kqsJ1tgFEsf3VPQVnher3VnUpfI8NFQo4d4iks0F9Xv3Xut/j4G/8JMP5cnxfxmF3B8iaDOfMftqnhpanIZHf1XXbZ6uxmaga7z7X672vXY+SfHuODBna/NK31sOLe691si9XdC9HdIY8YnpjpvqzqbGiJYDQ9bbA2psimkiXTZZottYrGrNcqCS+oseTc+/de6Fj37r3UPIY+gy1FU43KUNHksdWxNBWUGQpoayiq4H/AFw1NLUJJBPE/wCVZSD7917qrv5V/wAlH+WB8x8ZPTdw/EHqilzjx1RpN69aYUdS7xo62q1E5OXMdcybb/jtZGzEr/FI66L8FCOPfuvdaWn8yz/hHf3r0zRbg7Q/l6b8yPyK2VRtPWt0fvpMXjO6MbQKmsxbc3FjocXtff8AUtPIEipTR4qdYkLF5n4PuvdaeWe6R7k2vuzJbE3D1T2Lh954itqMdktrV+zNwwZ2jraSZ6eoglxjY/7rVHMhFwpU2uCR7917oyvV/wDLL/mDdzxU8/WXw4+Qm6oau/20tN1ruKgjmFyNUb5ekx6shtw36SOQbe/de6MlD/IR/nG1EKzx/wAvX5DeNxqXybexcLkfUHxTZmOUXH09PPv3Xugz33/Jx/mk9Z08tXvf4KfIrBU8MTTSSvsOurwsSrrZ7Yt65mAXngE+/de6IxvHqHtjrxpU391j2FshoJGim/vbszce3RHIjaWVmy+Oo1BDC319+690Hfv3Xuhl6U+RXfXxu3RDvXoLuPsnp3dEU9LO+X663jndqTVpo5RNBBlosRW01LmqEP8AqpqtJ6eRSVdGUkH3Xuttj+Xp/wALF/lV09VYTY3zz2Lh/k118rU1HVdobVpMfsTurFJJNFDJkshBjIYNg7tpKCkBf7VMZjaudwS1Xc+/de63ufgl/NB+E/8AMd2Wm7viz3NhN15Gnp4ptw9cZsx7c7R2jLMk0opdxbMrJ3rY3SGEu01I9XSqpH7tzb37r3VgXv3Xuve/de697917r3v3Xuve/de697917r3v3Xuve/de697917r3v3Xuve/de697917r3v3Xuve/de697917r3v3Xuve/de697917r3v3Xuve/de697917r3v3Xuve/de697917r3v3Xuve/de697917r3v3Xuve/de697917r3v3Xuve/de697917r/0N/j37r3Xvfuvde9+691737r3Xvfuvde9+691737r3Xvfuvde9+691737r3Xvfuvde9+691737r3Xvfuvde9+691737r3Xvfuvde9+691737r3Xvfuvde9+691737r3Xvfuvde9+691737r3Xvfuvde9+691737r3Xvfuvde9+690A/dXyi+OXxxw1bn+9+8Or+p8ZjoFqqp977yweDq1gcApJFjKqsXKVSupuPFC5I5+nv3Xuqhu0f+FNX8mjrEukfyuouyJYw+uPq7Z+6NzAMhsUSoq8dh6Ocsfo0cjofw3v3XuizVH/Cvr+TvA6Kuf+RlRrdkL0/STskYUgeRzJumM6GvxYE/4e/de6F7Y3/CqL+TXvaqp6Wfvvd2yBOVBqt89Z7hxVLT6vzUSY7+MOgX82VvfuvdH/6g/nH/AMrnvjIR4rq35ydAbhyUrpGlFW7wXatQHe2hXTeFNgDETqH6re/de6NlmflV8YtvYao3Dm/kV0djMJS00tXNlKvtbY0dGtPChkkkSX+OkTWVeAmpmPABPv3XutTH+dN/wqk+PfVXVu8/j/8Ay6N7x9wd87uxlXt+u7zwEMqdb9T0NcklJkK/bWSrIYpt2b4hRZYoPFElHQyFJ/LMdKD3Xuvmw5fL5XcGWymezuRrcxm83ka3L5jL5OpmrcjlMrkqmWsyGRyFZUPJUVdbXVczyyyuzPJIxZiSSffuvdbVX/CfP/hO5uP+YnlsT8p/lXQZrZvwy29llbb+AjNRidy/ITK42oBqcbiKvSlRieuqaaMw1+SiKz1Z1Q0rIQ06e6919QXrXrPr3pzYu2eseqtmbc6+6+2biqfC7X2ftPFUmFwOExlKumKnoqCjjiiQs13kkIMk0rNJIzOzMfde6XHv3Xuve/de697917r3v3Xuve/de697917pJz7C2NVbkj3lU7M2nU7vijihi3XPt3DzbkjhgULBFHnJKNsokcKqAiiUBQOPfuvdKz37r3Xvfuvde9+690ht99YdadpYs4Ps7rzY3Y2EIcHD772lgN34siQASA4/cGPyFJZwOfRz7917qmT5Yf8ACcH+Ul8s4czXZj40Yzpne+YUgdgfH7KVfWmVxxJdr0O1Kb+IdYD1vf8AcwMlrWFhce/de61M/nb/AMI0Pkt1bBl96fBnuPB/Iba9JHW1y9Y9jwU+xu06WipKcyRUWJz9D59o71zFbKNKI1Pg0F7XJA1e691qG96/HbvT4x78yfWPyC6o3z1DvzEVE9LW7b3zgK7CVhkpSi1DUUtRGKPKU0TSqDNSyzQ3NtV/fuvdJ/qft/tLonfmA7Q6a7A3b1j2FtesirsFu/ZWcr8BnKCaKWOYxrWUE0LVFFUNEFnppfJT1Ed0lR0JU+6919BH+TH/AMK0Nvdm1G3Pjp/M9rMLsrfNSaHDbO+UeIoExWzt1VjqsEdL27gqRRQ7SzFVIpP8Xx6R4yWWRY3o6UAyt7r3W8rjsjj8xj6HLYmvo8pisnSU9fjcnjqqCtx+QoauJJ6StoaymeWmq6SqgkV45I2ZHRgQSD7917qZ7917r3v3Xuve/de697917r3v3Xuve/de697917r3v3Xuve/de697917r3v3Xuve/de697917r3v3Xuve/de697917r3v3Xuve/de697917r3v3Xuve/de697917r3v3Xuve/de697917r3v3Xuve/de697917r3v3Xuve/de697917r/0d/j37r3Xvfuvde9+691737r3Xvfuvde9+691737r3Xvfuvde9+691737r3Xvfuvde9+691737r3Xvfuvde9+691737r3Xvfuvde9+691737r3Xvfuvde9+691737r3Xvfuvde9+691737r3Xvfuvde9+691737r3Rbflb8u/jx8Jentxd6/JfszAdZdebdgkJrstUK2SzuS0XpNv7Xw0RbIZ/cGSmKxwU1OjHUwZykYZ1917r51X8z7/hXP8qvkTk8/1r8C6Gp+LPS/mq6BOxK6nxmb723pjSZqY1MlTVxV+2uv6DKUb6jSUUFXkKZz6MiSBb3XutSjsPtDsrtzcVRu7tXsHe3ZW6qu4qNyb93TnN3ZyZSxfQ+Vz9dX1pjDHhdekfge/de6Qvv3Xuve/de697917r3v3Xuve/de697917raG/kZ/wDCczvf+YL2Fs/vP5M7S3H1B8J9uZWly+Wnz9PWbd3x3oKKcyxbR2FjKuCLIUG18i8FslnZERVpWCUQkkmE9P7r3X1Rth7D2b1fsva/XXXm2sPs7Y2ysHj9t7U2tgKOKgw+CweKp0paDHUFJCAkUEEEYFzdmN2YliSfde6Vnv3Xuve/de697917r3v3Xuve/de697917r3v3Xuve/de697917r3v3Xuve/de697917r3v3Xuve/de6KV8vfgt8Ufnf1zV9X/KjpbZ/a23paeWLF1+XojSbs2vUSXdK/aW8MY9HuTbtVFUBZSKapSGZkAmSRLqfde6+cd/OL/wCEs/yA+D9Nufvr4eVe4vkn8Y8cKzLZvbj0CVPdfU+Ji8kzSZrH4mCOl7A2/RwRFpMlj6akqItSq9GVDTH3XutS90eN2jkVkdGZHR1KujqSrKysAVZSLEHkH37r3W2B/II/4Ua9hfAXcW1/jB8t9xbg7E+GeVqabDbezVdLNmN1/HuWolEVPW4KeZnrMp13AXAqcUzMaGEBqMokZgf3XuvqDdf9gbI7W2TtfsjrbdWD3vsPeuGotw7U3ZtvIQZTCZ7DZGITUlfj66mZ4popENiOGRwUcKykD3Xulh7917r3v3Xuve/de697917r3v3Xuve/de697917r3v3Xuve/de697917r3v3Xuve/de697917r3v3Xuve/de697917r3v3Xuve/de697917r3v3Xuve/de697917r3v3Xuve/de697917r3v3Xuve/de697917r3v3Xuve/de6//9Lf49+691737r3Xvfuvde9+691737r3Xvfuvde9+691737r3Xvfuvde9+691737r3Xvfuvde9+691737r3Xvfuvde9+691737r3Xvfuvde9+691737r3Xvfuvde9+691737r3Xvfuvde9+691737r3XvfuvdFV+aXzJ6P8AgV8dOwfk18gtxjAbA2DjHnFNTCObO7qz9Qrpgtn7WoJJIv4luPcNcFgpotSqCS7ssasw917r4+H81H+az8jv5rHyByfbXcWXqcH17hKqtoemulMVXzvs3q7ajTSCkp4IP2oczu7IU5D5XMSxiesqCwRYaZYaaL3XuiF9QdN9q9/dhbb6n6V6/wB09ndj7urocdt3Z2zsTU5jNZKpmkSIMtPTIy09JC0gM1RM0dPAnrkdFBI917rdc/l/f8Ixuxd643B79/mGd2v1bj8jSUddJ0j0kMdmd900FbTx1IptxdkZymrts4DM0JfxVFJS4nKxLICFqTa5917rZn6f/wCEzf8AJn6hoMfD/splF2bl8fFHGu5+199b63Ll6pkjEbTVdBjc9gNqyTTEamZcaliTpCjj37r3RtIP5Mn8q6moRjofgp8fBSBQgR9nLLLpH0/yqWqeqJ4+uu/v3Xugh3t/wnx/k2dgySz7i+B3VKVMquPutv5jsXaU0bMukPGNrb1w8QZLAgFStxyD7917qu7tr/hHz/KY7Dlqa3Z83yO6brH8jUtLsXs/BZHBQO36Vmx++Ni7ryE8CH8LWxv/ALX7917orWM/4RQfCSLJwS5f5R/JCtw6zlqmioIevsdXy0+okRQ5CfbGRghlC8azTuL86fx7917q2r4f/wDCbf8AlN/DjK4jdW3Og6rujfmCl8+L3v8AInOp2RX00xDh5Btemxm3euZ2bUNLTYSR49I0MvN/de6vYpKSloKWmoaGmp6KioqeGko6OkhjpqWkpaaNYaempqeFUhgp4IUCIiAKqgAAAe/de6ke/de697917r3v3Xuve/de697917r3v3Xuve/de697917r3v3Xuve/de697917r3v3Xuve/de697917r3v3Xuve/de66IDAqwDKwIZSAQQRYgg8EEe/de60m/+FA3/AAmZ2r3xhN3fMj+XhsbHbU75x6124u1Pj7tyngx21+4aRFkqq/PdeYyIQ0W2+x4/Uz0MYSgyy2VFp6gFp/de6+b5lsRlcBlMjg87jMhhc3h66qxmXw+WoqnG5TFZKhnemrcfkcfWRw1dDXUdTE0csUqLJG6lWAII9+691bt/LY/nl/Pr+V7q230Xv/F7x6cqqyeur+i+26HIbr65jq6xkNXkduxUeWw24NpZGQB3tj66GjeeRpZqeZySfde63Fvht/wtB+L3Y9fitqfMj4/72+P+RqpaOgbsXr3Nwdo7FeqqJI45clmsFU43a+5dq4inDMXMD5qVQoOk3On3Xutt/wCO/wAp/jp8tNh0PZnxt7k2F3JsnIQRVEeY2VnKfIyUizPKkUeZxL+DN4CqkaB7Q11NTzELfTbn37r3Q++/de697917r3v3Xuve/de697917r3v3Xuve/de697917r3v3Xuve/de697917r3v3Xuve/de697917r3v3Xuve/de697917r3v3Xuve/de697917r3v3Xuve/de697917r3v3Xuve/de697917r3v3Xuve/de6/9Pf49+691737r3Xvfuvde9+691737r3Xvfuvde9+691737r3Xvfuvde9+691737r3Xvfuvde9+691737r3Xvfuvde9+691737r3Xvfuvde9+691737r3Xvfuvde9+691737r3Xvfuvde9+691737r3WKeeGlgmqaiWOCnp4pJ55pWCRQwxIZJZZHYhUjjRSSTwAPfuvdfJl/wCFKn836v8A5jHyzyXTnUe6aip+I/xrzmX2psOLHVVsL2dvqimOO3Z2tOsTMmRoausp3pMI7HQMXGkwRJKiW/uvdUEdAdCdrfKDuTr7oTpHaOR3x2f2duTH7X2pt3GoC9TX5CZYjU1lQ5Wnx+Lx8RaeqqpmSGngjZ3YKp9+6919eT+TJ/JV6C/lOdK42Cgx2G3/APKTeWHopu5u8qugimyE2RmgSSq2TsCapgWrwHX2GqHaONV8dRknU1FTy0cMHuvdXZe/de697917r3v3Xuve/de697917r3v3Xuve/de697917r3v3Xuve/de697917r3v3Xuve/de68Tbk8Ackn8e/de6oK77/4Uwfykvjx3tW9Abt7zz+5tx4PNybc3bu7rnZlXvHrjZ+apat6LI0OZ3TSVsBrjipkPnkxdPkYRYhHdgVHuvdXadVdrdcd4dd7R7Z6j3lguwOt9+YSi3FtHeG26xa7D5zD5CJZqWspZgFkQsjWeORUlicFHVXBUe690IPv3Xuve/de697917r3v3Xuve/de697917r3v3Xuve/de697917r3v3Xutaj+cj/wAJs/jL/MwmzvdnVNdQfHD5dVZNbkN/4rDCu2L2nURU4X7fszalJNQP/G6wwRoucopI6mMs8lTDWs3HuvdfP1+X/wDIF/mo/C6TM1/Ynxj3Nv3YuIqRTDsvpJm7P2jkNTuqzU1Hh4I96UsGhQ5erxFMqqbk+ltPuvdU7ZLGZLDV9Xisxj67E5SgnemrsbkqSehr6KojNpKero6qOKopp0P1R1Vh+R7917oxvxV+ZPya+E3ZmL7b+MHcG8Opt5Y6pgnnk2/kX/gmfghEiHHbq21VefA7lxksM0iGGsp5QgclCj2Ye6919MT+SF/wpV6Y/mMJgfj38mIdvdE/MRaaGkxcSVf2fWPeNTHGzSVGwqnITPPtvdLhG8mCrJpvJYNS1MzSfbxe691tM+/de697917r3v3Xuve/de697917r3v3Xuve/de697917r3v3Xuve/de697917r3v3Xuve/de697917r3v3Xuve/de697917r3v3Xuve/de697917r3v3Xuve/de697917r3v3Xuve/de697917r3v3Xuv/U3+Pfuvde9+691737r3Xvfuvde9+691737r3Xvfuvde9+691737r3Xvfuvde9+691737r3Xvfuvde9+691737r3Xvfuvde9+691737r3Xvfuvde9+691737r3Xvfuvde9+691737r3Xvfuvde9+691q5/8Kmv5osnwe+FM3x86u3N/CvkT8tKDJ7RxUuOqWizOzOpbmi33vGNqeqpazHVGVp2kxWOqYyxSqeRtJ8Z9+6918pP37r3X0vf+ElH8pAfHno2T+Yb3jtU0vc3yDwn2/SOMzNMn3+xOkaq7Qbmp4pIfJRZftQEVSuJGvhftRaNpZVPuvdbnfv3Xuve/de697917r3v3Xuve/de697917r3v3Xuve/de697917r3v3Xuve/de697917r3v3Xuve/de60lv+FTn89Defxlo8j/Ll+Kebrdsdu7+2hTV/fnbWLqjT5XYnX+6qWRaXYeyaqmk8tDuveOOL/wAQr9SzY7HsY4VE9Qs9P7r3Xzcnd5HaSRmd3Znd3Ys7uxLMzMxJZmJuSeSffuvdfWe/4SgdX909Y/yjtgx9v47O4Oj3p2b2Dvrq7B7iimhrqbrjOz4/+FZOmhqHaamxGfrqeoqqWIqg8b+QLaS5917rZY9+691737r3Xvfuvde9+691737r3XCWWKCKSaaSOGGGN5ZZZXWOKKKNS8kkkjkKkaKCSSQAB7917rRw/mt/8K8ovj33tuDoX+X7171t3PSddZWfC757x37XZjLbGzm4qGV6bL4HYGD23W4abL4zE1MbRNmWyPgqJlYQwvEFmk917q4b+Q//AD0Ns/zfti9hbd3X1/R9TfIzpqnxOR3xtPDZOpzG1dx7WzUr0WN3pterraWlrKKGXJwyU9Tj5TPJSOEPmkWRT7917rYM9+691737r3Xvfuvde9+691Ux8+/5Jf8ALx/mK7eyUHdPR2B212NPRVMGF7r6rpMfsfs3B1c8i1BrJMjQUL4ncvknjQSplqOt1xDSrIbMvuvdfNY/m/8A8gL5Yfyqs9Wb1eGfvL4q5Gv8W3e99p4epg/u99zIy0mE7V25HLXS7My7MpSOpWapxlV6NM8c0gp1917qiXE5bKYHKY7N4PJV+GzOIrabJYrLYqsqMfk8ZkaKZKijr8fXUkkVVR1lJURq8csbK6OoKkEe/de6+ov/AMJnP56Unz763Pw/+Te44G+XXTu2oqrbW6MhKkM3fHWeLWnojnCeEl39tJpI4stGNJrKeWGrjDN9yIvde620ffuvde9+691737r3Xvfuvde9+691737r3Xvfuvde9+691737r3Xvfuvde9+691737r3Xvfuvde9+691737r3Xvfuvde9+691737r3Xvfuvde9+691737r3Xvfuvde9+691737r3Xvfuvde9+691//9Xf49+691737r3Xvfuvde9+691737r3Xvfuvde9+691737r3Xvfuvde9+691737r3Xvfuvde9+691737r3Xvfuvde9+691737r3Xvfuvde9+691737r3Xvfuvde9+691737r3Xvfuvde9+690HvbPaexekOst+9wdnbhoNp9e9abUze8947jykhioMPgMBQzZDI1tQ6q76Y4ISAqqzOxCqCSB7917r4sf8ANY/mC73/AJmPzY7c+T26JMhQ7YzWXk291FtCtlYrsbqXb8stHsvb4p1nnpoMlJjwKvJNCQk+TqZ5QBrsPde6ML/Ig/lp5D+Zt89uvusc7jK2bovraeh7N+QGVpy8MMWxcNXJJBtYVqxzfaZTfVfB9hSsUcAGRyLIffuvdfZIw+IxW38Ti8DgsdRYfCYTHUWIw2IxtNDRY7F4rG00VFj8dQUdOkcFJRUNJCkUUSKqRxqFAAA9+6904+/de697917r3v3Xuve/de697917r3v3XuqSP5p38+z4S/ypMzt/rztyo3l2Z3dufER7houo+qqDEZPNYHbtRUVFLQZ/e2TzWZwuL25jsrUUNQlLGr1NbKYSxp1iZJG917pefyvf52nwn/mt4nOUXRG487s7tnacAq90dIdoU2JwXYMGKNl/vLt+DG5fMYzdW2DKGR6ijqGnpmUfcwQB4jJ7r3Vvfv3Xuve/de697917r3v3Xuve/de697917r53f/Cnn+Rp8xO0vl/mfnD8U+rNwd6dfdpbcwMHY+2dmvBkt6bD3ft2jjxc2SkwM89NWZTbm4KfwmA0SzyU8yOsiBSr+/de6Bn+Q3/wmM7k7b7hw3yO/mQ9TZrq/oHrysoM9tDpTd7QUu7e79y00qVONh3HiKSpmqdu9bY2ePXXpVNDXZF4xSpCkMr1MfuvdfScxmMx2Fx1Bh8PQUeKxOLo6bH4zGY6mhoqDH0FHClPSUVFSU6R09LSUsEapHGiqiIoAAA9+691O9+691737r3Xvfuvde9+691737r3Wnp/wrv/AJjndXxR+NfVnxh6Mz2R2Nk/lO26afsvfOKE1Nm4escJBDSV+09u5iGaN8TVborarxV0yDzfYBo42QyFx7r3XzEvfuvdfSd/4SEfyue5PjR172f86e8sVWbMqfkjs3b+1Ontg5SknpM6OuKLKNn5d/5yCYxSY8bqqhEuPpnjZzRJ52KmUIvuvdbrfv3Xuve/de697917r3v3Xuve/de6SW/dhbL7S2XufrrsXa+F3psXemGrtvbq2puKggyeEzuFyULQVmPyFDUq8U0M0bccBkYBlIYAj3Xuvki/8KFP5NmS/lWfJynzvWVDlMh8R++qnMZ7pnL1LS10myMtRyxS7l6mzuRKAyVm3PvYp8bNKA1VjKiMapZoKhvfuvdUy/GP5G9ofEjvzqz5G9NZ6p272L1Nu7F7rwFbTyBI6r7KYDIYXII0c0dRic9jXmo6qNkYPBOwtexHuvdfZ8/lofzFui/5mvxe2X8hemc9RPk58djcX2t19JUwDcvVvYq0SNm9sZ7HrPLPFRyVUckuMq+Yq+i0yKRIs0UXuvdWC+/de697917r3v3Xuve/de697917r3v3Xuve/de697917r3v3Xuve/de697917r3v3Xuve/de697917r3v3Xuve/de697917r3v3Xuve/de697917r3v3Xuve/de697917r3v3Xuve/de6//1t/j37r3Xvfuvde9+691737r3Xvfuvde9+691737r3Xvfuvde9+691737r3Xvfuvde9+691737r3Xvfuvde9+691737r3Xvfuvde9+691737r3Xvfuvde9+691737r3Xvfuvde9+691737r3XzsP+FZP86PHdmZmq/lm/GbeKZDZW08pFVfKfeO38gGotw7xxNZFUY3qOiq6RmWsxW1qunWfLsJAkteopmRkhZm917rRix2Or8vkKHFYujqchkslV01Bj6CjhkqKutrayZKelpKWniVpZ6ionkVERQWZiAOffuvdfYM/4T3/AMrKl/ljfBjbGH3th6eD5Kd6R43s/vqveGE1+EymSoY5dudZrOBJJHTdfYadKSpRJZIJcqaqdDpkUD3Xur4Pfuvde9+691737r3Xvfuvde9+691737r3XvfuvdfJ4/4Vc/E7vbpz+ab2x8gt74HN1fTfyXp9l7h6n30Iayq21HJtrYW3toZ3YTZFg1Lj9wYiv21NXGiuhemrFmQP+6V917rXn6N707a+Nfaez+6+jt9Z/rjs7YeWp8ztjdm3Kx6OvoaundXMUgF4aygqlXRPTzK8M8ZKupB9+6919gr+RT/M0yn81D4I7c733pg6Hbvbmy925fqTt2gxSeHDZLeO2sVgsr/erA0rSSyUWI3Lis/TzLAzMYKlZowSqKx917q5X37r3Xvfuvde9+691737r3Xvfuvde9+691737r3Xvfuvde9+691737r3Xvfuvde9+691737r3VSv837+Ub0z/N1+P2K6n7C3NketuwNg5iq3N1H2xhsTBnarZ+crqaOjyVLlcBNX4kbi25mqOJY6il+7pmV1SVHDJZvde6oC/l2/8I7utPj53zge6PmJ3jhfkPt/YGZhzW0OnttbNqsJtLcWVx9RHU4nJ7/ymXylTVV2Oo5ogz4mGl8U7W11JUFG917rdhpqano6eCjo4IaWkpYYqalpaaJIKemp4EWKCCCCJVihhhiUKiKAqqAALe/de6ze/de697917r3v3Xuve/de697917r3v3XuiD/zLfgF1X/Mq+IvZXxe7Qp6elfcdGuY6+3iafz5Hr3sfDpLLtjduMIKuDTzyPT1UfKzUVRKhBJBHuvdfGc+YfxB71+C/wAgt/fG35D7MyOzewtiZSaAfcQSfwfde35Zphgt7bRyZUU+c2puSjjE1LUxE2OuGUR1EU0UfuvdPvwz+dXyl+AXa9J3J8V+1s71rutVp6XN0VK4rtrbxxENVFVPgd47ZqteMzuLnaMqdarPErv4ZYmYt7917rcS+MP/AAtp3vj4cJg/l98PsLuNkEK57sTozek2DrJSNCzy0HWW7sfWUQLC7KrbjQA+kkg3HuvdbYPwI/ne/wAuX+Ywcbg+hu9Mbh+06+lhqH6S7TgTYPZ8MtRIIoqGgx1fUz4DdeQZ7nw4TI5KQIrMyhQSPde6tr9+691737r3Xvfuvde9+691737r3Xvfuvde9+691737r3Xvfuvde9+691737r3Xvfuvde9+691737r3Xvfuvde9+691737r3Xvfuvde9+691737r3Xvfuvde9+691737r3X/9ff49+691737r3Xvfuvde9+691737r3Xvfuvde9+691737r3Xvfuvde9+691737r3Xvfuvde9+691737r3Xvfuvde9+691737r3Xvfuvde9+691737r3Xvfuvde9+691737r3UWurqLF0VZk8nWUuOx2OpaiuyGQrqiGkoqGipIXqKusrKuoeOCmpaaCNnkkdlREUkkAE+/de60X/593/Cofa2yMPvL4gfy1t8Um6N/VyZLa/aPyd2/IKjbezIHjlocpgeockD4twbmDl45M3EGoKXSGpHqS2tPde6+dzWVlXkKuqr6+qqa6vrqmesra2snlqausq6mVpqmqqqmZnmqKmomdnd3Ys7Ekkk+/de63ev+Eon8lOv7Y35if5lPyb2OE6p6+yIm+MW1NzUcmnsDfdC8qSdpSYyZFWXa2zKpR/CpJSVrMkhlWNoYkeT3Xuvo7e/de697917r3v3Xuve/de697917r3v3Xuve/de697917ot/yv8AiV0F82ekt3/H35IbAxXYPW+8qGSnqqKtjSPKYTIhG/h+5drZcRvVYDcuGqNM1LVw8o62cPGXRvde6+c/8lv+EcPz92n3tl9v/GbefUXaPROazsr7L3zvPdlZszcu2tv1U96em7FwIwWStkcUrlJJsS2QSpjQShI2cwJ7r3W9B/J1/ll7X/lSfDDbPxrxe6BvveuU3Fluyu3d7xU70mO3B2PuSgxGOySbepJ1FXSbZw2KwVHRUazHyyrA07rG8zRp7r3VqHv3Xuve/de697917r3v3Xuve/de697917r3v3Xuve/de697917r3v3Xuve/de697917r3v3Xuve/de697917r3v3Xuve/de697917r3v3Xuve/de697917r3v3Xuve/de6rT/mV/wAqL4j/AM0zqyPYHyM2e8O6sBS1o647g2qtLj+x+vMhUr5EbGZV4ZP4ngJaxEeqxdTqpqlAwUxO5lHuvdfOs+dn/CUj+ZZ8V87msr0btjGfMLqKnlqanGbp6xqqDC79osPErmOXdnWu5MjRVsGTcpYwYWqzi+pTr5Nvde612u0+i+6+jcqmC7p6h7N6lzEkk0UGN7J2LufZNZUtAbSmkh3JjMa9Wi3B1Ra1KkEGxB9+690H2GzWY27lKHObfy2TwWbxdQlZjMxhq+qxmUx1XEbxVVDkKKWCrpKiM/peN1Yfg+/de635f+E+n/CnLdGa3Tsf4RfzHN3wZWHNNj9p9J/JvMypTZCHKsyUmF2P3DUsBDXR5FnWmoc9dHjcRRVasGaqX3Xut/5HSREkjdZI5FV0dGDI6MAyujKSrKym4I4I9+691y9+691737r3Xvfuvde9+691737r3Xvfuvde9+691737r3Xvfuvde9+691737r3Xvfuvde9+691737r3Xvfuvde9+691737r3Xvfuvde9+691737r3Xvfuvdf//Q3+Pfuvde9+691737r3Xvfuvde9+691737r3Xvfuvde9+691737r3Xvfuvde9+691737r3Xvfuvde9+691737r3Xvfuvde9+691737r3Xvfuvde9+691737r3XvfuvdVU/wAyT+cp8HP5Xm1ais+QPZMWY7QqaI1W1+g+vTSbk7a3I7wJU0zS4YVVPj9pYypgkDx12bqcdSzJfwvK40H3Xuvm3/zWf+FGvzY/mWz5nr3DZKf43/GSedo6fp3rzOVpyu6aSKWB4J+y97Qx47Ibkkd6cSfZQR0tBF5GjZJwNZ917rXt9+691t7/AMhD/hNT2J80M1tf5UfN7au4es/ifjK2lzO0Ou8zT1OD3x8gGppEnpn+wnWLIbc6xmkT92snWKoykXppUNPIKn37r3X04NpbS2xsLa+39lbKwGJ2ttHauIoMBtvbeCoYMbh8JhcXTR0mPxmNoKVI6elpKSmiVERQAAPfuvdKH37r3Xvfuvde9+691737r3Xvfuvde9+691737r3Xvfuvde9+691737r3Xvfuvde9+691737r3Xvfuvde9+691737r3Xvfuvde9+691737r3Xvfuvde9+691737r3Xvfuvde9+691737r3Xvfuvde9+691737r3Xvfuvde9+691737r3Xvfuvde9+691737r3Xvfuvde9+690DPdnx26J+SGzsx1/3z1JsDtnZ+ex8+KyeE3xtnGZyGahqVKTwwVFVA1bQM6kjXTyxSC/DD37r3Xzuf5/f/CY9viRtjc/zL+AeP3BujoDEPU5ft7o2dp85urp/HTzCSXeGza4F63cvXNFNKy1lK6ffYWARyaqmmE81N7r3WltHJJFIksTvHLG6yRyRsUkjkQhkdHUhkdGFwRyD7917r6fX/CVr+crkvmZ0zXfCH5Ebr/ivyO+PW2Kau693LmKl2y/avSlBNTYmM1lTUO5yO6euqiqpaSpcsJqqgqYJAjGCok9+691t9+/de697917r3v3Xuve/de697917r3v3Xuve/de697917r3v3Xuve/de697917r3v3Xuve/de697917r3v3Xuve/de697917r3v3Xuve/de697917r3v3Xuv//R3+Pfuvde9+691737r3Xvfuvde9+691737r3Xvfuvde9+691737r3Xvfuvde9+691737r3Xvfuvde9+691737r3Xvfuvde9+691737r3Xvfuvde9+690iOyey+v8Ap3Yu5+zu1N5bc6+692Xip83ureO7ctR4Tb+CxlPpD1Vfkq6WGniDyOscaXLzSusaKzsqn3Xuvnyfzff+FdG9d81W5uhv5YByGwtmxVFXiM18p87j/tt6bmhjMsTT9SbdrF8u0cbLIsckGVyKDIyJqX7OC4k9+691pCb331vTsrdGY3t2FuvcG9t37grJshmty7oy1bm81k6yoleaWaryOQmnqZS0khIBbSoNgAOPfuvdGH+IHwc+VHzw7Noupvix03u3tTc889LHlazE0X221dp0tU7KmT3nvDItSba2rjtKMVkraqEzFCsQd7Kfde6+i/8AyiP+Ep/x2+G9RtPvT5pVm3vkx8jsVNQ5zD7OipJajozrTL07LU070mNzFJBV9hZ7G1cUU0VdXU9JTU8ysqU0g0yn3XutuGnp6ekp4KSkghpaWlhip6amp4khp6enhRY4YIIY1WOKGKNQqqoCqoAAt7917rN7917r3v3Xuve/de6ac5n8FtjF1Wc3LmsTt7C0Kq9dmM5kaPE4ujR3WNXqshXzU9JTq0jhQXcAkgfX37r3WXE5fE5/G0eYwWUx2axGQhFRQZXE1tNkcbXQElRNR11HLNS1MJZSNSMwuPr7917px9+691737r3Xvfuvde9+691737r3Xvfuvde9+691737r3Xvfuvde9+691737r3Xvfuvde9+691737r3Xvfuvde9+691737r3VK/88f8Am54b+UV8WsT2jjdl0vZHcXaW55Nh9Q7NyOQfG4I5iGgkyeY3Lueqpo565MJt7FoZRFFGWq6kxwa4w7SJ7r3Wo38J/wDhZh8psX3jiKL519a9Xbw6E3HkaXG5nLdObUyG0d79c0lTUMJNxUNHXbhzVFvOnoUZPLRyNSSmJXeORpNMZ917r6HHSXd3U/yO6t2b3V0fvvb/AGT1fv8Aw9PnNqbv2zWpW43JUNQtyjj01FDkaOUNDVUlQkVVSVCPFNGkiMo917oVPfuvde9+691737r3Xvfuvde9+691737r3Xvfuvde9+690mI967Nm3NNsuHdu2Jd409P93PtOPPYp9zQUnjWb7qbBLVnKR0/idW1tEF0kG9j7917pT+/de697917r3v3Xuve/de6g5TGY7N4zI4bMUNJlMRl6GrxmUxlfBHVUORx1fTyUldQ1tLMrw1NJV00rRyRuCroxBBB9+6918jn/AIUgfym4v5Z/zNbcXV2Iqaf4wfJT+Ob86n0RNJR7K3BS1lO2+usZKhWcJFgqzKQVWO8gj14+sWJA/wBtI3v3XuqfPhd8ruyPhB8oemflJ1RXTUm8Oo940OfSkScwQbgwMyyY3dW1a8gMrY/c+262qoZdStoWfWBqVSPde6+3F8Y/kDsT5V/Hzp/5GdaV8OS2R3FsPA73wc8DvIsC5WkU1+Lkd44WaqwuVjno5rqv70Dce/de6HX37r3Xvfuvde9+691737r3Xvfuvde9+691737r3Xvfuvde9+691737r3Xvfuvde9+691737r3Xvfuvde9+691737r3Xvfuvde9+691737r3Xvfuvdf/9Lf49+691737r3Xvfuvde9+691737r3Xvfuvde9+691737r3Xvfuvde9+691737r3Xvfuvde9+691737r3Xvfuvde9+691737r3Xvfuvde9+690HHb3bvW3QnWO+O5O4N4YfYXWfXG3clureW7c9Ufb43DYXFwNPUzvpV56qpl0iOnpoUkqaqodIYUeV0Q+6918k/8Ank/z0+5P5rHbeQ2ftGtz3XHw22Dn61er+rI6xqSr3k9JJNR03Y3Z0dFO1Nktw5KlJeloS81LiopTGhkk1yt7r3VB+IxGW3BlsZgcDi8jm85mshR4nDYbEUVTkstlsrkaiOkx+MxmOoopqyvyFdVzJFDDEjySyMFUEkD37r3W6r/KI/4SP9md64/bffH8yKt3D0n1lkY6bLYD49YKojou3924+YeSCXfWTTzRda42tp5VkSlHlzSspjngpT7917r6CHxr+Knx4+H/AFrieovjZ1Ls3qLYOIQiHC7TxMFE1bUO7S1GQzGQIfI5jJVU7tJJPUyySM7E3H09+690YL37r3Xvfuvde9+691737r3QMfIX5BdSfFjprf3fnee8cZsTq/rbAVm4dz7hycllipqSNmioqClQNU5PL5GbTDSUkCvPUTuqIpJ9+6918iv+cp/O1+Qf81TvvI5mDNbm6w+Muya+uxnSPSmNzNRRQ0eGErwneW/P4bULTZvsDdESLLVsWlp6CPRSU5ZIfNL7r3Vs3/CPn5o/I7F/PnMfESbe+5N19CdpdVb93vm9nZ3I1uZodq7s2JR4yoxG69vmvqpFwbVUMxoaxYgEqVkiuNaLf3Xuvpq+/de697917r3v3Xuve/de697917r3v3Xuve/de697917qm7+cv/OK6X/lH9AJvPcMGP7A7836tVj+kekkyq0NdumvptIr9y7jqIUqKvB7E2+ZF+6rBE7yzPHBCrOzFPde60wfjT/wsq+dmG7627kflDsLpffHx8y24qej3XtrYmz67Z+8NqbayGRiiqMxt7PjLZc5vIbdxsjSrS1MAFc8YXyQ6rj3XuvpWbO3Vh99bR2tvfbtR93gN47dwm6cHVWANRiNwY2my2NnIBYAy0dWjEXNr+/de6Ufv3Xuve/de697917r3v3Xuve/de697917rXW/4Ui/ymuxf5ovxA20nQ9RQSfID487lynYOw9p5Kohx9J2Zi6/DS43cWw4stVOlHis3VwLHUYyScx0z1cQimlhjlMqe6918lfemyt39cbt3HsLf+2c5sze2z8zX7e3TtTc2LrMLuDb+cxdQ9LkMVl8VkIYK2grqOojKvHIispH09+691tz/wDCPD5kd77L+elX8NKLPZfN/H7ufYHYO8c3tKtqKqrwuzN5bF29Nn8fvDB07M0GIrM0KMY6rK6UqRNGWBdVI917r6dXv3Xuve/de697917r3v3Xuve/de697917r3v3XutTP/hSD/Pzx/wA2VkfiJ8WN0Udb8yuwMErbn3Ji54KsfHjZ+ZpdVNl60qZI4ex9wUcokxVI4L0lKwrZVVZKXy+6918zPFfIPvXB9iUvbWJ7g7IoOzKPcEe6qffMG8s8u5E3BFXrk0yjZM1zVEtQa5fIwcsrnhgQSPfuvdfaL/lO/IXsn5Wfy4/iF8ge4KaSn7M7I6hxWQ3jNNCaebLZfE5DJ7bfcksJVFjk3VBhkyTBQEvV+j029+691Yb7917r3v3Xuve/de697917qoz+d9/L5wn8x7+Xl3P0xHiKWs7S2ji5u2ei8o1K9RkMZ2dsjH11VR4/H+FfO77xwU9dhTFcRs9ejsLxqR7r3XxicpjMhhMnkcNlqSagymIr6zGZKhqFKVFFkKCokpKyknQ8pNT1ETIw/DA+/de6+i5/wAIwPnXXb86b74+BO9MyazKdN1lP3P1FT1VTJUVq9f7prqfBb+xUQmlPgxG3d1z4uanijXSsmXmJIuAfde63jffuvde9+691737r3Xvfuvde9+691737r3Xvfuvde9+691737r3Xvfuvde9+691737r3Xvfuvde9+691737r3Xvfuvde9+691737r3Xvfuvde9+691//9Pf49+691737r3Xvfuvde9+691737r3Xvfuvde9+691737r3Xvfuvde9+691737r3Xvfuvde9+691737r3Xvfuvde9+691737r3Xvfuvde9+69183T/AIV1fzZs32r3JH/LW6Y3VJT9UdP1dFmfkTNiKgom9O14mSpxOx8jPDMjyYnrxP3aqkkQxyZV43uTTL7917rSx2ptXcm+tz7d2Vs3BZTc+7t3ZvF7a2xtvB0VRkszn9wZutgxuIw+Jx9KktTXZHJV9THDDFGrPJI4UAk+/de6+qD/ACCv+E8fWf8ALw2Ttf5H/JnbmC7A+bO6MPDkfHk4KHN7e+PtLlKT17W2fq+5oareMVNO0WSzEZYiRnhpm8S+ST3Xutpj37r3Xvfuvde9+691737r3Xvfuvde9+691qn/APCvzq7vDsL+V9QZvq2HO5TYvWnb+3t6d24HA01ZWPJs+ChrKLG7ly1PRRyMuA2llqnz1U0loaZJRK5CqWHuvdfLt6263353Bv7aPV3WG087vrsLfmex+2NobR2zjqrLZ3P5zKTrT0WPx1BRxy1E8sjtdiBpRAzsQqkj3XuvrUfyCf5Huzv5UfSjb37JTF7r+ZXb2DoJO190UrwV2L68xDhK2m6o2XWx+SOelxUzXytfExjyNcpEbNTwwu/uvdbDXv3Xuve/de697917r3v3Xuve/de697917r3v3Xukpvvc39ytj7y3l9jNlP7pbU3Fub+G05tUZH+A4isyv2MBCsRNV/aeNeD6mHHv3XuviDfzBfmb3j88flX2r8gu+9zV+e3Rndy5bG4PEzNJFidkbPxeSq6fbuy9u4wu0OLxOEoQqeNADJNrkcl3Yn3Xuhe/lT/yxO8f5p/yi2z0X1ZjarG7IxVVjc93d2pUU8v93esOvBWqmQyNXViKSKo3LmIopKbDY9dU1ZV+ohaeGpmh917r7SfXOx8T1l19sXrjAGRsHsDZ+2tl4dpreZ8ZtfDUeEoXmsSPM9NRKWtxqJ9+690s/fuvde9+691737r3Xvfuvde9+691737r3XvfuvdUJ/zWP+E83wr/AJp+4KXtLdM+f6K+QUFNT42t7k60x+LqKrdWJp/GsNLvna9caXG7prKOKJY6WskmiqaeIsmp1IC+690In8pb+Rl8TP5SGP3Tm+q63cnaPdO+sbHgt2d0b9goKbNy7dgrPvY9vbbwmPMuP2viZ6iOOSqWKSWSqkiQu+lQg917q6j37r3Xvfuvde9+691737r3Xvfuvde9+691737r3XxSP5z/AFL3h0//ADQPmlhO/sduGm3fuXvvsTf+BymfFXKm5euN57myWa64zODyFSDDkcFHs+opKOEwPJDSvSPSXD07ovuvdWB/8J9f5GG7v5ovcUHbPceJzu2PhT1XnKd967hENRjqjt3cFDKs56x2TkHRFliOkDM18JdaGF/Gt53Cr7r3X1kNnbP2v17tLbGw9kYLG7X2bszAYja21dt4emSjxOB29gaCDGYfEY6lj9EFFj6CmjijUfRVHv3XulJ7917r3v3Xuve/de697917r3v3Xuvjlf8ACin4h0nw4/mvfIzZ2BxNNhdj9p1uO762Dj6NSKamwHZRrKjIwoeUvHu/G5O4H6RYGx9+690zf8J7PlhN8Q/5snxW3jWZKWg2d2VuubonfsEbFFyWE7Ypn23gqad7hVgo+wJcNWsW9P8AkvNhyPde6+yd7917r3v3Xuve/de697917r3v3Xuve/de697917r3v3Xuve/de697917r3v3Xuve/de697917r3v3Xuve/de697917r3v3Xuve/de697917r3v3Xuv//U3+Pfuvde9+691737r3Xvfuvde9+691737r3Xvfuvde9+691737r3Xvfuvde9+691737r3Xvfuvde9+691737r3Xvfuvde9+691737r3Rd/lx31jfi58XfkJ8i8rHBUU3SnTfYvZUNBUuY4stktobUymaxGF1CxEmaylJDSp/tUw9+6918M3tTsjdfcXZW/O1t9Zeuz+8exN257eO5Mxkp2qK7IZfcGSqMlW1FRM5Zndpagj68AADge/de63Y/wDhHR/LL292Pvrf38x7tnb0eVx/UmVn67+PVHlKRZsed/1lCf73b/pTJrhnrNq4mpNBTBlvBU1hmQh4kI917r6K/v3Xuve/de697917r3v3Xuve/de697917r3v3XuoeQx+Py1DV4zK0NHk8bX08tJXY/IU0NbQ1tLOhjnpqukqUkp6mnmjYqyOrKwNiPfuvdFT6f8AgR8K/j/v7L9p9KfFzpDrDsbPef8Ai29Nm9fbfw24qs1Mvmnb+JU1GtRA00nLGMoSCR9CR7917o3Hv3Xuve/de697917r3v3Xuve/de697917r3v3Xuve/de64squrI6q6OpV0YBlZWFmVlNwysDYg/X37r3Wm18zP+Ec3xi+Q/yE3T3N0p8id3fHXa3YW4ance6urqbYuM3thcJlcrUy12erdl19Vn8NUUdJX1s7yR4+dTDTX0pLpso917rYv/l0/wAuH43fyx/j/i+gvjrt+WCkedMzvrfebWnqN6dk7tenjhq9x7nyMUaF+FKUlIh+3oae0UQsCze690fj37r3Xvfuvde9+691737r3Xvfuvde9+691737r3Xvfuvde9+691737r3Xvfuvde9+691737r3Xvfuvde9+691737r3XvfuvdFr+QXw4+KnyugwtP8k/j51P3bHtyo+5wR7F2ZhtyTYqa6tqo6muppKmFNSg6Q+i/NvfuvdDVsnYuzOtdr4fZPX21dv7K2ht+jhoMJtra+JosJhMXRwIsccFHjsfDBTQqEUXIW7Hkknn37r3Sq9+691737r3Xvfuvde9+691737r3XvfuvdaHX/C2L4mrkuvfib81MHjo459qbo3F0Bv6sp4A9RXUm8cbJvTYU9dKoMkVJhKjZ2YhRj6PJkQtwxXV7r3Xz49v57LbWz2E3PgK6bGZ3bmXxuewuSpmKVGPy2IrYchja6Bxyk1JWU6SIfwyj37r3X3Gf5evyPxfy6+Efxh+RuJdnh7T6g2jna0SyeSeLOU+PTE7hhqP7STx5zHVAZWsyng8+/de6OR7917r3v3Xuve/de697917r3v3Xuve/de697917r3v3Xuve/de697917r3v3Xuve/de697917r3v3Xuve/de697917r3v3Xuve/de697917r//V3+Pfuvde9+691737r3Xvfuvde9+691737r3Xvfuvde9+691737r3Xvfuvde9+691737r3Xvfuvde9+690ld8732l1pszdPYe/dwYzamydk4DK7p3XuXNVUdFicFgMJRTZDK5TIVUzLHBS0dHA7sSfoOOffuvdalvaP8Aws7/AJbext8Z/a2zem/k927t/D1stHQ7/wBqbe2Hg9v7hSFyhrMXj97b325uSOldl9JqKOEsLECx9+690H//AEGz/AT/ALxR+YH/AJzdL/8A20vfuvde/wCg2f4Cf94o/MD/AM5ul/8A7aXv3Xuq/P5pv/Crf4mfOP4F/Ib4q9SfH/5MbF393FtvDbdw26d6L1fBtfGwQ7swGVza5dsBvzN5d4K7AUFVTosNOxMsq6iF1e/de60RvfuvdbtH8ob/AIU8/EL+Wn8EeqPibn/i33zvDdWza7deb3ZujaGV67pMBnc/urOVGYrMhRR5fO02S9QmVD5Y1IEYtcfT3XurMv8AoNx+GP8A3hv8nv8Az/8AVP8A9kfv3Xuvf9BuPwx/7w3+T3/n/wCqf/sj9+6917/oNx+GP/eG/wAnv/P/ANU//ZH7917r3/Qbj8Mf+8N/k9/5/wDqn/7I/fuvde/6Dcfhj/3hv8nv/P8A9U//AGR+/de69/0G4/DH/vDf5Pf+f/qn/wCyP37r3Xv+g3H4Y/8AeG/ye/8AP/1T/wDZH7917r3/AEG4/DH/ALw3+T3/AJ/+qf8A7I/fuvde/wCg3H4Y/wDeG/ye/wDP/wBU/wD2R+/de69/0G4/DH/vDf5Pf+f/AKp/+yP37r3Xv+g3H4Y/94b/ACe/8/8A1T/9kfv3Xuvf9BuPwx/7w3+T3/n/AOqf/sj9+6917/oNx+GP/eG/ye/8/wD1T/8AZH7917r3/Qbj8Mf+8N/k9/5/+qf/ALI/fuvde/6Dcfhj/wB4b/J7/wA//VP/ANkfv3Xuvf8AQbj8Mf8AvDf5Pf8An/6p/wDsj9+6917/AKDcfhj/AN4b/J7/AM//AFT/APZH7917r3/Qbj8Mf+8N/k9/5/8Aqn/7I/fuvde/6Dcfhj/3hv8AJ7/z/wDVP/2R+/de69/0G4/DH/vDf5Pf+f8A6p/+yP37r3Xv+g3H4Y/94b/J7/z/APVP/wBkfv3Xuvf9BuPwx/7w3+T3/n/6p/8Asj9+6917/oNx+GP/AHhv8nv/AD/9U/8A2R+/de69/wBBuPwx/wC8N/k9/wCf/qn/AOyP37r3Xv8AoNx+GP8A3hv8nv8Az/8AVP8A9kfv3Xuvf9BuPwx/7w3+T3/n/wCqf/sj9+6917/oNx+GP/eG/wAnv/P/ANU//ZH7917r3/Qbj8Mf+8N/k9/5/wDqn/7I/fuvde/6Dcfhj/3hv8nv/P8A9U//AGR+/de69/0G4/DH/vDf5Pf+f/qn/wCyP37r3Xv+g3H4Y/8AeG/ye/8AP/1T/wDZH7917r3/AEG4/DH/ALw3+T3/AJ/+qf8A7I/fuvde/wCg3H4Y/wDeG/ye/wDP/wBU/wD2R+/de69/0G4/DH/vDf5Pf+f/AKp/+yP37r3Xv+g3H4Y/94b/ACe/8/8A1T/9kfv3Xuvf9BuPwx/7w3+T3/n/AOqf/sj9+6917/oNx+GP/eG/ye/8/wD1T/8AZH7917r3/Qbj8Mf+8N/k9/5/+qf/ALI/fuvde/6Dcfhj/wB4b/J7/wA//VP/ANkfv3Xuvf8AQbj8Mf8AvDf5Pf8An/6p/wDsj9+6917/AKDcfhj/AN4b/J7/AM//AFT/APZH7917r3/Qbj8Mf+8N/k9/5/8Aqn/7I/fuvde/6Dcfhj/3hv8AJ7/z/wDVP/2R+/de69/0G4/DH/vDf5Pf+f8A6p/+yP37r3Xv+g3H4Y/94b/J7/z/APVP/wBkfv3Xuq9/5pn/AAqI+D38x74Nd3/Eup+JvyH2znuwsVh6vYu8c1k+sa2i2fvfbO4MXn8HnJI6TcEtYkL/AGEtHUGFWkNJVyoAdR9+691o2+/de63Hv5GX/CmjqP8AlnfD2s+KvyR6f7t7Wg272Dm9zdY57rKbZdXHits7mhpp8ntnKxbx3btySlix2YpmmpBTiVCtVIG06V1e691c9/0Gz/AT/vFH5gf+c3S//wBtL37r3Xv+g2f4Cf8AeKPzA/8AObpf/wC2l7917r3/AEGz/AT/ALxR+YH/AJzdL/8A20vfuvdXb/yuP53fwt/mxU+58R0Jk917O7U2Vjlzu6Om+zcbR4je1Dt2SrioY9wY+bF1+V2/uHFLVzJHO9BV1BpXkQTBPIl/de6uF9+691737r3Xvfuvde9+691737r3Xvfuvde9+691737r3Xvfuvde9+691737r3Xvfuvde9+691737r3Xvfuvdf/W3+Pfuvde9+691737r3Xvfuvde9+691737r3Xvfuvde9+691737r3Xvfuvde9+691737r3Xvfuvde9+691Q5/wpoymYxH8kj5tVGFr6nHTT4fqLHVs9JI8M0mKyfffV1DkaPyxlXWCvppzDML2khdkPDH37r3Xx6vfuvde9+691737r3Xvfuvde9+691737r3Xvfuvde9+691737r3Xvfuvde9+691737r3Xvfuvde9+691737r3Xvfuvde9+691737r3Xvfuvde9+691737r3Xvfuvde9+691737r3Xvfuvde9+691737r3Xvfuvde9+691737r3Xvfuvde9+691737r3Xvfuvde9+691737r3Xvfuvde9+691737r3Xvfuvde9+691737r3Xvfuvde9+691737r3Xvfuvde9+691737r3Xvfuvde9+691737r3Xvfuvde9+691737r3Xvfuvde9+691737r3Wxn/wAJScjlqP8Anc/GKkx9dVUtFltnfImjzlNBK8cOTx0Hx+7JyVPS1kasFnhiy9FTTqrAgSwqw5A9+6919cX37r3Xvfuvde9+691737r3Xvfuvde9+691737r3Xvfuvde9+691737r3Xvfuvde9+691737r3Xvfuvde9+691//9ff49+691737r3Xvfuvde9+691737r3Xvfuvde9+691737r3Xvfuvde9+691737r3Xvfuvde9+691737r3VGf8AwpSxMmZ/ki/PCkiBaSDZ/VmUWwudOH7/AOpsrNYf4wUbA/4H37r3Xx0/fuvdfWO/4Tc9C/HPtv8AlCfGTc28uj+qN2bjpl3ng8nnc9sbbuXy1dPjNzVqB6yvrqGepnlWKRVuzcKoHv3Xur1f9k0+Jf8A3jX0h/6LPaP/ANavfuvde/2TT4l/9419If8Aos9o/wD1q9+6917/AGTT4l/9419If+iz2j/9avfuvde/2TT4l/8AeNfSH/os9o//AFq9+6917/ZNPiX/AN419If+iz2j/wDWr37r3Xv9k0+Jf/eNfSH/AKLPaP8A9avfuvde/wBk0+Jf/eNfSH/os9o//Wr37r3Xv9k0+Jf/AHjX0h/6LPaP/wBavfuvde/2TT4l/wDeNfSH/os9o/8A1q9+6917/ZNPiX/3jX0h/wCiz2j/APWr37r3Xv8AZNPiX/3jX0h/6LPaP/1q9+6917/ZNPiX/wB419If+iz2j/8AWr37r3Xv9k0+Jf8A3jX0h/6LPaP/ANavfuvde/2TT4l/9419If8Aos9o/wD1q9+6917/AGTT4l/9419If+iz2j/9avfuvde/2TT4l/8AeNfSH/os9o//AFq9+6917/ZNPiX/AN419If+iz2j/wDWr37r3Xv9k0+Jf/eNfSH/AKLPaP8A9avfuvde/wBk0+Jf/eNfSH/os9o//Wr37r3Xv9k0+Jf/AHjX0h/6LPaP/wBavfuvde/2TT4l/wDeNfSH/os9o/8A1q9+6917/ZNPiX/3jX0h/wCiz2j/APWr37r3Xv8AZNPiX/3jX0h/6LPaP/1q9+6917/ZNPiX/wB419If+iz2j/8AWr37r3Xv9k0+Jf8A3jX0h/6LPaP/ANavfuvde/2TT4l/9419If8Aos9o/wD1q9+6917/AGTT4l/9419If+iz2j/9avfuvde/2TT4l/8AeNfSH/os9o//AFq9+6917/ZNPiX/AN419If+iz2j/wDWr37r3Xv9k0+Jf/eNfSH/AKLPaP8A9avfuvde/wBk0+Jf/eNfSH/os9o//Wr37r3Xv9k0+Jf/AHjX0h/6LPaP/wBavfuvde/2TT4l/wDeNfSH/os9o/8A1q9+6917/ZNPiX/3jX0h/wCiz2j/APWr37r3Xv8AZNPiX/3jX0h/6LPaP/1q9+6917/ZNPiX/wB419If+iz2j/8AWr37r3Xv9k0+Jf8A3jX0h/6LPaP/ANavfuvde/2TT4l/9419If8Aos9o/wD1q9+6917/AGTT4l/9419If+iz2j/9avfuvde/2TT4l/8AeNfSH/os9o//AFq9+6917/ZNPiX/AN419If+iz2j/wDWr37r3Xv9k0+Jf/eNfSH/AKLPaP8A9avfuvde/wBk0+Jf/eNfSH/os9o//Wr37r3Xv9k0+Jf/AHjX0h/6LPaP/wBavfuvde/2TT4l/wDeNfSH/os9o/8A1q9+6917/ZNPiX/3jX0h/wCiz2j/APWr37r3Xv8AZNPiX/3jX0h/6LPaP/1q9+6917/ZNPiX/wB419If+iz2j/8AWr37r3Xv9k0+Jf8A3jX0h/6LPaP/ANavfuvde/2TT4l/9419If8Aos9o/wD1q9+6917/AGTT4l/9419If+iz2j/9avfuvde/2TT4l/8AeNfSH/os9o//AFq9+6917/ZNPiX/AN419If+iz2j/wDWr37r3Xv9k0+Jf/eNfSH/AKLPaP8A9avfuvdfJ2/4UlYvZ2A/m9/JnbOw9sbf2htzbB2ZgqbBbZxlJiMTTTUe2aFqmSKgoo4qeKWeWYs+lRdjf37r3Q6f8JNcLLkv51PQ2RQXj291x3/kJeL2FX05vDDJ/revJe/de6+tV7917r3v3Xuve/de697917r3v3Xuve/de697917r3v3Xuve/de697917r3v3Xuve/de697917r3v3Xuve/de6//Q3+Pfuvde9+691737r3Xvfuvde9+691737r3Xvfuvde9+691737r3Xvfuvde9+691737r3Xvfuvde9+691VX/ADwdnPvz+Ut88tuRoZGfoTP5vSF1HTtPI4ndbtb+iJhC3+FvfuvdfFb9+6919Xr/AISI7pk3H/J32lQzyrJLtHvzufbQUEao6ZavAZmlDLe6jxZiw/rY+/de62fvfuvde9+691737r3Xvfuvde9+691737r3Xvfuvde9+691737r3Xvfuvde9+691737r3Xvfuvde9+691737r3Xvfuvde9+691737r3Xvfuvde9+691737r3Xvfuvde9+691737r3Xvfuvde9+691737r3Xvfuvde9+691737r3Xvfuvde9+691737r3Xvfuvde9+691737r3Xvfuvde9+691737r3Xvfuvde9+691737r3Xvfuvde9+691737r3Xvfuvde9+691737r3Xvfuvde9+691737r3Xvfuvde9+691737r3Xxg/5+O6X3b/ADh/n9XmVZocd39uLblIyEMoptt0uPwwCsCQwMtG5v8A4+/de6tO/wCEcOzpNw/zUNx7jRCy7B+OXYmblYLcRrl63BbTVif7IMmeA/2Pv3XuvqXe/de697917r3v3Xuve/de697917r3v3Xuve/de697917r3v3Xuve/de697917r3v3Xuve/de697917r3v3Xuv/9Hf49+691737r3Xvfuvde9+691737r3Xvfuvde9+691737r3Xvfuvde9+691737r3Xvfuvde9+691737r3RWPnPtB+wPhT8vdjQxCap3d8Y++Nu0cZTXevy3V26KKgZU/Lx1kyMv+1Ae/de6+FtWUs1DV1VFUroqKOonpZ0/wBRNTytDKv/ACC6Ee/de6+lP/wik7PG4/hZ8perC51dZd77ezgjJ/TF2LtaskWQD8LJJtNxf8lD7917rdJ9+691737r3Xvfuvde9+691737r3Xvfuvde9+691737r3Xvfuvde9+691737r3Xvfuvde9+691737r3Xvfuvde9+691737r3Xvfuvde9+691737r3Xvfuvde9+691737r3Xvfuvde9+691737r3Xvfuvde9+691737r3Xvfuvde9+691737r3Xvfuvde9+691737r3Xvfuvde9+691737r3Xvfuvde9+691737r3Xvfuvde9+691737r3Xvfuvde9+691737r3Xvfuvde9+691737r3Xvfuvde9+691737r3XvfuvdfC4+eHZ/+mj5o/KbtMMXXfHe3ZecjcnUZIp905GOKTUSbiSOIMP8D7917rbL/wCER2wKyp+U/wAye0tJOPw3x/2/sAPpOkVm5Oxdu7iKlvpqMG1eB/QH37r3X0fPfuvde9+691737r3Xvfuvde9+691737r3Xvfuvde9+691737r3Xvfuvde9+691737r3Xvfuvde9+691737r3X/9Lf49+691737r3Xvfuvde9+691737r3Xvfuvde9+691737r3Xvfuvde9+691737r3Xvfuvde9+691737r3TdmMVR5zE5TCZGIT4/MY6txVfCfpNR5CmlpKqI/4SQTMP9j7917r4RPya2NkOs/kZ3t19laZ6Ou2d272Jt+anddLRrjd15WngOn8LJTojD/Aj37r3W5b/AMIi+4Vx3fPzT6DeYp/e3qXZvbcELNZJ5Ng7vptoSlFJs0sUfYoP9dJJ+gPv3Xuvote/de697917r3v3Xuve/de697917r3v3Xuve/de697917r3v3Xuve/de697917r3v3Xuve/de697917r3v3Xuve/de697917r3v3Xuve/de697917r3v3Xuve/de697917r3v3Xuve/de697917r3v3Xuve/de697917r3v3Xuve/de697917r3v3Xuve/de697917r3v3Xuve/de697917r3v3Xuve/de697917r3v3Xuve/de697917r3v3Xuve/de697917r3v3Xuve/de697917r3v3Xuve/de697917oBvlP2XH0v8Y/kX3BLN4E6r6L7a7F8urQUbZWws/uNCjXH7hfHALbksQBz7917r4TG4cq2cz+czb315jMZPKvq5bVkK2erbUf63m59+6919Gb/hEp1fVYX4x/Mftmto1WPfXcGw9r4OsKet6LZm2MzNlY0kI5Rq/Ox6gPzGPfuvdbvXv3Xuve/de697917r3v3Xuve/de697917r3v3Xuve/de697917r3v3Xuve/de697917r3v3Xuve/de697917r/9Pf49+691737r3Xvfuvde9+691737r3Xvfuvde9+691737r3Xvfuvde9+691737r3Xvfuvde9+691737r3XvfuvdfGs/wCFDHTNV0j/ADgPmhgnoFxuK3f2LH2btqBEKIcFvrE0OWikQEAaDkDUKCL3C/19+690Gf8AJy/mY1f8qb5f0nyZGwKns/CVOwd27A3JsqkzS4CoyuN3FDT1FJJFkZIaiKNsdm8dS1GlkYMIrfX37r3W2R/0G/bP/wC8Ety/+jWxf/1h9+6917/oN+2f/wB4Jbl/9Gti/wD6w+/de69/0G/bP/7wS3L/AOjWxf8A9Yffuvde/wCg37Z//eCW5f8A0a2L/wDrD7917r3/AEG/bP8A+8Ety/8Ao1sX/wDWH37r3Xv+g37Z/wD3gluX/wBGti//AKw+/de69/0G/bP/AO8Ety/+jWxf/wBYffuvde/6Dftn/wDeCW5f/RrYv/6w+/de69/0G/bP/wC8Ety/+jWxf/1h9+6917/oN+2f/wB4Jbl/9Gti/wD6w+/de69/0G/bP/7wS3L/AOjWxf8A9Yffuvde/wCg37Z//eCW5f8A0a2L/wDrD7917r3/AEG/bP8A+8Ety/8Ao1sX/wDWH37r3Xv+g37Z/wD3gluX/wBGti//AKw+/de69/0G/bP/AO8Ety/+jWxf/wBYffuvde/6Dftn/wDeCW5f/RrYv/6w+/de69/0G/bP/wC8Ety/+jWxf/1h9+6917/oN+2f/wB4Jbl/9Gti/wD6w+/de69/0G/bP/7wS3L/AOjWxf8A9Yffuvde/wCg37Z//eCW5f8A0a2L/wDrD7917r3/AEG/bP8A+8Ety/8Ao1sX/wDWH37r3Xv+g37Z/wD3gluX/wBGti//AKw+/de69/0G/bP/AO8Ety/+jWxf/wBYffuvde/6Dftn/wDeCW5f/RrYv/6w+/de69/0G/bP/wC8Ety/+jWxf/1h9+6917/oN+2f/wB4Jbl/9Gti/wD6w+/de69/0G/bP/7wS3L/AOjWxf8A9Yffuvde/wCg37Z//eCW5f8A0a2L/wDrD7917r3/AEG/bP8A+8Ety/8Ao1sX/wDWH37r3Xv+g37Z/wD3gluX/wBGti//AKw+/de69/0G/bP/AO8Ety/+jWxf/wBYffuvde/6Dftn/wDeCW5f/RrYv/6w+/de69/0G/bP/wC8Ety/+jWxf/1h9+6917/oN+2f/wB4Jbl/9Gti/wD6w+/de69/0G/bP/7wS3L/AOjWxf8A9Yffuvde/wCg37Z//eCW5f8A0a2L/wDrD7917r3/AEG/bP8A+8Ety/8Ao1sX/wDWH37r3Xv+g37Z/wD3gluX/wBGti//AKw+/de69/0G/bP/AO8Ety/+jWxf/wBYffuvde/6Dftn/wDeCW5f/RrYv/6w+/de69/0G/bP/wC8Ety/+jWxf/1h9+6917/oN+2f/wB4Jbl/9Gti/wD6w+/de69/0G/bP/7wS3L/AOjWxf8A9Yffuvde/wCg37Z//eCW5f8A0a2L/wDrD7917r3/AEG/bP8A+8Ety/8Ao1sX/wDWH37r3Xv+g37Z/wD3gluX/wBGti//AKw+/de69/0G/bP/AO8Ety/+jWxf/wBYffuvde/6Dftn/wDeCW5f/RrYv/6w+/de69/0G/bP/wC8Ety/+jWxf/1h9+6917/oN+2f/wB4Jbl/9Gti/wD6w+/de69/0G/bP/7wS3L/AOjWxf8A9Yffuvde/wCg37Z//eCW5f8A0a2L/wDrD7917r3/AEG/bP8A+8Ety/8Ao1sX/wDWH37r3RR/nl/wrvovl78P+/fjLtT4k5zrjNd17Cr9gpvSs7Fo8tT4PG5uemgzkj46mxVLLVGswn3FOF1gAzXN7e/de60lvfuvdfXH/wCErnS1d07/ACc+jK3KUyQ1/b26+w+30m8QjkqcRujNrR4Jme2qRExuITTfi5JH19+691sY+/de697917r3v3Xuve/de697917r3v3Xuve/de697917r3v3Xuve/de697917r3v3Xuve/de697917r3v3Xuv//U3+Pfuvde9+691737r3Xvfuvde9+691737r3Xvfuvde9+691737r3Xvfuvde9+691737r3Xvfuvde9+691737r3XzOP8AhaX0DLsr5zfHv5CxKxou8+jqradQUU+KLK9OZungbzMBpFRU47fEFrm7JDxwvv3XutM737r3SqTYu95EWSPZ26njdVdHTb2XZHRgGVlZaMqyspuCOCPfuvdcv7hb5/54vdn/AKDmY/8AqP37r3Xv7hb5/wCeL3Z/6DmY/wDqP37r3Xv7hb5/54vdn/oOZj/6j9+6917+4W+f+eL3Z/6DmY/+o/fuvde/uFvn/ni92f8AoOZj/wCo/fuvde/uFvn/AJ4vdn/oOZj/AOo/fuvde/uFvn/ni92f+g5mP/qP37r3Xv7hb5/54vdn/oOZj/6j9+6917+4W+f+eL3Z/wCg5mP/AKj9+6917+4W+f8Ani92f+g5mP8A6j9+6917+4W+f+eL3Z/6DmY/+o/fuvde/uFvn/ni92f+g5mP/qP37r3Xv7hb5/54vdn/AKDmY/8AqP37r3Xv7hb5/wCeL3Z/6DmY/wDqP37r3Xv7hb5/54vdn/oOZj/6j9+6917+4W+f+eL3Z/6DmY/+o/fuvde/uFvn/ni92f8AoOZj/wCo/fuvde/uFvn/AJ4vdn/oOZj/AOo/fuvde/uFvn/ni92f+g5mP/qP37r3Xv7hb5/54vdn/oOZj/6j9+6917+4W+f+eL3Z/wCg5mP/AKj9+6917+4W+f8Ani92f+g5mP8A6j9+6917+4W+f+eL3Z/6DmY/+o/fuvde/uFvn/ni92f+g5mP/qP37r3Xv7hb5/54vdn/AKDmY/8AqP37r3Xv7hb5/wCeL3Z/6DmY/wDqP37r3Xv7hb5/54vdn/oOZj/6j9+6917+4W+f+eL3Z/6DmY/+o/fuvde/uFvn/ni92f8AoOZj/wCo/fuvde/uFvn/AJ4vdn/oOZj/AOo/fuvde/uFvn/ni92f+g5mP/qP37r3Xv7hb5/54vdn/oOZj/6j9+6917+4W+f+eL3Z/wCg5mP/AKj9+6917+4W+f8Ani92f+g5mP8A6j9+6917+4W+f+eL3Z/6DmY/+o/fuvde/uFvn/ni92f+g5mP/qP37r3Xv7hb5/54vdn/AKDmY/8AqP37r3Xv7hb5/wCeL3Z/6DmY/wDqP37r3Xv7hb5/54vdn/oOZj/6j9+6917+4W+f+eL3Z/6DmY/+o/fuvde/uFvn/ni92f8AoOZj/wCo/fuvde/uFvn/AJ4vdn/oOZj/AOo/fuvde/uFvn/ni92f+g5mP/qP37r3Xv7hb5/54vdn/oOZj/6j9+6917+4W+f+eL3Z/wCg5mP/AKj9+6917+4W+f8Ani92f+g5mP8A6j9+6917+4W+f+eL3Z/6DmY/+o/fuvde/uFvn/ni92f+g5mP/qP37r3Xv7hb5/54vdn/AKDmY/8AqP37r3Xv7hb5/wCeL3Z/6DmY/wDqP37r3Xv7hb5/54vdn/oOZj/6j9+6917+4W+f+eL3Z/6DmY/+o/fuvdM2TwmZwjxRZnEZPESTqzwx5OgqqB5kUhWeJKqKJpFVjYkXAPv3XuotFRVeSrKTHUFNNWV9fUwUVFR00bTVFVV1UqQU1NBEgLyzTzOqooBLMQB7917r7nvwQ6KpPjL8MfjB0DQv5KfqjpLr7Z/k5OufHbeovu2Ja7Mxq5Hux5Y8/n37r3Rsvfuvde9+691737r3Xvfuvde9+691737r3Xvfuvde9+691737r3Xvfuvde9+691737r3Xvfuvde9+691737r3X//V3+Pfuvde9+691737r3Xvfuvde9+691737r3Xvfuvde9+691737r3Xvfuvde9+691737r3Xvfuvde9+691737r3Wox/wse+Ms3a/8t3ZXfmHx4lzHxl7r23m89kRGXen6/wCxKSu2BkqYkf5tJt55nBPq+nosfqPfuvdfLu9+6919or+Rd8pR8vv5WfxK7Vrc22e3bjOu6LrXsGtdi8i7465A21mIZGZmYt4aSCTk3AkA/wAffuvdW3e/de697917r3v3Xuve/de697917r3v3Xuve/de697917r3v3Xuve/de697917r3v3Xuve/de697917r3v3Xuve/de697917r3v3Xuve/de697917r3v3Xuve/de697917r3v3Xuve/de697917r3v3Xuve/de697917r3v3Xuve/de697917r3v3Xuve/de697917r3v3Xuve/de697917r3v3Xuve/de697917r3v3Xuve/de697917r3v3Xuve/de697917r3v3Xuve/de697917r3v3Xuve/de6+Tv/AMKyvlKfkD/Na3d1ziszUV+0vjBsbb/UVJjpHL0+L3lL5dxb9NMtyqGorq+mjcD+1T8839+691Wb/Jg+NVT8s/5ofwv6ajpTW46p7r2zv7c9KY9cNTs3qOWTtPd9JUmxEdPXbd2fUwM3FvJxyR7917r7W0MMdPDFBCixwwRpDFGosqRxqERFH4VVUAe/de6ye/de697917r3v3Xuve/de697917r3v3Xuve/de697917r3v3Xuve/de697917r3v3Xuve/de697917r3v3Xuv//W3+Pfuvde9+691737r3Xvfuvde9+691737r3Xvfuvde9+691737r3Xvfuvde9+691737r3Xvfuvde9+691737r3RN/wCYX8baT5ffCD5R/G2poUyNX2v0zvPA7cpZNPjO96TGSZvYM8gcFSlHvbF4+Yjj/N8EHke6918ObcGEr9tZ7N7cysRgym38vksJkoGBBhr8VWTUFZEQwBBjqIGHPPHv3XuvoZf8IpPlxBnerflB8J85lVOV2LnMZ3z1/iSWuds7jel2t2BUDUxW9NuBsPwoFxUc/T37r3W9f7917r3v3Xuve/de697917r3v3Xuve/de697917r3v3Xuve/de697917r3v3Xuve/de697917r3v3Xuve/de697917r3v3Xuve/de697917r3v3Xuve/de697917r3v3Xuve/de697917r3v3Xuve/de697917r3v3Xuve/de697917r3v3Xuve/de697917r3v3Xuve/de697917r3v3Xuve/de697917r3v3Xuve/de697917r3v3Xuve/de697917r3v3Xuve/de697917r3v3Xuve/de6Dvt3s3bPSvVHZncW9Kg0u0Oqdgbw7H3RUKVV4tv7J2/kNyZdoy5CmX7DGyaB+WsPfuvdfC9+TXdW4Pkd8hu6u+N1Vklfn+2uy9376yFVMWMsjbgzVXW04cuWcmKkkjTkk+n37r3W39/wit+Kj7y+TnyQ+XuYoIKjCdL9c0fV21KiVWE9Hv3s6siq6uupX+jiHZODyFNIB9BWi/1Hv3XuvpEe/de697917r3v3Xuve/de697917r3v3Xuve/de697917r3v3Xuve/de697917r3v3Xuve/de697917r3v3Xuve/de6//19/j37r3Xvfuvde9+691737r3Xvfuvde9+691737r3Xvfuvde9+691737r3Xvfuvde9+691737r3Xvfuvde9+691737r3Xxxv+FEnxBHw4/mt/JDaWKxdJitjdqZem7268o8dDNHQUm2+yWqa+pxsUknplmxu4qWtjksSV4vcm5917pj/wCE/XzJT4T/AM1L4ydg5rKPjev+wt0N0b2OGm8FBJt7tuFtn4yvy8xKiLGbZ3fkcblpnJ0otCWNwD7917r7KUciSxpLE6yRSoskciEMjo6hkdWFwyspuCPqPfuvdc/fuvde9+691737r3Xvfuvde9+691737r3Xvfuvde9+691737r3Xvfuvde9+691737r3Xvfuvde9+691737r3Xvfuvde9+691737r3Xvfuvde9+691737r3Xvfuvde9+691737r3Xvfuvde9+691737r3Xvfuvde9+691737r3Xvfuvde9+691737r3Xvfuvde9+691737r3Xvfuvde9+691737r3Xvfuvde9+691737r3Xvfuvde9+691737r3Xvfuvde9+691737r3Xvfuvde9+691rBf8KyPmbB8aP5Xu4+ocHl1ouw/ltvHAdS4mGkqliy9HsvF1Ue99/5mOAOrviqnFbcTDVL2IH8YVeCwI917r5Qnv3Xuvrzf8JjPiEfih/Kh6Wrszjo6PfXyGnyHfO6nlo2o8pFRbuESbRw+TWRVlMmI27SxlQwupnb+vv3XuthL37r3Xvfuvde9+691737r3Xvfuvde9+691737r3Xvfuvde9+691737r3Xvfuvde9+691737r3Xvfuvde9+691737r3X//0N/j37r3Xvfuvde9+691737r3Xvfuvde9+691737r3Xvfuvde9+691737r3Xvfuvde9+691737r3Xvfuvde9+691737r3Wkf/wALQfhRUb/+OHRXzg2piXqcv0Nu2XrLsuekpY18XXPZckYwueylSieWZMPvzH0FBCGJCfxdiCBf37r3Xze4ZpaeWKeCWSCeCRJoZoXaOWGWNg8csUiFXjkjdQVYEEEXHv3XuvtJfyRvmxD89/5bHxx7wrsjFkN+Y/alP1p2x4ohTiDsrr+npsJuFkg1vIlPkESGriLElknBuxuT7r3VsXv3Xuve/de697917r3v3Xuve/de697917r3v3Xuve/de697917r3v3Xuve/de697917r3v3Xuve/de697917r3v3Xuve/de697917r3v3Xuve/de697917r3v3Xuve/de697917r3v3Xuve/de697917r3v3Xuve/de697917r3v3Xuve/de697917r3v3Xuve/de697917r3v3Xuve/de697917r3v3Xuve/de697917r3v3Xuve/de697917r3v3Xuve/de697917r3v3Xuve/de6+UH/AMKwPm+PlR/MwzHT23Mm9b138PcDN1LjYx42pn7Cyk9Nl+za+lmhdo6mB6ymoaMN+pXoWF7WA917qln+XP8AErO/Of5u/G34tYOjqquHtbs7BY7db0bSRz47rrDyPuPsrMRzRi8MuI2Hh8jURklbyRqoIJHv3XuvuBbU2ziNl7X27tDAUsVDg9rYPFbexFHBFHDDTY3D0MGPooY4olSNFSnp1FlAHv3XulB7917r3v3Xuve/de697917r3v3Xuve/de697917r3v3Xuve/de697917r3v3Xuve/de697917r3v3Xuve/de697917r//R3+Pfuvde9+691737r3Xvfuvde9+691737r3Xvfuvde9+691737r3Xvfuvde9+691737r3Xvfuvde9+691737r3XvfuvdFt+Ynxs2j8wvi33x8Y98wUku3u6es9z7IaorYDVQ4bM5Cgkk2tuZKcMvmq9p7ogo8nTg8eekS4Pv3Xuvh092dSbx6E7e7L6W7BxNZg96dXb13FsjceLr4jBVUuT2/kqjHy+SNgCFnWESIfoyOCOD7917rb9/4RvfzAoepPk72R8D995xaXaPyUxU28uq0rZ38FL29sPF1WQrsPSvPOtLQxbn2PTVzaUUPUVtFAguzD37r3X0q/fuvde9+691737r3Xvfuvde9+691737r3Xvfuvde9+691737r3Xvfuvde9+691737r3Xvfuvde9+691737r3Xvfuvde9+691737r3Xvfuvde9+691737r3Xvfuvde9+691737r3Xvfuvde9+691737r3Xvfuvde9+691737r3Xvfuvde9+691737r3Xvfuvde9+691737r3Xvfuvde9+691737r3Xvfuvde9+691737r3Xvfuvde9+691737r3Xvfuvde9+691737r3XvfuvdEG/mffNXbf8vr4MfIP5SZ2rposrsPZNZR9e46fwSSZ3tDc7x7c6+xcFHMy/fxjc2Tp6iqjW7Chp53tZCR7r3XxJ967wz/YO8N0773VXz5Xc28dwZfc+fyNTLLNNW5fOV8+Rr6h5JnklbyVNQxF2JAsPfuvdb4H/CLf4ISVOY78/mF7zw0n2eNo36E6Uqa2kiemnydfLSZjs3cmKqSRNT12IoaWjxRIuskOSqF4Km/uvdfQR9+691737r3Xvfuvde9+691737r3Xvfuvde9+691737r3Xvfuvde9+691737r3Xvfuvde9+691737r3Xvfuvde9+691737r3X//S3+Pfuvde9+691737r3Xvfuvde9+691737r3Xvfuvde9+691737r3Xvfuvde9+691737r3Xvfuvde9+691737r3Xvfuvde9+6918zj/hYl/L3k6U+Vew/nNsTb5peu/k3Rf3X7HqqCiSHH4zura1C00VVXTLI8k2S31tanepLsFUvjpB9fr7r3Wo50r29vjoDt7rLu/rXKPht/dS762t2HtHIhpfHBn9o5qjzmNWrjhlhepx89TRLHUQFgk8DPG11Yj37r3X26/gX8v8Ar/53/ErpT5Sdb1UcmF7Q2djcnk8Z9zBU1u2N1wQJTbp2rljTWihyuCzMcsMqAC1gRwQffuvdG/8Afuvde9+691737r3Xvfuvde9+691737r3Xvfuvde9+691737r3Xvfuvde9+691737r3Xvfuvde9+691737r3Xvfuvde9+691737r3Xvfuvde9+691737r3Xvfuvde9+691737r3Xvfuvde9+691737r3Xvfuvde9+691737r3Xvfuvde9+691737r3Xvfuvde9+691737r3Xvfuvde9+691737r3Xvfuvde9+691737r3Xvfuvde9+691737r3Xvfuvde9+691737r3Xzcf8AhY3/ADHqTtrvHrj+Xt1tnVq9o/H+qHYvdTUFWktJXdu5vEzUG2Nt1AhCPHU7I2tk6t6mFy6GfKJwrw+/de60zes+ud4dwdjbE6o6+w8+4N9dlbv25sXZ+EpgfNldy7qy1JhMLQqbERioyFbGrOfSiksbAE+/de6+3R/Lp+Hu1Pgb8L+gvi3tSGDT1nsTFUe5spHSU1JUbj3vXwrkN37iyIpFSGbIZPN1EpeQD1Kq/gAe/de6Ox7917r3v3Xuve/de697917r3v3Xuve/de697917r3v3Xuve/de697917r3v3Xuve/de697917r3v3Xuve/de697917r3v3Xuv/T3+Pfuvde9+691737r3Xvfuvde9+691737r3Xvfuvde9+691737r3Xvfuvde9+691737r3Xvfuvde9+691737r3Xvfuvde9+691XV/NZ+CG2v5jvwV70+L2Xp6Bdz7n2zLnuqc5XCJBtrtvah/juwsmK145JMfRVWbo46HISRjW2Nq6hPo/v3Xuvik792NurrHe27eut84Wv27vHY+4svtXc+CydPLSV+JzmDrpsdkqGqp51SWKWCqp2Uggf19+691ul/8I8P5mtF1T3FvX+XT2xuYUWz+9KmXevQMuUq2FFjO28XSvJn9l0PmnipKFd+4CGSojGl5KjJUMMKDVNz7r3X0gPfuvde9+691737r3Xvfuvde9+691737r3Xvfuvde9+691737r3Xvfuvde9+691737r3Xvfuvde9+691737r3Xvfuvde9+691737r3Xvfuvde9+691737r3Xvfuvde9+691737r3Xvfuvde9+691737r3Xvfuvde9+691737r3Xvfuvde9+691737r3Xvfuvde9+691737r3Xvfuvde9+691737r3Xvfuvde9+691737r3Xvfuvde9+691737r3Xvfuvde9+690RD+ZX85dgfy6vhl3R8pt+VlEJ9l7cqaDr7AVbKZd6dpZ2GWg2HtSkpvPTTVgrs0yTVaxMJIsdT1Ew4jPv3Xuvic9t9o707u7P3/2/wBi5qt3Fvrsrduc3nurNZGpnrKuvzOfyE+QrJJKipklmdEebRGGY6Y1VRwB7917rcE/4R6/y2Je5/knu7+YF2Vt4TdcfG6Cr2t1A2RpWalz3de6cdPQVuXohPFJR19LsPZ1XVmX6SU+RyFFKh1Rkj3XuvpY+/de697917r3v3Xuve/de697917r3v3Xuve/de697917r3v3Xuve/de697917r3v3Xuve/de697917r3v3Xuve/de697917r3v3Xuv/U3+Pfuvde9+691737r3Xvfuvde9+691737r3Xvfuvde9+691737r3Xvfuvde9+691737r3Xvfuvde9+691737r3Xvfuvde9+691737r3XzV/+Ff8A/LDqumO/tvfzD+rdtmPrH5BV1PtbuoYujk+1233PT0cs2O3HkTGJvHF2Ji6KUzVEhiiGQpggu86g+691psbH3tuzrTem0uxNhZ7I7V3vsTcmE3ftDc2Jm8GU2/ubbmSpsvg8zj5irrHWY3JUkc0ZIZdSC4IuPfuvdfaF/k7/AMxjaH8zf4O9W/ILF1NDTdi0ePh2V3ftOmkQTbU7SwFPHTZ2MUpqaiqjw+dKivx0sukz00wIAKsB7r3VpXv3Xuve/de697917r3v3Xuve/de697917r3v3Xuve/de697917r3v3Xuve/de697917r3v3Xuve/de697917r3v3Xuve/de697917r3v3Xuve/de697917r3v3Xuve/de697917r3v3Xuve/de697917r3v3Xuve/de697917r3v3Xuve/de697917r3v3Xuve/de697917r3v3Xuve/de697917r3v3Xuve/de697917r3v3Xuve/de697917r3v3Xuvle/wDCq/8Amnr80fl7TfFbqfcxyPx4+JmRyGLqpsZVmTDb87uqYWot1bm1Q1U9JkaTZ1FI+Ix8oSNkeSu/Usin37r3WtH0N0j2N8k+5us+hOpMFNuTsjtneOF2RtDEQrMVnyuaq0p1qax4IZ5KbF42AvVVk+hlp6SGSVhpQ+/de6+2P/Lu+F2xP5fnw86V+K+wYKdqbrratJHujORQQQ1G7t95GKOr3fuvItTxQpUVuXyzOdekHwpGtgFA9+690df37r3Xvfuvde9+691737r3Xvfuvde9+691737r3Xvfuvde9+691737r3Xvfuvde9+691737r3Xvfuvde9+691737r3Xvfuvde9+691/9Xf49+691737r3Xvfuvde9+691737r3Xvfuvde9+691737r3Xvfuvde9+691737r3Xvfuvde9+691737r3Xvfuvde9+691737r3XvfuvdFj+ZfxR6v+cHxj7h+LfcOOSu2P27tCv29UVXgSet25m101u1944dZCqLm9n7jpaXI0hJ0memVWuhYH3Xuvii/ND4mdp/Bz5N9ufF/uLGNj96dV7ryGDeqjSf8Ah24sIJnk2/uvCTzwUzVmE3HiWiqqeUIAyPb6g+/de6tO/wCE9382au/ld/M7Dzb/AM1WJ8WO9ajGbE76xeuolpNuw1FR9vtvtWkpI2dFrth5CpE1WViklqMS1TAlndGX3Xuvr74fL4vcGJxmdweQo8thszQUmUxOUx1TDWUGRx1fBHVUVdRVdO8kFTS1VPKrxujFWVgQbe/de6cffuvde9+691737r3Xvfuvde9+691737r3Xvfuvde9+691737r3Xvfuvde9+691737r3Xvfuvde9+691737r3Xvfuvde9+691737r3Xvfuvde9+691737r3Xvfuvde9+691737r3Xvfuvde9+691737r3Xvfuvde9+691737r3Xvfuvde9+691737r3Xvfuvde9+691737r3Xvfuvde9+691737r3Xvfuvde9+691737r3Xvfuvde9+691raf8KUv5ulD/AC4viFWdVdWbjSm+WfyaxeW2p1vFQVKjJ9ebF0rSb47Tqlhbz0c9LS1IxuIJMTvkKs1ETN9lIh917r5LNTU1NbU1FZWVE9XWVc8tTVVVTLJPU1NTPI0s9RUTys8s080rlndiWZiSTf37r3X0Lf8AhIB/KcO19v5j+Z/3btlVzu6qDKbH+LOMy9N+9i9t1B+03t2zSRywgxVGfiD4bFzpIdVE1fdLSRP7917rfE9+691737r3Xvfuvde9+691737r3Xvfuvde9+691737r3Xvfuvde9+691737r3Xvfuvde9+691737r3Xvfuvde9+691737r3Xvfuvde9+691//W3+Pfuvde9+691737r3Xvfuvde9+691737r3Xvfuvde9+691737r3Xvfuvde9+691737r3Xvfuvde9+691737r3Xvfuvde9+691737r3Xvfuvdajf/Cqf+T9N8y/jt/s6PQ+02yPyS+NO362t3liMLQCfMdp9H4+Kavz2OSnpkWryW5NhRh8nQW80slHHU0scbPLGV917r5dhBUlWBBBIIIsQRwQQeQQffuvdfRX/AOEm386H/SRtfHfyyvkrvOJ9+bLxc83xX3Tnqho6ndezcZB9xXdRT180jR1Wc2tSJJUYgP43mx8bwAySxxhvde63oPfuvde9+691737r3Xvfuvde9+691737r3Xvfuvde9+691737r3Xvfuvde9+691737r3Xvfuvde9+691737r3Xvfuvde9+691737r3Xvfuvde9+691737r3Xvfuvde9+691737r3Xvfuvde9+691737r3Xvfuvde9+691737r3Xvfuvde9+691737r3Xvfuvde9+691737r3Xvfuvde9+691737r3Xvfuvde9+691737r3XvfuvdFe+Zvy56f+C/xs7R+T3eOepcJsXrTAT5E08lTHBkd0bgqAabbezdvwssktbn9zZZ46aCONJCgZpXAiikZfde6+L7/MH+c3b/APMU+VXZnyj7lr9ea3nlJaXa+3KZ5jh9hbBx1TUjamycHFPNO8dBhaGb9xtV56qSWY2Mlh7r3Rqv5J38rnev81D5pbO6lioshQ9HbCmx+/8A5Fb2hgmFLguu8fkIh/dukrFaGJdz7+rVGNoYxIJY43nq1V1pXQ+6919kvYGw9o9XbH2l1vsHA47a+ydi7exO1dq7exNLDR47D4LB0UOPxtBSU0CRxRxwU0CjgAsbk8kn37r3Su9+691737r3Xvfuvde9+691737r3Xvfuvde9+691737r3Xvfuvde9+691737r3Xvfuvde9+691737r3Xvfuvde9+691737r3Xvfuvde9+691//X3+Pfuvde9+691737r3Xvfuvde9+691737r3Xvfuvde9+691737r3Xvfuvde9+691737r3Xvfuvde9+691737r3Xvfuvde9+691737r3XvfuvdcXRJEaORVeN1ZHR1DI6MCrKysCrKymxB4I9+6918sD/AIU9/wAmOf4I/IGo+WPQGzq2n+JfyB3BPVZKixVKJ8P012xk9VZk9qzmmij/AIVtbddT5qrDeRPHC2ukMrOIg3uvdau2wd+7z6s3vtLsnrrcuW2dvzYm4cTuzZ+6sFVPRZjb+4sFWw5HE5bHVKcxVNFWQI63BU2swKkg+6919eb+Qt/OR2h/Nc+MtL/e6pw23/ln1DjMdh+9tj0Mi00GadFSjou0dp46WV6pdrbpkAaWG8v8NrXanaRx45H917q+T37r3Xvfuvde9+691737r3Xvfuvde9+691737r3Xvfuvde9+691737r3Xvfuvde9+691737r3Xvfuvde9+691737r3Xvfuvde9+691737r3Xvfuvde9+691737r3Xvfuvde9+691737r3Xvfuvde9+691737r3Xvfuvde9+691737r3Xvfuvde9+691737r3Xvfuvde9+691737r3Xvfuvde9+691737r3XvfuvdMW6Nz7e2VtvPbw3bmcdt3a218RkM/uLPZeqjosXhsLiaWWtyWSr6uZlip6SjpIXkdibBV9+6918lv/hQ9/Os3B/NE+Qr9adT5TJYr4adF57I0fWeIM0tO3aG64RJjsp25uSiRhCVqoxJBg6dxI1JQO8pbyVTxxe691Qr0x072N8gu1uv+k+o9r5LefZXZ26MXtDZ22sTTzVNXksxlp1hiBWGOVoKKki1z1U7Dx01NFJLIVRGI917r7KH8nL+WJ19/Kv+HOz+j8DHQZbtTcsVDvLvzf8ABSxQ1O8ux6qiVaimhlBkqP7t7UilaixkLyyBEEkos07j37r3Vrfv3Xuve/de697917r3v3Xuve/de697917r3v3Xuve/de697917r3v3Xuve/de697917r3v3Xuve/de697917r3v3Xuve/de697917r3v3Xuve/de6//9Df49+691737r3Xvfuvde9+691737r3Xvfuvde9+691737r3Xvfuvde9+691737r3Xvfuvde9+691737r3Xvfuvde9+691737r3Xvfuvde9+691737r3QIfJD469R/LLpDsf48d6bUpN59Xdp7brts7owtSsazLBVJelyuJq3jlbGZ/CVqR1dBVopemq4Y5FuVsfde6+OF/Nz/lb9vfyp/lXuTpDfS1O4uts7NXbj6M7USjemxvYnX8lUVop5o9U0WP3ThBItNlaISSfb1K3R5InSRvde6LT8H/AJq96fy/fkh198nPj5uNsJvfY2RVqzF1TTybc3rtiqZYtwbI3fj4ZYf4ltzcVBqhnTUskRKywvHNHG6+6919iv8AlhfzK+iv5ovxk218genK2LGZlI6bD9qdY1tbBUbl6u30lOHyO38qiaJKnHTOrS46u8aR11KQ4CuHjT3XurF/fuvde9+691737r3Xvfuvde9+691737r3Xvfuvde9+691737r3Xvfuvde9+691737r3Xvfuvde9+691737r3Xvfuvde9+691737r3Xvfuvde9+691737r3Xvfuvde9+691737r3Xvfuvde9+691737r3Xvfuvde9+691737r3Xvfuvde9+691737r3Xvfuvde9+691737r3Xvfuvde9+691737r3WOWWKCKWeeWOGCGN5ZppXWOKKKNS8kssjkJHHGgJZiQABc+/de6+b3/wpw/4UBP3/AJXdn8u74ZbvK9HbfybYv5Fds7fqyv8Apc3DiakF+ttrZCmkseuMBkIQ2SqFN8xXRLGumlgJq/de60lqamqa2pp6Ojp56urq54qalpaaKSepqameRYoKengiV5Zp5pXCoigszEAC/v3XuvqE/wDCYr+Ruvwf6to/mt8nNpU0Xyx7j22q7F2vl6ZKiv6J6uzUUdStPIJVKY/sHe9MY3yHjBkoKEJS+TVNVRr7r3W3R7917r3v3Xuve/de697917r3v3Xuve/de697917r3v3Xuve/de697917r3v3Xuve/de697917r3v3Xuve/de697917r3v3Xuve/de697917r3v3Xuve/de6//9Hf49+691737r3Xvfuvde9+691737r3Xvfuvde9+691737r3Xvfuvde9+691737r3Xvfuvde9+691737r3Xvfuvde9+691737r3Xvfuvde9+691737r3XvfuvdVu/zRv5ZXRH8074xbj6A7ipVw24adZ871J2rjqGnqdz9V7/gppExm4MZ5TE1diKlj4MpjmkjjyFE7x645PHNH7r3Xx2fmx8L+9vgJ8id+/Gn5C7Yk29vnZGRkjpq+BZpdvbx27NI5wm89o5KWGEZTbmfo1WaCTSsiXMcqRyo6L7r3Q4/yvv5nPyA/lY/JPA989LVzZjAVTU+H7Y6mylfU0u0u1djyTo9fgcsIlnXH5anQGXG5JIpJsfVqsgWRPJFJ7r3X1+/5f/z/APjv/Mj+Ou1fkZ8dN0JlcHl4YqLdu0ci8FPvPrTeEcCvlNmb2xEU0zY/LUEhPjlRpKWthtNTSyxMG9+690dz37r3Xvfuvde9+691737r3Xvfuvde9+691737r3Xvfuvde9+691737r3Xvfuvde9+691737r3Xvfuvde9+691737r3Xvfuvde9+691737r3Xvfuvde9+691737r3Xvfuvde9+691737r3Xvfuvde9+691737r3Xvfuvde9+691737r3Xvfuvde9+691737r3Xvfuvde9+691737r3XRIAJJAABJJNgAOSSTwAB7917rQV/wCFKH/CjCmpKffP8vL4GbzSprqhKzbPyP8AkFtfIhqehgbXTZXqjrPLUUlqmuqPVFm8vC/ihjvS0zSPJNJB7r3Xz82ZnZmZizMSzMxJZmJuWYm5JJPJ9+691vof8Jgf+E/z7mqdn/zJfmrsuWHbtBUQZz4s9NbmoNLbjrITqpe6N7YqsiumBoZBfb1DKuusnH3sipBFTCq917r6E/v3Xuve/de697917r3v3Xuve/de697917r3v3Xuve/de697917r3v3Xuve/de697917r3v3Xuve/de697917r3v3Xuve/de697917r3v3Xuve/de697917r3v3Xuv/S3+Pfuvde9+691737r3Xvfuvde9+691737r3Xvfuvde9+691737r3Xvfuvde9+691737r3Xvfuvde9+691737r3Xvfuvde9+691737r3Xvfuvde9+691737r3XvfuvdU0fzmf5OfSv82j4/1e1s1Hi9kfInY1BXVvRndH2WqqwOYZGm/urut6aNqzJ7B3DOqx1cIEktIxFTApkQxye6918iD5RfF3vD4bd373+PXyG2Llev8As7YWSkoctiMjGGpq6kLv/D8/gMjEXos5t3MwL5aSspnkhmjPDagwHuvdGm/lgfzR/kf/ACrfkFje6ejcp/F9tZOSkxva/UGarqmHZfau0knV6nEZZIln/hmap49T47KRRPPQVGl9MkeuF/de6+uH/Lc/mZ/GX+Z/0Pi+6fj3uiNsjSwUVL2T1fmZqaDf3Vm5qinWWbBbnxUcsmunZ9X2tfTmWhrEUmKQsrqnuvdWG+/de697917r3v3Xuve/de697917r3v3Xuve/de697917r3v3Xuve/de697917r3v3Xuve/de697917r3v3Xuve/de697917r3v3Xuve/de697917r3v3Xuve/de697917r3v3Xuve/de697917r3v3Xuve/de697917r3v3Xuve/de697917r3v3Xuve/de697917rBVVVNQ01TW1tTBR0dHBNVVdXVTR09NS01PG0s9TUzyskUEEESFndiFVQSSAPfuvdfP2/4UK/8Kao8vDvr4Nfy594l8bMMjtPvH5PberAI8hAQ9Fmdh9N5CmfW9JOS9Pkc+pVZEDxUWtJPuR7r3Wg1LLLPLJNNJJNNNI8sssrtJLLLIxeSSSRyWeR2JJJJJJ9+691udf8ACbz/AITv5T5R5/afzo+bOzanG/GvAVlPm+nOp9wU01HX955uiqFmotz5+hlRJqfqvHTxao1bTJmpQNFqZS8vuvdfSyoqKjxtHSY7HUlLQY+gpYKKgoKKCKlo6KjpYkgpaSkpYEjgpqWmgjVI40VURFAAAHv3XupPv3Xuve/de697917r3v3Xuve/de697917r3v3Xuve/de697917r3v3Xuve/de697917r3v3Xuve/de697917r3v3Xuve/de697917r3v3Xuve/de697917r3v3Xuv/9Pf49+691737r3Xvfuvde9+691737r3Xvfuvde9+691737r3Xvfuvde9+691737r3Xvfuvde9+691737r3Xvfuvde9+691737r3Xvfuvde9+691737r3Xvfuvde9+691737r3VMP84z+S58ff5tnToxO5xSdd/IfY9BWSdPd54/Gx1GSw1S6mU7V3dBE0E+4Ni5idQJ4C/lpJCKiC7oY5Pde6+Sd8yvhh8g/gX3xu347/JPYtfsrfu1qlzTzOkk+3t3YGSR1xm7tm5oRrS5/bWXiTXDPEdSNqilWOZJI1917p6+Dvzs+R/8vPvjbXyD+NG96nau7cJNFFmcLVGer2fvvb/lWSu2pvbApPBDmsHkIwVYakmhLa4ZI3Ab37r3X1c/5PH89D4x/wA2XYcGLws9F1J8odvYlKvsP4957Lwz5O0EV8huTrjJzLTHe+zVlRz5I40rqSMA1dPCGVm917q8L37r3Xvfuvde9+691737r3Xvfuvde9+691737r3Xvfuvde9+691737r3Xvfuvde9+691737r3Xvfuvde9+691737r3Xvfuvde9+691737r3Xvfuvde9+691737r3Xvfuvde9+691737r3Xvfuvde9+691737r3Xvfuvde9+691737r3Xvfuvde9+690huy+zOvemth7p7R7W3lt3r7rzZGIqc9uzeO68pS4fA4LFUigy1VdX1bxxJqYqkaC8k0rrHGrOyqfde6+aN/Pb/wCFOW+vmlHuz4pfByuz3WXxXlnqsRvjtAiowvYfe9JC7QNQ0UYMdds3rWrIMn27FMjk0aP7laZEeCT3XutPn37r3W7D/wAJ5v8AhNXnPkNWbM+bXz92dX7d6Dp5KLcnTnRGeppsfuDuV4ZUqcdu3fFDMI6rCdZM6B6alkVavNL69MVIY5aj3XuvpD4nE4vA4vHYTCY6hxGGxFFTY3FYrGUsFDjsbj6KFKekoaGjpkjp6WkpYI1SONFVUUAAAD37r3Th7917r3v3Xuve/de697917r3v3Xuve/de697917r3v3Xuve/de697917r3v3Xuve/de697917r3v3Xuve/de697917r3v3Xuve/de697917r3v3Xuve/de697917r3v3Xuv/U3+Pfuvde9+691737r3Xvfuvde9+691737r3Xvfuvde9+691737r3Xvfuvde9+691737r3Xvfuvde9+691737r3Xvfuvde9+691737r3Xvfuvde9+691737r3Xvfuvde9+691737r3VaH8zv+VV8X/wCal0hVdUd84L+E7txFPWVHVnc+3qKkO/ur9wTRnw12LqZvH/F8DPUKv32JnkWmrYgVDRSFZk917r5NX8zr+VH8qP5V3c0/W3fe15K/ZWcrK09Wd07dpqqp667NxFM7ssuKyjxKcZn6eAaqvE1ghrqf9fjaFklf3XuiFdW9qdkdJb/2v2n1HvbcfXXYuystSZzau8dp5SpxGcwuUopknp6mkrKZ0awdAHjfVFKl1dWUkH3XuvoqfyVv+FXOwu+pdpfGr+ZDX7e6p7gqWpMBtD5FQoMT1d2DVMwp6Cl7DRmkg683PVakR6+RhhZ3VpZZaQuI/fuvdbrlFW0eSo6TI46rpa/H19LBW0FfRTxVVHW0dVEk9LV0lVA8kFTS1MEivHIjMjowIJB9+691J9+691737r3Xvfuvde9+691737r3Xvfuvde9+691737r3Xvfuvde9+691737r3Xvfuvde9+691737r3Xvfuvde9+691737r3Xvfuvde9+691737r3Xvfuvde9+691737r3Xvfuvde9+691737r3Xvfuvde9+691737r3XvfuvdV1/wAxr+aN8Sf5YHUVV2h8k99Q0+arqSduv+o9tyUuS7S7NyUZdEodrbcaeExUIlRlnyda9LjKYrpknVyiN7r3XyzP5t/8875Z/wA13etTjt3ZObqv424PKvU7A+P+08lVLhYo4fIlJnN/5GNoG3tuuQSOxkljSlpQyxwxXj8r+691TBhsNmNxZbGYDb+KyWdzuar6TFYbC4ahqsnlstlK+dKWhxuMxtFFPWV9fW1MqxxQxI8kjsFUEkD37r3X0Kv5DH/CWyi2M2yfmJ/Ms2rR5TeKLj91dU/FfJrDW43a05ENbh90dzorS0mQz1PxPT7fUvFSSeNq1vNG9Kvuvdb29PTwUkENLSww01NTQx09PT08aQwU8EKLHDDDDGqxxQxRqFVVACgAAW9+691l9+691737r3Xvfuvde9+691737r3Xvfuvde9+691737r3Xvfuvde9+691737r3Xvfuvde9+691737r3Xvfuvde9+691737r3Xvfuvde9+691737r3Xvfuvde9+691737r3Xvfuvdf/9Xf49+691737r3Xvfuvde9+691737r3Xvfuvde9+691737r3Xvfuvde9+691737r3Xvfuvde9+691737r3Xvfuvde9+691737r3Xvfuvde9+691737r3Xvfuvde9+691737r3Xvfuvde9+690Xj5R/FLoH5ndO7n6H+SPW+A7N623VStFV4jN0qPVYuuQaqHPbeyQX7zBbhxNQFmpaunZZI5EF9S3U+6918xr+dd/wmn76/l0VG5O+vjgu5PkD8PfvKmvqsjR4+TJdm9L4+Z2nWk7FxGMpy2U2zjEYxruCkjaAQxeWtSkLWPuvdaufv3Xutjb+Ur/wpI+Yv8tmXAdXb7qsh8lPirSzx00nV+8MzO27NiY6WpZ6ifq3d1d91Li4qYVM0wxNTegqZiq66cese6919Ln+X3/NB+HP8zDrWHsH4wdo47OZWjoYKneXVmfkp8H2v17USeJJqbdWzJ6h65KOGql8KZKkNViamQEQVMtvfuvdWE+/de697917r3v3Xuve/de697917r3v3Xuve/de697917r3v3Xuve/de697917r3v3Xuve/de697917r3v3Xuve/de697917r3v3Xuve/de697917r3v3Xuve/de697917r3v3Xuve/de697917r3v3XumrOZ3CbYw2U3FuXMYrb238JQ1OUzWdzmQpMThsRjKKJp6zI5TJ181PRUFDSQIzyzSukcaAliAPfuvdaXv8ANz/4VvdP9FDc/Rn8uKDD959t05rcPl+/srTtP0zseujaSCSXZtNJon7Ry9JPCQJUWLBskiyRVVTYx+/de6+eV8gvkd3l8quz9w9yfIXs7dva/ZG56n7nK7m3dlajJVWkRxQw0dBBIwpMVjaWCBI4qamjihjVBZfz7917pa/ET4Z/JD509ybf6K+MXWG4Oy9+Z2pp1qFxlP4cBtbGTS+OXcW9Ny1Rhwm1NvUgVi9VWzwxswEceuVkRvde6+oX/Jd/4TlfHT+WTjMN3D2z/BO/fmLVUcclXv6vx4qNkdWyT0wjqMP1Th8nTLOlUrySibNVSJWThlWOOBUu/uvdbJnv3Xuve/de697917r3v3Xuve/de697917r3v3Xuve/de697917r3v3Xuve/de697917r3v3Xuve/de697917r3v3Xuve/de697917r3v3Xuve/de697917r3v3Xuve/de697917r3v3Xuve/de6//W3+Pfuvde9+691737r3Xvfuvde9+691737r3Xvfuvde9+691737r3Xvfuvde9+691737r3Xvfuvde9+691737r3Xvfuvde9+691737r3Xvfuvde9+691737r3Xvfuvde9+691737r3Xvfuvde9+691GrKOkyFLU0NfS01dQ1kMtNV0dZBFU0tVTzIY5qepp5leGeGWNirIwKsDYj37r3Wnf8Azh/+EovSnyqn3b3/APAqXbvx/wC/a9q7O57qaoi/h3TPZ2XmIq62fHimjkPXu6srOsjeSKM42qq6gtOKdbyD3XuvnN/JL4u/ID4g9p5zpb5J9Vbu6i7I2/I4q9vbsxslIK2lWaSCPL4DKRmXEbm2/VyRN9vkMfPU0VQFJjlYe/de6SnTvdnbnx839gO0+kOxt39Wdh7XroMlgd37Jzdbgs1jqymbXDJHU0csflRWPKSB42/Kn37r3W8R/K1/4WI5rFVG1OnP5nG1P4thrUeGh+UPXWKkfLY5EWClgyPZ3X9BG8uUpoaeAtU5DDrNWzTylzSEXI917rfP6Z7s6k+Q/XG2+3Oj+xNo9pdbbuoo67Abx2Vm6HPYWtjdEeWmaqoJphSZOhZ/HVUkwjqaSYNHNGkiso917oUffuvde9+691737r3Xvfuvde9+691737r3Xvfuvde9+691737r3Xvfuvde9+691737r3Xvfuvde9+691737r3Xvfuvde9+691737r3Xvfuvde9+691737r3Xvfuvde9+691737r3VDf81P/hQj8Hv5YVPltjZXcA72+SsMFRDSdD9YZLHZHI7dyPjmSB+z9xiZ8NsKnp6oRmejqHbMNA4eKkdSD7917r5wn8yz+ez89f5nGTyOH7T7Bk656PavNVhegOsaqtwmxKWKGoq5cc+5Z1kjyW98xQxVjxfd1zWZLARIBb37r3VM3v3Xutm3+UV/wmV+XH8wubbvbveNLmPi78Vqiair13Tu/DVNJ2X2ZiJAZ2j6z2TkI6esSgrIGiaPMZJaXHSQTeSlaqZSnv3XuvpffCL+X/8AFP8Al49S0PTnxY6txGw9vxhJs7n5I4cjvne+UEUML5ve+7ZII8luHKSxU0a6pCsSKiiONAAPfuvdHN9+691737r3Xvfuvde9+691737r3Xvfuvde9+691737r3Xvfuvde9+691737r3Xvfuvde9+691737r3Xvfuvde9+691737r3Xvfuvde9+691737r3Xvfuvde9+691737r3Xvfuvde9+691737r3Xvfuvdf/19/j37r3Xvfuvde9+691737r3Xvfuvde9+691737r3Xvfuvde9+691737r3Xvfuvde9+691737r3Xvfuvde9+691737r3Xvfuvde9+691737r3Xvfuvde9+691737r3Xvfuvde9+691737r3Xvfuvde9+691737r3RNPmp/L/wDib/MF6wrOqPlR1Ft/sXBPHUnCZx4Ux+9tmZCpp3pf41svdtNGMtt7LRQyELJE5Ug2ZWHHv3XuvnqfzSP+Eknyn+MCbl7b+EGSrvlX0tRGtytT19DSx0nfWzsYnkqWhh25CftuxaSkEiU8H8IabKT+MyPRqDf37r3WofmMNl9u5bJ4DP4vI4PO4Wvq8VmMNl6KpxuVxOToJ3pa7HZLH1kcNXQ11HUxNHLFKiyRupVgCCPfuvdWrfyn/wCcF8nf5Ufc9BvDq/O1+6+l9wZSgHcHQmYyMv8AdDfeFimtPV4+OUTRbc3pQU0spoclAgZGcpKJInZffuvdfXl+FfzK6N+fHxy69+Tvx83IM/sDf+O8jUdUIoNw7Q3FR6Yc/srd2MSWVsTubb1aTFPES0cqFJ4Xkp5oZX917o1fv3Xuve/de697917r3v3Xuve/de697917r3v3Xuve/de697917r3v3Xuve/de697917r3v3Xuve/de697917r3v3Xuve/de697917r3v3Xuve/de697917r3v3XutI7/hSJ/woyynxqym6/gP8Et2/a96Q07YvvfvfA1UMv8Aokarh/e6+2FXQtIh7ISGT/cnWqf9wjEU6n7wTLT+69184rMZnL7hyuQzueyeQzWay9ZPkMplsrVz1+SyNdVSNLU1ldW1UktRVVM8jFnd2LMTyffuvdWG/wAvn+VH82f5mG+Kfa/xl6izOV2rT14o91dw7lgn271DstIzC1b/ABne9dCmLqsrR004l/hdC1VlZkI8VO9/fuvdfRU/lV/8Jcfht8D5dvdrd/jG/LL5I400WSpc1urDqvVOwc1AKKoEmxdlV6yDJ1lBkKVnp8plFapCyELDEffuvdbQMMMNPDFT08UcEEEaQwQQosUMMMShI4oo0CpHHGigKoAAAsPfuvdZPfuvde9+691737r3Xvfuvde9+691737r3Xvfuvde9+691737r3Xvfuvde9+691737r3Xvfuvde9+691737r3Xvfuvde9+691737r3Xvfuvde9+691737r3Xvfuvde9+691737r3Xvfuvde9+691737r3Xvfuvdf/0N/j37r3Xvfuvde9+691737r3Xvfuvde9+691737r3Xvfuvde9+691737r3Xvfuvde9+691737r3Xvfuvde9+691737r3Xvfuvde9+691737r3Xvfuvde9+691737r3Xvfuvde9+691737r3Xvfuvde9+691737r3Xvfuvde9+691r//AM5T+QL8Yv5oewM/vDbOA23018v8TjKifZXdWBxMFAm7Kukph/D9p9q01DHF/eLbtTJEI46plasxxleSIsGdG917r5NXyC6C7X+Lnc/Ynx/7x2jkNjdqdW7jq9sbv21klHlpK6mCTU9XSVCXgyGIy1BPFV0NXCzQVdHPFNEzRurH3Xutgr/hMR/NXzfwO+aWF6F7C3K8Pxi+VebxWzd1UOTrfHh9jdm1MiUOyew6P7iUQ0BqZnGLyQiXXVwzQFr/AG6W917r6xfv3Xuve/de697917r3v3Xuve/de697917r3v3Xuve/de697917r3v3Xuve/de697917r3v3Xuve/de697917r3v3Xuve/de697917r3v3Xuve/de697917qkf+ft/M0P8ALG+BO8uw9n1tFH3z2xNV9V9EUlV4pHpd15fHy/xTeYo5rJXU+xMXL960VxrlMSngn37r3Xx1c9nc1ujN5jcu5MrX53cO4MnXZrOZrK1U1dk8tl8nUy1uRyWQrah5J6utrauZ5JZHYs7sSTc+/de62uv+E7n/AAnln/mJVNF8uPldS5nb/wAP9tZ+Wm2ftWnZ8flfkHn8FWSU2WooK0NHVY7rvC5CBqetrIfXWVUUlLERonZPde6+nR1f1T1p0nsbb3WfUOxNq9bdfbUx9PitubO2ZhKHAbfw2OpUEdPS0ONx0MFPFHGgt9Ln8n37r3Qge/de697917r3v3Xuve/de697917r3v3Xuve/de697917r3v3Xuve/de697917r3v3Xuve/de697917r3v3Xuve/de697917r3v3Xuve/de697917r3v3Xuve/de697917r3v3Xuve/de697917r3v3Xuve/de697917r3v3Xuv/R3+Pfuvde9+691737r3Xvfuvde9+691737r3Xvfuvde9+691737r3Xvfuvde9+691737r3Xvfuvde9+691737r3Xvfuvde9+691737r3Xvfuvde9+691737r3Xvfuvde9+691737r3Xvfuvde9+691737r3Xvfuvde9+691737r3XvfuvdaM3/Cyf+XRtzdPT/W/8xrYOEpqLfnXWWxfUXdj46ic1O6tj5+Wol2NuPIClh0Gp2fl1qaSaqmYs1LWwR30wrb3XuvnV4+vrcVX0WUx1TNRZDG1dNX0FZTuY56Sto5kqKWpgkX1JNBPGrKRyGAPv3XuvtkfygflRL80f5a3xD+Q2Qlkm3FuvqfHYDeMlRULUVtRvTrjIZHrbdWSriCWjqc7m9pzZDS3OiqUi4IJ917qyX37r3Xvfuvde9+691737r3Xvfuvde9+691737r3Xvfuvde9+691737r3Xvfuvde9+691737r3Xvfuvde9+691737r3Xvfuvde9+691737r3XvfuvdfLj/wCFh/y1yXcX8yDCfGvH1tQuzvip1htfFT0UVaZ8XkN+9l4qi7DzWaWBGMUeQpMFncfjZP7SGjYHnUB7r3Wvv/Lt+Iee+d3zR+PnxXwU9RQJ2v2BiMPuLOQUklau29n08v326tw1EMYv4MZhqeVrmw1lR+ffuvdfbd6f6l6/6G6t6/6Y6q25Q7S656w2lg9k7N27jokjpsXgNvY+DG4+C6qpnqDBThppmvJNKzSOSzEn3XuhH9+691737r3Xvfuvde9+691737r3Xvfuvde9+691737r3Xvfuvde9+691737r3Xvfuvde9+691737r3Xvfuvde9+691737r3Xvfuvde9+691737r3Xvfuvde9+691737r3Xvfuvde9+691737r3Xvfuvde9+691737r3Xvfuvde9+691/9Lf49+691737r3Xvfuvde9+691737r3Xvfuvde9+691737r3Xvfuvde9+691737r3Xvfuvde9+691737r3Xvfuvde9+691737r3Xvfuvde9+691737r3Xvfuvde9+691737r3Xvfuvde9+691737r3Xvfuvde9+691737r3Xvfuvde9+691WP8AznOsqPuD+Vj85dhVkXk/ifQG8a6jdYkmlpclgIYc/j6uBZAQJqerxisD9bXH59+6918T/wB+691Zj8aP5w38x34f9VY3pL47fKLf3W3V+HyWUy2K2jiJqN8bj67NT/dZOWkSqppmhWsqryOoOkuSbXJ9+690P3/QRN/OP/7zd7P/ANviv/qD37r3Xv8AoIm/nH/95u9n/wC3xX/1B7917r3/AEETfzj/APvN3s//AG+K/wDqD37r3Xv+gib+cf8A95u9n/7fFf8A1B7917r3/QRN/OP/AO83ez/9viv/AKg9+6917/oIm/nH/wDebvZ/+3xX/wBQe/de69/0ETfzj/8AvN3s/wD2+K/+oPfuvde/6CJv5x//AHm72f8A7fFf/UHv3Xuvf9BE384//vN3s/8A2+K/+oPfuvde/wCgib+cf/3m72f/ALfFf/UHv3Xuvf8AQRN/OP8A+83ez/8Ab4r/AOoPfuvde/6CJv5x/wD3m72f/t8V/wDUHv3Xuvf9BE384/8A7zd7P/2+K/8AqD37r3Xv+gib+cf/AN5u9n/7fFf/AFB7917r3/QRN/OP/wC83ez/APb4r/6g9+6917/oIm/nH/8AebvZ/wDt8V/9Qe/de69/0ETfzj/+83ez/wDb4r/6g9+6917/AKCJv5x//ebvZ/8At8V/9Qe/de69/wBBE384/wD7zd7P/wBviv8A6g9+6917/oIm/nH/APebvZ/+3xX/ANQe/de6qp7y7y7V+Sfau8e7O7d55bsHtDf2SGW3Zu7OSibJ5iuWCGljlqHVVQCGmp0jRQAqogAFh7917raP/wCEanV9Buz+Zj2D2RVRvJU9UfHzdT430gww1O98jQ4CWd7i6yrRwSIhH4kb37r3X1EPfuvde9+691737r3Xvfuvde9+691737r3Xvfuvde9+691737r3Xvfuvde9+691737r3Xvfuvde9+691737r3Xvfuvde9+691737r3Xvfuvde9+691737r3Xvfuvde9+691737r3Xvfuvde9+691737r3Xvfuvde9+691737r3Xvfuvde9+691/9Pf49+691737r3Xvfuvde9+691737r3Xvfuvde9+691737r3Xvfuvde9+691737r3Xvfuvde9+691737r3Xvfuvde9+691737r3Xvfuvde9+691737r3Xvfuvde9+691737r3Xvfuvde9+691737r3Xvfuvde9+691737r3Xvfuvde9+690kOwdj7f7N2JvLrrdlItftnfW2M7tHP0bBT9xiNw42pxVei6gyrJ9tVMVNvSwB/Hv3XuvmIfLz/hIN/Mc677l3Ti/iXhNq/ITpSqy2QrdlbnyHYvW/Xm48bgKiqlkxeG3Pit87vwM9TnMfRskVRPSxtTTOutCAbD3Xuit/wDQKR/O1/7xk2j/AOlC/Hz/AO2b7917r3/QKR/O1/7xk2j/AOlC/Hz/AO2b7917r3/QKR/O1/7xk2j/AOlC/Hz/AO2b7917r3/QKR/O1/7xk2j/AOlC/Hz/AO2b7917r3/QKR/O1/7xk2j/AOlC/Hz/AO2b7917r3/QKR/O1/7xk2j/AOlC/Hz/AO2b7917r3/QKR/O1/7xk2j/AOlC/Hz/AO2b7917r3/QKR/O1/7xk2j/AOlC/Hz/AO2b7917r3/QKR/O1/7xk2j/AOlC/Hz/AO2b7917r3/QKR/O1/7xk2j/AOlC/Hz/AO2b7917r3/QKR/O1/7xk2j/AOlC/Hz/AO2b7917r3/QKR/O1/7xk2j/AOlC/Hz/AO2b7917r3/QKR/O1/7xk2j/AOlC/Hz/AO2b7917r3/QKR/O1/7xk2j/AOlC/Hz/AO2b7917r3/QKR/O1/7xk2j/AOlC/Hz/AO2b7917r3/QKR/O1/7xk2j/AOlC/Hz/AO2b7917r3/QKR/O1/7xk2j/AOlC/Hz/AO2b7917r3/QKR/O1/7xk2j/AOlC/Hz/AO2b7917r3/QKR/O1/7xk2j/AOlC/Hz/AO2b7917r3/QKR/O1/7xk2j/AOlC/Hz/AO2b7917r3/QKR/O1/7xk2j/AOlC/Hz/AO2b7917rlH/AMJRv52bOiv8Z9oRozqryH5CfH1hGpIDOVXswswUc2AJPv3Xut3P/hPH/I4yf8prrrsXsTuXc1Buf5M97UOCxe7aHAyx1G2Ovtm4CafI4zaGOrIZ6qDLZiXKVss2QrIXMEhSJIyyJqPuvdbJvv3Xuve/de697917r3v3Xuve/de697917r3v3Xuve/de697917r3v3Xuve/de697917r3v3Xuve/de697917r3v3Xuve/de697917r3v3Xuve/de697917r3v3Xuve/de697917r3v3Xuve/de697917r3v3Xuve/de697917r3v3Xuve/de6//U3+Pfuvde9+691737r3Xvfuvde9+691737r3Xvfuvde9+691737r3Xvfuvde9+691737r3Xvfuvde9+691737r3Xvfuvde9+691737r3Xvfuvde9+691737r3Xvfuvde9+691737r3Xvfuvde9+691737r3Xvfuvde9+691737r3Xvfuvde9+691737r3Xvfuvde9+691737r3Xvfuvde9+691737r3Xvfuvde9+691737r3Xvfuvde9+691737r3Xvfuvde9+691737r3Xvfuvde9+691737r3Xvfuvde9+691737r3Xvfuvde9+691737r3Xvfuvde9+691737r3Xvfuvde9+691737r3Xvfuvde9+691737r3Xvfuvde9+691737r3Xvfuvde9+691737r3Xvfuvde9+691737r3Xvfuvde9+691737r3Xvfuvde9+691737r3Xvfuvde9+691737r3Xvfuvde9+691737r3Xvfuvdf//V3+Pfuvde9+691737r3Xvfuvde9+691737r3Xvfuvde9+691737r3Xvfuvde9+691737r3Xvfuvde9+691737r3Xvfuvde9+691737r3Xvfuvde9+691737r3Xvfuvde9+691737r3Xvfuvde9+691737r3Xvfuvde9+691737r3Xvfuvde9+691737r3Xvfuvde9+691737r3Xvfuvde9+691737r3Xvfuvde9+691737r3Xvfuvde9+691737r3Xvfuvde9+691737r3Xvfuvde9+691737r3Xvfuvde9+691737r3Xvfuvde9+691737r3Xvfuvde9+691737r3Xvfuvde9+691737r3Xvfuvde9+691737r3Xvfuvde9+691737r3Xvfuvde9+691737r3Xvfuvde9+691737r3Xvfuvde9+691737r3Xvfuvde9+691737r3Xvfuvde9+691737r3Xvfuvde9+691737r3Xvfuvdf//W3+Pfuvde9+691737r3Xvfuvde9+691737r3Xvfuvde9+691737r3Xvfuvde9+691737r3Xvfuvde9+691737r3Xvfuvde9+691737r3Xvfuvde9+691737r3Xvfuvde9+691737r3Xvfuvde9+691737r3Xvfuvde9+691737r3Xvfuvde9+691737r3Xvfuvde9+691737r3Xvfuvde9+691737r3Xvfuvde9+691737r3Xvfuvde9+691737r3Xvfuvde9+691737r3Xvfuvde9+691737r3Xvfuvde9+691737r3Xvfuvde9+691737r3Xvfuvde9+691737r3Xvfuvde9+691737r3Xvfuvde9+691737r3Xvfuvde9+691737r3Xvfuvde9+691737r3Xvfuvde9+691737r3Xvfuvde9+691737r3Xvfuvde9+691737r3Xvfuvde9+691737r3Xvfuvde9+691737r3Xvfuvdf//X3+Pfuvde9+691737r3Xvfuvde9+691737r3Xvfuvde9+691737r3Xvfuvde9+691737r3Xvfuvde9+691737r3Xvfuvde9+691737r3Xvfuvde9+691737r3Xvfuvde9+691737r3Xvfuvde9+691737r3Xvfuvde9+691737r3Xvfuvde9+691737r3Xvfuvde9+691737r3Xvfuvde9+691737r3Xvfuvde9+691737r3Xvfuvde9+691737r3Xvfuvde9+691737r3Xvfuvde9+691737r3Xvfuvde9+691737r3Xvfuvde9+691737r3Xvfuvde9+691737r3Xvfuvde9+691737r3Xvfuvde9+691737r3Xvfuvde9+691737r3Xvfuvde9+691737r3Xvfuvde9+691737r3Xvfuvde9+691737r3Xvfuvde9+691737r3Xvfuvde9+691737r3Xvfuvde9+691737r3Xvfuvdf//Q3+Pfuvde9+691737r3Xvfuvde9+691737r3Xvfuvde9+691737r3Xvfuvde9+691737r3Xvfuvde9+691737r3Xvfuvde9+691737r3Xvfuvde9+691737r3Xvfuvde9+691737r3Xvfuvde9+691737r3Xvfuvde9+691737r3Xvfuvde9+691737r3Xvfuvde9+691737r3Xvfuvde9+691737r3Xvfuvde9+691737r3Xvfuvde9+691737r3Xvfuvde9+691737r3Xvfuvde9+691737r3Xvfuvde9+691737r3Xvfuvde9+691737r3Xvfuvde9+691737r3Xvfuvde9+691737r3Xvfuvde9+691737r3Xvfuvde9+691737r3Xvfuvde9+691737r3Xvfuvde9+691737r3Xvfuvde9+691737r3Xvfuvde9+691737r3Xvfuvde9+691737r3Xvfuvde9+691737r3Xvfuvdf//R3+Pfuvde9+691737r3Xvfuvde9+691737r3Xvfuvde9+691737r3Xvfuvde9+691737r3Xvfuvde9+691737r3Xvfuvde9+691737r3Xvfuvde9+691737r3Xvfuvde9+691737r3Xvfuvde9+691737r3Xvfuvde9+691737r3Xvfuvde9+691737r3Xvfuvde9+691737r3Xvfuvde9+691737r3Xvfuvde9+691737r3Xvfuvde9+691737r3Xvfuvde9+691737r3Xvfuvde9+691737r3Xvfuvde9+691737r3Xvfuvde9+691737r3Xvfuvde9+691737r3Xvfuvde9+691737r3Xvfuvde9+691737r3Xvfuvde9+691737r3Xvfuvde9+691737r3Xvfuvde9+691737r3Xvfuvde9+691737r3Xvfuvde9+691737r3Xvfuvde9+691737r3Xvfuvde9+691737r3Xvfuvdf//S3+Pfuvde9+691737r3Xvfuvde9+691737r3Xvfuvde9+691737r3Xvfuvde9+691737r3Xvfuvde9+691737r3Xvfuvde9+691737r3Xvfuvde9+691737r3Xvfuvde9+691737r3Xvfuvde9+691737r3Xvfuvde9+691737r3Xvfuvde9+691737r3Xvfuvde9+691737r3Xvfuvde9+691737r3Xvfuvde9+691737r3Xvfuvde9+691737r3Xvfuvde9+691737r3Xvfuvde9+691737r3Xvfuvde9+691737r3Xvfuvde9+691737r3Xvfuvde9+691737r3Xvfuvde9+691737r3Xvfuvde9+691737r3Xvfuvde9+691737r3Xvfuvde9+691737r3Xvfuvde9+691737r3Xvfuvde9+691737r3Xvfuvde9+691737r3Xvfuvde9+691737r3Xvfuvde9+691737r3Xvfuvdf//T3+Pfuvde9+691737r3Xvfuvde9+691737r3Xvfuvde9+691737r3Xvfuvde9+691737r3Xvfuvde9+691737r3Xvfuvde9+691737r3Xvfuvde9+691737r3Xvfuvde9+691737r3Xvfuvde9+691737r3Xvfuvde9+691737r3Xvfuvde9+691737r3Xvfuvde9+691737r3Xvfuvde9+691737r3Xvfuvde9+691737r3Xvfuvde9+691737r3Xvfuvde9+691737r3Xvfuvde9+691737r3Xvfuvde9+691737r3Xvfuvde9+691737r3Xvfuvde9+691737r3Xvfuvde9+691737r3Xvfuvde9+691737r3Xvfuvde9+691737r3Xvfuvde9+691737r3Xvfuvde9+691737r3Xvfuvde9+691737r3Xvfuvde9+691737r3Xvfuvde9+691737r3Xvfuvde9+691737r3Xvfuvdf//U3+Pfuvde9+691737r3Xvfuvde9+691737r3Xvfuvde9+691737r3Xvfuvde9+691737r3Xvfuvde9+691737r3Xvfuvde9+691737r3Xvfuvde9+691737r3Xvfuvde9+691737r3Xvfuvde9+691737r3Xvfuvde9+691737r3Xvfuvde9+691737r3Xvfuvde9+691737r3Xvfuvde9+691737r3Xvfuvde9+691737r3Xvfuvde9+691737r3Xvfuvde9+691737r3Xvfuvde9+691737r3Xvfuvde9+691737r3Xvfuvde9+691737r3Xvfuvde9+691737r3Xvfuvde9+691737r3Xvfuvde9+691737r3Xvfuvde9+691737r3Xvfuvde9+691737r3Xvfuvde9+691737r3Xvfuvde9+691737r3Xvfuvde9+691737r3Xvfuvde9+691737r3Xvfuvde9+691737r3Xvfuvdf//V3+Pfuvde9+691737r3Xvfuvde9+691737r3Xvfuvde9+691737r3Xvfuvde9+691737r3Xvfuvde9+691737r3Xvfuvde9+691737r3Xvfuvde9+691737r3Xvfuvde9+691737r3Xvfuvde9+691737r3Xvfuvde9+691737r3Xvfuvde9+691737r3Xvfuvde9+691737r3Xvfuvde9+691737r3Xvfuvde9+691737r3Xvfuvde9+691737r3Xvfuvde9+691737r3Xvfuvde9+691737r3Xvfuvde9+691737r3Xvfuvde9+691737r3Xvfuvde9+691737r3Xvfuvde9+691737r3Xvfuvde9+691737r3Xvfuvde9+691737r3Xvfuvde9+691737r3Xvfuvde9+691737r3Xvfuvde9+691737r3Xvfuvde9+691737r3Xvfuvde9+691737r3Xvfuvde9+691737r3Xvfuvdf//W3+Pfuvde9+691737r3Xvfuvde9+691737r3Xvfuvde9+691737r3Xvfuvde9+691737r3Xvfuvde9+691737r3Xvfuvde9+691737r3Xvfuvde9+691737r3Xvfuvde9+691737r3Xvfuvde9+691737r3Xvfuvde9+691737r3Xvfuvde9+691737r3Xvfuvde9+691737r3Xvfuvde9+691737r3Xvfuvde9+691737r3Xvfuvde9+691737r3Xvfuvde9+691737r3Xvfuvde9+691737r3Xvfuvde9+691737r3Xvfuvde9+691737r3Xvfuvde9+691737r3Xvfuvde9+691737r3Xvfuvde9+691737r3Xvfuvde9+691737r3Xvfuvde9+691737r3Xvfuvde9+691737r3Xvfuvde9+691737r3Xvfuvde9+691737r3Xvfuvde9+691737r3Xvfuvde9+691737r3Xvfuvdf//Z;" vertex="1" parent="1">
          <mxGeometry x="474" y="260" width="40" height="40" as="geometry" />
        </mxCell>
      </root>
    </mxGraphModel>
  </diagram>
</mxfile>
